<svg width="360" height="800" viewBox="0 0 360 800" fill="none" xmlns="http://www.w3.org/2000/svg">
<g clip-path="url(#clip0_41_25)">
<rect width="360" height="800" fill="#F3FDFF"/>
<path d="M559 400C559 609.316 389.316 779 180 779C-29.3159 779 -199 609.316 -199 400C-199 190.684 -29.3159 21 180 21C389.316 21 559 190.684 559 400ZM-155.359 400C-155.359 585.214 -5.21371 735.359 180 735.359C365.214 735.359 515.359 585.214 515.359 400C515.359 214.786 365.214 64.6409 180 64.6409C-5.21371 64.6409 -155.359 214.786 -155.359 400Z" fill="url(#paint0_linear_41_25)" fill-opacity="0.5"/>
<path d="M492 400C492 572.313 352.313 712 180 712C7.68716 712 -132 572.313 -132 400C-132 227.687 7.68716 88 180 88C352.313 88 492 227.687 492 400ZM-96.074 400C-96.074 552.471 27.5285 676.074 180 676.074C332.471 676.074 456.074 552.471 456.074 400C456.074 247.529 332.471 123.926 180 123.926C27.5285 123.926 -96.074 247.529 -96.074 400Z" fill="url(#paint1_linear_41_25)" fill-opacity="0.5"/>
<path d="M421 400C421 533.101 313.101 641 180 641C46.8994 641 -61 533.101 -61 400C-61 266.899 46.8994 159 180 159C313.101 159 421 266.899 421 400ZM-27.9251 400C-27.9251 514.834 65.1661 607.925 180 607.925C294.834 607.925 387.925 514.834 387.925 400C387.925 285.166 294.834 192.075 180 192.075C65.1661 192.075 -27.9251 285.166 -27.9251 400Z" fill="url(#paint2_linear_41_25)" fill-opacity="0.5"/>
<path d="M360 400C360 499.411 279.411 580 180 580C80.5887 580 0 499.411 0 400C0 300.589 80.5887 220 180 220C279.411 220 360 300.589 360 400ZM31.33 400C31.33 482.108 97.8918 548.67 180 548.67C262.108 548.67 328.67 482.108 328.67 400C328.67 317.892 262.108 251.33 180 251.33C97.8918 251.33 31.33 317.892 31.33 400Z" fill="url(#paint3_linear_41_25)" fill-opacity="0.5"/>
<circle cx="181" cy="400" r="114" fill="#DEF9FF"/>
<g filter="url(#filter0_i_41_25)">
<path d="M113.885 437.458H91L100.996 453.167L91 468.746H124.932L113.885 462.384V437.458Z" fill="#FFB201"/>
</g>
<g filter="url(#filter1_i_41_25)">
<path d="M248.793 437.458H271.678L261.682 453.167L271.678 468.746H237.746L248.793 462.384V437.458Z" fill="#FFB201"/>
</g>
<path d="M181.594 340.509C133.211 342.721 120.395 398.55 149.948 423.797L212.194 423.667C247.109 390.351 222.786 342.461 181.594 340.509Z" fill="#00A1C6"/>
<path d="M154.017 381.68C162.35 389.159 170.429 395.891 178.196 404.407C186.64 390.476 195.282 376.497 209.542 361.358L205.7 359.898C193.659 370.491 184.304 380.517 176.175 392.433C170.523 388.209 161.387 382.232 155.81 379.161L154.017 381.68Z" fill="white"/>
<path d="M128.408 423.797H147.502C112.69 387.953 141.812 338.553 181.144 338.553C228.555 340.117 244.922 393.427 215.176 423.797H234.011L232.972 414.412L243.753 408.286L238.687 397.077L247 387.953L238.687 378.829L243.883 367.75L232.972 361.363L234.27 349.111L222.061 346.765L219.852 334.643L207.642 336.207L201.278 325.389L190.237 330.472L181.144 322L172.052 330.472L160.881 325.389L154.906 336.207L142.566 334.643L140.228 346.765L128.148 349.111L129.317 361.754L118.666 367.489L123.731 378.829L115.678 387.953L123.731 397.077L118.795 408.156L129.447 414.412L128.408 423.797Z" fill="#83E8FF"/>
<g filter="url(#filter2_i_41_25)">
<rect x="115.678" y="425.559" width="131.322" height="35.2542" fill="#FFB201"/>
</g>
<path d="M128.122 450.237L124.051 436.136H127.405L129.441 443.549C129.531 443.885 129.609 444.227 129.673 444.576C129.751 444.912 129.809 445.235 129.848 445.543C129.899 445.852 129.938 446.141 129.964 446.41C129.99 446.665 130.016 446.88 130.042 447.054H129.615C129.693 446.557 129.757 446.114 129.809 445.725C129.874 445.335 129.945 444.973 130.022 444.637C130.1 444.288 130.197 443.925 130.313 443.549L132.329 437.969H134.966L136.944 443.549C137.099 443.992 137.228 444.409 137.331 444.798C137.435 445.188 137.512 445.564 137.564 445.926C137.629 446.275 137.68 446.625 137.719 446.974L137.331 447.034C137.357 446.792 137.377 446.571 137.389 446.369C137.402 446.155 137.415 445.953 137.428 445.765C137.454 445.564 137.48 445.355 137.506 445.141C137.532 444.926 137.57 444.691 137.622 444.435C137.674 444.167 137.745 443.865 137.835 443.529L139.852 436.136H143.128L139.057 450.237H136.536L133.318 442.119L133.686 442.159L130.72 450.237H128.122Z" fill="white"/>
<path d="M142.433 450.237L147.803 436.136H150.595L155.926 450.237H152.592L150.033 443.086C149.929 442.804 149.826 442.501 149.722 442.179C149.619 441.857 149.516 441.528 149.412 441.192C149.309 440.843 149.205 440.507 149.102 440.185C149.011 439.849 148.934 439.54 148.869 439.258L149.451 439.238C149.373 439.574 149.283 439.903 149.18 440.225C149.089 440.547 148.992 440.87 148.889 441.192C148.798 441.501 148.695 441.817 148.579 442.139C148.462 442.448 148.352 442.77 148.249 443.106L145.69 450.237H142.433ZM144.992 447.538L146.019 444.959H152.262L153.27 447.538H144.992Z" fill="white"/>
<path d="M157.62 450.237V436.136H163.727C164.593 436.136 165.375 436.33 166.073 436.72C166.784 437.109 167.339 437.646 167.74 438.331C168.141 439.003 168.341 439.768 168.341 440.628C168.341 441.514 168.141 442.313 167.74 443.025C167.339 443.724 166.79 444.274 166.092 444.677C165.394 445.08 164.606 445.282 163.727 445.282H160.76V450.237H157.62ZM165.142 450.237L161.691 443.871L165.064 443.368L168.903 450.237H165.142ZM160.76 442.663H163.436C163.772 442.663 164.063 442.589 164.308 442.441C164.567 442.28 164.761 442.058 164.89 441.776C165.032 441.494 165.103 441.172 165.103 440.809C165.103 440.447 165.026 440.131 164.871 439.862C164.715 439.58 164.489 439.366 164.192 439.218C163.908 439.07 163.559 438.996 163.145 438.996H160.76V442.663Z" fill="white"/>
<path d="M171.233 450.237V436.136H177.34C178.206 436.136 178.988 436.33 179.686 436.72C180.396 437.109 180.952 437.646 181.353 438.331C181.754 439.003 181.954 439.768 181.954 440.628C181.954 441.514 181.754 442.313 181.353 443.025C180.952 443.724 180.403 444.274 179.705 444.677C179.007 445.08 178.219 445.282 177.34 445.282H174.373V450.237H171.233ZM178.755 450.237L175.304 443.871L178.677 443.368L182.516 450.237H178.755ZM174.373 442.663H177.049C177.385 442.663 177.676 442.589 177.921 442.441C178.18 442.28 178.374 442.058 178.503 441.776C178.645 441.494 178.716 441.172 178.716 440.809C178.716 440.447 178.639 440.131 178.484 439.862C178.328 439.58 178.102 439.366 177.805 439.218C177.521 439.07 177.172 438.996 176.758 438.996H174.373V442.663Z" fill="white"/>
<path d="M183.12 450.237L188.49 436.136H191.282L196.614 450.237H193.279L190.72 443.086C190.617 442.804 190.513 442.501 190.41 442.179C190.306 441.857 190.203 441.528 190.1 441.192C189.996 440.843 189.893 440.507 189.789 440.185C189.699 439.849 189.621 439.54 189.557 439.258L190.138 439.238C190.061 439.574 189.97 439.903 189.867 440.225C189.776 440.547 189.68 440.87 189.576 441.192C189.486 441.501 189.382 441.817 189.266 442.139C189.15 442.448 189.04 442.77 188.936 443.106L186.377 450.237H183.12ZM185.679 447.538L186.707 444.959H192.95L193.958 447.538H185.679Z" fill="white"/>
<path d="M198.307 450.237V436.136H201.254L208.369 446.208L207.729 446.108C207.665 445.664 207.613 445.241 207.574 444.838C207.536 444.435 207.497 444.039 207.458 443.65C207.432 443.26 207.406 442.864 207.38 442.461C207.368 442.058 207.355 441.622 207.342 441.152C207.342 440.682 207.342 440.171 207.342 439.621V436.136H210.541V450.237H207.555L200.13 439.842L201.118 439.983C201.183 440.628 201.235 441.179 201.273 441.635C201.325 442.078 201.364 442.475 201.39 442.824C201.428 443.173 201.454 443.489 201.467 443.771C201.48 444.053 201.487 444.335 201.487 444.617C201.5 444.885 201.506 445.188 201.506 445.523V450.237H198.307Z" fill="white"/>
<path d="M216.893 450.237V439.157H212.86V436.136H224.318V439.157H220.189V450.237H216.893Z" fill="white"/>
<path d="M230.349 450.237V443.207L230.484 444.194L224.998 436.136H228.739L232.927 442.381L231.221 442.32L235.002 436.136H238.627L233.373 444.415L233.664 443.045V450.237H230.349Z" fill="white"/>
<path d="M142.119 477.842V466.764H144.487L148.46 473.332L146.762 473.316L150.782 466.764H153.057V477.842H150.486V474.392C150.486 473.442 150.507 472.588 150.548 471.828C150.6 471.068 150.683 470.314 150.798 469.565L151.094 470.388L148.071 475.151H147.042L144.082 470.42L144.378 469.565C144.492 470.272 144.57 471 144.612 471.749C144.664 472.488 144.69 473.368 144.69 474.392V477.842H142.119Z" fill="#222222"/>
<path d="M154.411 477.842L158.728 466.764H160.971L165.256 477.842H162.576L160.519 472.224C160.436 472.002 160.353 471.765 160.27 471.512C160.187 471.258 160.104 471 160.021 470.736C159.938 470.462 159.855 470.198 159.772 469.945C159.699 469.681 159.636 469.438 159.585 469.217L160.052 469.201C159.99 469.465 159.917 469.723 159.834 469.977C159.761 470.23 159.683 470.483 159.6 470.736C159.527 470.979 159.444 471.227 159.351 471.48C159.257 471.723 159.169 471.976 159.086 472.24L157.029 477.842H154.411ZM156.468 475.721L157.294 473.696H162.311L163.122 475.721H156.468Z" fill="#222222"/>
<path d="M166.617 477.842V466.764H168.985L174.704 474.677L174.19 474.598C174.138 474.249 174.096 473.917 174.065 473.601C174.034 473.284 174.003 472.973 173.972 472.667C173.951 472.361 173.93 472.05 173.909 471.733C173.899 471.417 173.888 471.074 173.878 470.705C173.878 470.335 173.878 469.934 173.878 469.502V466.764H176.449V477.842H174.049L168.082 469.676L168.876 469.787C168.928 470.293 168.97 470.726 169.001 471.084C169.043 471.432 169.074 471.744 169.095 472.018C169.126 472.292 169.146 472.54 169.157 472.762C169.167 472.983 169.172 473.205 169.172 473.426C169.183 473.637 169.188 473.875 169.188 474.139V477.842H166.617Z" fill="#222222"/>
<path d="M177.799 477.842L182.115 466.764H184.359L188.644 477.842H185.964L183.907 472.224C183.824 472.002 183.741 471.765 183.658 471.512C183.575 471.258 183.492 471 183.408 470.736C183.325 470.462 183.242 470.198 183.159 469.945C183.086 469.681 183.024 469.438 182.972 469.217L183.44 469.201C183.377 469.465 183.305 469.723 183.221 469.977C183.149 470.23 183.071 470.483 182.988 470.736C182.915 470.979 182.832 471.227 182.738 471.48C182.645 471.723 182.557 471.976 182.474 472.24L180.417 477.842H177.799ZM179.856 475.721L180.682 473.696H185.699L186.509 475.721H179.856Z" fill="#222222"/>
<path d="M194.764 478C193.892 478 193.102 477.858 192.396 477.573C191.69 477.288 191.082 476.887 190.573 476.37C190.064 475.853 189.674 475.246 189.404 474.55C189.134 473.843 188.999 473.078 188.999 472.255C188.999 471.432 189.139 470.678 189.42 469.992C189.711 469.296 190.121 468.689 190.651 468.172C191.181 467.655 191.804 467.255 192.521 466.97C193.248 466.685 194.037 466.542 194.889 466.542C195.492 466.542 196.058 466.622 196.587 466.78C197.128 466.938 197.616 467.154 198.052 467.429C198.488 467.703 198.857 468.019 199.158 468.378L197.553 470.103C197.294 469.85 197.024 469.639 196.743 469.47C196.473 469.301 196.182 469.169 195.871 469.074C195.559 468.969 195.227 468.916 194.873 468.916C194.416 468.916 193.996 469.001 193.611 469.169C193.237 469.338 192.905 469.576 192.614 469.882C192.334 470.177 192.116 470.53 191.96 470.942C191.804 471.343 191.726 471.781 191.726 472.255C191.726 472.73 191.809 473.173 191.975 473.585C192.141 473.996 192.37 474.355 192.661 474.661C192.952 474.956 193.295 475.194 193.689 475.373C194.094 475.542 194.525 475.626 194.983 475.626C195.305 475.626 195.606 475.573 195.886 475.468C196.177 475.362 196.426 475.22 196.634 475.041C196.842 474.861 197.008 474.65 197.133 474.408C197.257 474.154 197.32 473.885 197.32 473.601V473.189L197.663 473.727H194.655V471.622H199.782C199.802 471.738 199.818 471.897 199.828 472.097C199.839 472.298 199.844 472.493 199.844 472.683C199.854 472.873 199.86 473.015 199.86 473.11C199.86 473.827 199.73 474.487 199.47 475.088C199.221 475.679 198.868 476.191 198.41 476.623C197.953 477.056 197.413 477.393 196.79 477.636C196.167 477.879 195.492 478 194.764 478Z" fill="#222222"/>
<path d="M201.889 477.842V466.764H209.493V469.059H204.46V475.547H209.648V477.842H201.889ZM203.135 473.3V471.116H208.791V473.3H203.135Z" fill="#222222"/>
<path d="M211.932 477.842V466.764H216.84C217.536 466.764 218.164 466.917 218.725 467.223C219.296 467.529 219.743 467.951 220.065 468.489C220.387 469.016 220.548 469.618 220.548 470.293C220.548 470.989 220.387 471.617 220.065 472.176C219.743 472.725 219.302 473.157 218.741 473.474C218.18 473.79 217.546 473.949 216.84 473.949H214.456V477.842H211.932ZM217.977 477.842L215.204 472.841L217.915 472.445L221 477.842H217.977ZM214.456 471.891H216.606C216.876 471.891 217.11 471.833 217.307 471.717C217.515 471.591 217.671 471.417 217.775 471.195C217.889 470.974 217.946 470.72 217.946 470.435C217.946 470.151 217.884 469.903 217.759 469.692C217.634 469.47 217.453 469.301 217.214 469.185C216.985 469.069 216.705 469.011 216.372 469.011H214.456V471.891Z" fill="#222222"/>
<path d="M66.0489 217.927C66.3483 217.006 67.6517 217.006 67.9511 217.927L71.7148 229.511C71.8487 229.923 72.2326 230.202 72.6659 230.202H84.8456C85.8143 230.202 86.2171 231.441 85.4333 232.011L75.5798 239.17C75.2293 239.424 75.0826 239.876 75.2165 240.288L78.9802 251.871C79.2796 252.793 78.2251 253.559 77.4414 252.989L67.5878 245.83C67.2373 245.576 66.7627 245.576 66.4122 245.83L56.5586 252.989C55.7749 253.559 54.7204 252.793 55.0198 251.871L58.7835 240.288C58.9174 239.876 58.7707 239.424 58.4202 239.17L48.5667 232.011C47.7829 231.441 48.1857 230.202 49.1544 230.202H61.3342C61.7674 230.202 62.1513 229.923 62.2852 229.511L66.0489 217.927Z" fill="#52DFFF"/>
<g filter="url(#filter3_i_41_25)">
<path d="M107.049 266.927C107.348 266.006 108.652 266.006 108.951 266.927L109.572 268.837C109.705 269.249 110.089 269.528 110.523 269.528H112.531C113.499 269.528 113.902 270.767 113.119 271.337L111.494 272.517C111.143 272.772 110.997 273.223 111.131 273.635L111.751 275.545C112.051 276.466 110.996 277.233 110.212 276.663L108.588 275.483C108.237 275.228 107.763 275.228 107.412 275.483L105.788 276.663C105.004 277.233 103.949 276.466 104.249 275.545L104.869 273.635C105.003 273.223 104.857 272.772 104.506 272.517L102.881 271.337C102.098 270.767 102.501 269.528 103.469 269.528H105.477C105.911 269.528 106.295 269.249 106.428 268.837L107.049 266.927Z" fill="#FFB201"/>
</g>
<g filter="url(#filter4_i_41_25)">
<path d="M50.5489 633.927C50.8483 633.006 52.1517 633.006 52.4511 633.927L53.8574 638.255C53.9913 638.667 54.3752 638.946 54.8085 638.946H59.3595C60.3282 638.946 60.731 640.186 59.9473 640.755L56.2654 643.43C55.9149 643.685 55.7683 644.136 55.9021 644.548L57.3085 648.877C57.6078 649.798 56.5533 650.564 55.7696 649.995L52.0878 647.32C51.7373 647.065 51.2627 647.065 50.9122 647.32L47.2304 649.995C46.4467 650.564 45.3922 649.798 45.6915 648.877L47.0979 644.548C47.2317 644.136 47.0851 643.685 46.7346 643.43L43.0527 640.755C42.269 640.186 42.6718 638.946 43.6405 638.946H48.1915C48.6248 638.946 49.0087 638.667 49.1426 638.255L50.5489 633.927Z" fill="#FFB201"/>
</g>
<path d="M100 39.5C100 46.4036 94.4036 52 87.5 52C80.5964 52 75 46.4036 75 39.5C75 32.5964 80.5964 27 87.5 27C94.4036 27 100 32.5964 100 39.5ZM78.9141 39.5C78.9141 44.2418 82.7582 48.0859 87.5 48.0859C92.2418 48.0859 96.0859 44.2418 96.0859 39.5C96.0859 34.7582 92.2418 30.9141 87.5 30.9141C82.7582 30.9141 78.9141 34.7582 78.9141 39.5Z" fill="#FFB201" fill-opacity="0.6"/>
<path d="M307 586.5C307 593.404 301.404 599 294.5 599C287.596 599 282 593.404 282 586.5C282 579.596 287.596 574 294.5 574C301.404 574 307 579.596 307 586.5ZM285.914 586.5C285.914 591.242 289.758 595.086 294.5 595.086C299.242 595.086 303.086 591.242 303.086 586.5C303.086 581.758 299.242 577.914 294.5 577.914C289.758 577.914 285.914 581.758 285.914 586.5Z" fill="#52DFFF"/>
<path d="M247.489 145.796C246.031 146.289 244.585 145.018 244.887 143.508L249.959 118.174C250.261 116.664 252.084 116.048 253.241 117.064L272.645 134.124C273.801 135.14 273.424 137.027 271.965 137.52L247.489 145.796Z" fill="#A3EEFF"/>
<path d="M186.926 720.032C187.029 718.882 188.338 718.275 189.283 718.939L210.418 733.8C211.363 734.464 211.234 735.902 210.187 736.388L186.749 747.261C185.701 747.747 184.521 746.917 184.623 745.766L186.926 720.032Z" stroke="#00A1C6"/>
</g>
<defs>
<filter id="filter0_i_41_25" x="91" y="437.458" width="37.9321" height="35.2881" filterUnits="userSpaceOnUse" color-interpolation-filters="sRGB">
<feFlood flood-opacity="0" result="BackgroundImageFix"/>
<feBlend mode="normal" in="SourceGraphic" in2="BackgroundImageFix" result="shape"/>
<feColorMatrix in="SourceAlpha" type="matrix" values="0 0 0 0 0 0 0 0 0 0 0 0 0 0 0 0 0 0 127 0" result="hardAlpha"/>
<feOffset dx="4" dy="4"/>
<feGaussianBlur stdDeviation="10"/>
<feComposite in2="hardAlpha" operator="arithmetic" k2="-1" k3="1"/>
<feColorMatrix type="matrix" values="0 0 0 0 1 0 0 0 0 1 0 0 0 0 1 0 0 0 0.3 0"/>
<feBlend mode="normal" in2="shape" result="effect1_innerShadow_41_25"/>
</filter>
<filter id="filter1_i_41_25" x="237.746" y="437.458" width="37.9321" height="35.2881" filterUnits="userSpaceOnUse" color-interpolation-filters="sRGB">
<feFlood flood-opacity="0" result="BackgroundImageFix"/>
<feBlend mode="normal" in="SourceGraphic" in2="BackgroundImageFix" result="shape"/>
<feColorMatrix in="SourceAlpha" type="matrix" values="0 0 0 0 0 0 0 0 0 0 0 0 0 0 0 0 0 0 127 0" result="hardAlpha"/>
<feOffset dx="4" dy="4"/>
<feGaussianBlur stdDeviation="10"/>
<feComposite in2="hardAlpha" operator="arithmetic" k2="-1" k3="1"/>
<feColorMatrix type="matrix" values="0 0 0 0 1 0 0 0 0 1 0 0 0 0 1 0 0 0 0.3 0"/>
<feBlend mode="normal" in2="shape" result="effect1_innerShadow_41_25"/>
</filter>
<filter id="filter2_i_41_25" x="115.678" y="425.559" width="135.322" height="39.2542" filterUnits="userSpaceOnUse" color-interpolation-filters="sRGB">
<feFlood flood-opacity="0" result="BackgroundImageFix"/>
<feBlend mode="normal" in="SourceGraphic" in2="BackgroundImageFix" result="shape"/>
<feColorMatrix in="SourceAlpha" type="matrix" values="0 0 0 0 0 0 0 0 0 0 0 0 0 0 0 0 0 0 127 0" result="hardAlpha"/>
<feOffset dx="4" dy="4"/>
<feGaussianBlur stdDeviation="10"/>
<feComposite in2="hardAlpha" operator="arithmetic" k2="-1" k3="1"/>
<feColorMatrix type="matrix" values="0 0 0 0 1 0 0 0 0 1 0 0 0 0 1 0 0 0 0.3 0"/>
<feBlend mode="normal" in2="shape" result="effect1_innerShadow_41_25"/>
</filter>
<filter id="filter3_i_41_25" x="102.467" y="266.236" width="15.0654" height="14.6226" filterUnits="userSpaceOnUse" color-interpolation-filters="sRGB">
<feFlood flood-opacity="0" result="BackgroundImageFix"/>
<feBlend mode="normal" in="SourceGraphic" in2="BackgroundImageFix" result="shape"/>
<feColorMatrix in="SourceAlpha" type="matrix" values="0 0 0 0 0 0 0 0 0 0 0 0 0 0 0 0 0 0 127 0" result="hardAlpha"/>
<feOffset dx="4" dy="4"/>
<feGaussianBlur stdDeviation="10"/>
<feComposite in2="hardAlpha" operator="arithmetic" k2="-1" k3="1"/>
<feColorMatrix type="matrix" values="0 0 0 0 1 0 0 0 0 1 0 0 0 0 1 0 0 0 0.25 0"/>
<feBlend mode="normal" in2="shape" result="effect1_innerShadow_41_25"/>
</filter>
<filter id="filter4_i_41_25" x="42.6387" y="633.236" width="21.7227" height="20.9541" filterUnits="userSpaceOnUse" color-interpolation-filters="sRGB">
<feFlood flood-opacity="0" result="BackgroundImageFix"/>
<feBlend mode="normal" in="SourceGraphic" in2="BackgroundImageFix" result="shape"/>
<feColorMatrix in="SourceAlpha" type="matrix" values="0 0 0 0 0 0 0 0 0 0 0 0 0 0 0 0 0 0 127 0" result="hardAlpha"/>
<feOffset dx="4" dy="4"/>
<feGaussianBlur stdDeviation="10"/>
<feComposite in2="hardAlpha" operator="arithmetic" k2="-1" k3="1"/>
<feColorMatrix type="matrix" values="0 0 0 0 1 0 0 0 0 1 0 0 0 0 1 0 0 0 0.25 0"/>
<feBlend mode="normal" in2="shape" result="effect1_innerShadow_41_25"/>
</filter>
<linearGradient id="paint0_linear_41_25" x1="70.5" y1="-34" x2="333.5" y2="942.5" gradientUnits="userSpaceOnUse">
<stop stop-color="#B3F1FF" stop-opacity="0.74"/>
<stop offset="1" stop-color="#B3F1FF" stop-opacity="0.2"/>
</linearGradient>
<linearGradient id="paint1_linear_41_25" x1="44.5" y1="9.5" x2="365.5" y2="813.5" gradientUnits="userSpaceOnUse">
<stop stop-color="#B3F1FF" stop-opacity="0.62"/>
<stop offset="1" stop-color="#B3F1FF" stop-opacity="0.2"/>
</linearGradient>
<linearGradient id="paint2_linear_41_25" x1="-43.5" y1="212.5" x2="309.5" y2="661" gradientUnits="userSpaceOnUse">
<stop stop-color="#B3F1FF" stop-opacity="0.58"/>
<stop offset="1" stop-color="#B3F1FF" stop-opacity="0.13"/>
</linearGradient>
<linearGradient id="paint3_linear_41_25" x1="180" y1="247.5" x2="180" y2="683" gradientUnits="userSpaceOnUse">
<stop stop-color="#B3F1FF"/>
<stop offset="1" stop-color="#B3F1FF" stop-opacity="0.14"/>
</linearGradient>
<clipPath id="clip0_41_25">
<rect width="360" height="800" fill="white"/>
</clipPath>
</defs>
</svg>
