<svg width="181" height="156" viewBox="0 0 181 156" fill="none" xmlns="http://www.w3.org/2000/svg">
<g filter="url(#filter0_i_41_32)">
<path d="M22.8845 115.458H0L9.99553 131.167L0 146.746H33.9322L22.8845 140.384V115.458Z" fill="#FFB201"/>
</g>
<g filter="url(#filter1_i_41_32)">
<path d="M157.793 115.458H180.678L170.682 131.167L180.678 146.746H146.746L157.793 140.384V115.458Z" fill="#FFB201"/>
</g>
<path d="M90.5938 18.5085C42.2106 20.7209 29.3955 76.55 58.9481 101.797L121.194 101.667C156.109 68.3513 131.786 20.4606 90.5938 18.5085Z" fill="#00A1C6"/>
<path d="M63.0168 59.6798C71.3498 67.1586 79.4293 73.8914 87.1959 82.4068C95.6398 68.4761 104.282 54.497 118.542 39.3582L114.7 37.8983C102.659 48.4907 93.304 58.5173 85.1754 70.433C79.5228 66.2092 70.3875 60.232 64.8096 57.161L63.0168 59.6798Z" fill="white"/>
<path d="M37.4075 101.797H56.5018C21.6904 65.9527 50.8117 16.5534 90.1442 16.5534C137.555 18.1175 153.922 71.4271 124.176 101.797H143.011L141.972 92.412L152.753 86.286L147.687 75.0766L156 65.9527L147.687 56.8288L152.883 45.7498L141.972 39.3631L143.27 27.111L131.061 24.7649L128.852 12.6431L116.642 14.2072L110.278 3.38888L99.2367 8.47219L90.1442 0L81.0516 8.47219L69.8808 3.38888L63.9057 14.2072L51.5659 12.6431L49.2278 24.7649L37.1477 27.111L38.3168 39.7541L27.6655 45.4891L32.7314 56.8288L24.678 65.9527L32.7314 75.0766L27.7954 86.1557L38.4467 92.412L37.4075 101.797Z" fill="#83E8FF"/>
<g filter="url(#filter2_i_41_32)">
<rect x="24.678" y="103.559" width="131.322" height="35.2542" fill="#FFB201"/>
</g>
<path d="M37.1222 128.237L33.0508 114.136H36.4048L38.4405 121.549C38.531 121.885 38.6086 122.227 38.6732 122.576C38.7507 122.912 38.8089 123.235 38.8477 123.543C38.8994 123.852 38.9381 124.141 38.964 124.41C38.9898 124.665 39.0157 124.88 39.0415 125.054H38.615C38.6926 124.557 38.7572 124.114 38.8089 123.725C38.8735 123.335 38.9446 122.973 39.0222 122.637C39.0997 122.288 39.1966 121.925 39.313 121.549L41.3293 115.969H43.966L45.9435 121.549C46.0986 121.992 46.2279 122.409 46.3313 122.798C46.4347 123.188 46.5122 123.564 46.5639 123.926C46.6286 124.275 46.6803 124.625 46.719 124.974L46.3313 125.034C46.3571 124.792 46.3765 124.571 46.3894 124.369C46.4024 124.155 46.4153 123.953 46.4282 123.765C46.4541 123.564 46.4799 123.355 46.5058 123.141C46.5316 122.926 46.5704 122.691 46.6221 122.435C46.6738 122.167 46.7449 121.865 46.8354 121.529L48.8517 114.136H52.1282L48.0568 128.237H45.5364L42.3181 120.119L42.6864 120.159L39.7201 128.237H37.1222Z" fill="white"/>
<path d="M51.4326 128.237L56.803 114.136H59.5948L64.9264 128.237H61.5917L59.0326 121.086C58.9292 120.804 58.8258 120.501 58.7224 120.179C58.619 119.857 58.5156 119.528 58.4122 119.192C58.3088 118.843 58.2054 118.507 58.102 118.185C58.0115 117.849 57.9339 117.54 57.8693 117.258L58.451 117.238C58.3734 117.574 58.2829 117.903 58.1795 118.225C58.089 118.547 57.9921 118.87 57.8887 119.192C57.7982 119.501 57.6948 119.817 57.5785 120.139C57.4622 120.448 57.3523 120.77 57.2489 121.106L54.6898 128.237H51.4326ZM53.9918 125.538L55.0193 122.959H61.2621L62.2703 125.538H53.9918Z" fill="white"/>
<path d="M66.6196 128.237V114.136H72.7267C73.5927 114.136 74.3747 114.33 75.0726 114.72C75.7835 115.109 76.3393 115.646 76.74 116.331C77.1406 117.003 77.341 117.768 77.341 118.628C77.341 119.514 77.1406 120.313 76.74 121.025C76.3393 121.724 75.79 122.274 75.092 122.677C74.3941 123.08 73.6056 123.282 72.7267 123.282H69.7604V128.237H66.6196ZM74.142 128.237L70.691 121.871L74.0645 121.368L77.9032 128.237H74.142ZM69.7604 120.663H72.4359C72.772 120.663 73.0628 120.589 73.3084 120.441C73.5669 120.28 73.7607 120.058 73.89 119.776C74.0322 119.494 74.1032 119.172 74.1032 118.809C74.1032 118.447 74.0257 118.131 73.8706 117.862C73.7155 117.58 73.4893 117.366 73.192 117.218C72.9077 117.07 72.5587 116.996 72.1451 116.996H69.7604V120.663Z" fill="white"/>
<path d="M80.2326 128.237V114.136H86.3397C87.2057 114.136 87.9876 114.33 88.6856 114.72C89.3965 115.109 89.9523 115.646 90.3529 116.331C90.7536 117.003 90.9539 117.768 90.9539 118.628C90.9539 119.514 90.7536 120.313 90.3529 121.025C89.9523 121.724 89.4029 122.274 88.705 122.677C88.007 123.08 87.2186 123.282 86.3397 123.282H83.3734V128.237H80.2326ZM87.755 128.237L84.304 121.871L87.6774 121.368L91.5162 128.237H87.755ZM83.3734 120.663H86.0489C86.3849 120.663 86.6757 120.589 86.9213 120.441C87.1798 120.28 87.3737 120.058 87.5029 119.776C87.6451 119.494 87.7162 119.172 87.7162 118.809C87.7162 118.447 87.6387 118.131 87.4836 117.862C87.3285 117.58 87.1023 117.366 86.805 117.218C86.5206 117.07 86.1717 116.996 85.7581 116.996H83.3734V120.663Z" fill="white"/>
<path d="M92.1201 128.237L97.4904 114.136H100.282L105.614 128.237H102.279L99.72 121.086C99.6166 120.804 99.5132 120.501 99.4098 120.179C99.3064 119.857 99.203 119.528 99.0996 119.192C98.9962 118.843 98.8928 118.507 98.7894 118.185C98.6989 117.849 98.6214 117.54 98.5568 117.258L99.1384 117.238C99.0608 117.574 98.9704 117.903 98.867 118.225C98.7765 118.547 98.6795 118.87 98.5761 119.192C98.4857 119.501 98.3823 119.817 98.2659 120.139C98.1496 120.448 98.0398 120.77 97.9364 121.106L95.3772 128.237H92.1201ZM94.6792 125.538L95.7068 122.959H101.95L102.958 125.538H94.6792Z" fill="white"/>
<path d="M107.307 128.237V114.136H110.254L117.369 124.208L116.729 124.108C116.665 123.664 116.613 123.241 116.574 122.838C116.536 122.435 116.497 122.039 116.458 121.65C116.432 121.26 116.406 120.864 116.38 120.461C116.368 120.058 116.355 119.622 116.342 119.152C116.342 118.682 116.342 118.171 116.342 117.621V114.136H119.541V128.237H116.555L109.13 117.842L110.118 117.983C110.183 118.628 110.235 119.179 110.273 119.635C110.325 120.078 110.364 120.475 110.39 120.824C110.428 121.173 110.454 121.489 110.467 121.771C110.48 122.053 110.487 122.335 110.487 122.617C110.5 122.885 110.506 123.188 110.506 123.523V128.237H107.307Z" fill="white"/>
<path d="M125.893 128.237V117.157H121.86V114.136H133.318V117.157H129.189V128.237H125.893Z" fill="white"/>
<path d="M139.349 128.237V121.207L139.484 122.194L133.998 114.136H137.739L141.927 120.381L140.221 120.32L144.002 114.136H147.627L142.373 122.415L142.664 121.045V128.237H139.349Z" fill="white"/>
<path d="M51.1187 155.842V144.764H53.4871L57.4604 151.332L55.762 151.316L59.782 144.764H62.0569V155.842H59.486V152.392C59.486 151.442 59.5067 150.588 59.5483 149.828C59.6002 149.068 59.6833 148.314 59.7976 147.565L60.0937 148.388L57.0708 153.151H56.0424L53.0819 148.42L53.378 147.565C53.4922 148.272 53.5702 149 53.6117 149.749C53.6636 150.488 53.6896 151.368 53.6896 152.392V155.842H51.1187Z" fill="#222222"/>
<path d="M63.4114 155.842L67.7275 144.764H69.9713L74.2562 155.842H71.5762L69.5194 150.224C69.4363 150.002 69.3532 149.765 69.2701 149.512C69.187 149.258 69.1039 149 69.0208 148.736C68.9377 148.462 68.8546 148.198 68.7715 147.945C68.6988 147.681 68.6365 147.438 68.5845 147.217L69.052 147.201C68.9897 147.465 68.9169 147.723 68.8338 147.977C68.7611 148.23 68.6832 148.483 68.6001 148.736C68.5274 148.979 68.4443 149.227 68.3508 149.48C68.2573 149.723 68.169 149.976 68.0859 150.24L66.0291 155.842H63.4114ZM65.4682 153.721L66.294 151.696H71.3113L72.1216 153.721H65.4682Z" fill="#222222"/>
<path d="M75.6171 155.842V144.764H77.9855L83.7039 152.677L83.1897 152.598C83.1378 152.249 83.0962 151.917 83.0651 151.601C83.0339 151.284 83.0027 150.973 82.9716 150.667C82.9508 150.361 82.93 150.05 82.9093 149.733C82.8989 149.417 82.8885 149.074 82.8781 148.705C82.8781 148.335 82.8781 147.934 82.8781 147.502V144.764H85.4491V155.842H83.0495L77.0817 147.676L77.8764 147.787C77.9283 148.293 77.9699 148.726 78.0011 149.084C78.0426 149.432 78.0738 149.744 78.0945 150.018C78.1257 150.292 78.1465 150.54 78.1569 150.762C78.1673 150.983 78.1724 151.205 78.1724 151.426C78.1828 151.637 78.188 151.875 78.188 152.139V155.842H75.6171Z" fill="#222222"/>
<path d="M86.7991 155.842L91.1152 144.764H93.3589L97.6438 155.842H94.9638L92.907 150.224C92.8239 150.002 92.7408 149.765 92.6577 149.512C92.5746 149.258 92.4915 149 92.4084 148.736C92.3253 148.462 92.2422 148.198 92.1591 147.945C92.0864 147.681 92.0241 147.438 91.9721 147.217L92.4396 147.201C92.3773 147.465 92.3046 147.723 92.2215 147.977C92.1487 148.23 92.0708 148.483 91.9877 148.736C91.915 148.979 91.8319 149.227 91.7384 149.48C91.6449 149.723 91.5566 149.976 91.4735 150.24L89.4168 155.842H86.7991ZM88.8558 153.721L89.6817 151.696H94.6989L95.5092 153.721H88.8558Z" fill="#222222"/>
<path d="M103.764 156C102.892 156 102.102 155.858 101.396 155.573C100.69 155.288 100.082 154.887 99.5729 154.37C99.0639 153.853 98.6744 153.246 98.4043 152.55C98.1342 151.843 97.9992 151.078 97.9992 150.255C97.9992 149.432 98.1394 148.678 98.4199 147.992C98.7107 147.296 99.1211 146.689 99.6508 146.172C100.181 145.655 100.804 145.255 101.521 144.97C102.248 144.685 103.037 144.542 103.889 144.542C104.492 144.542 105.058 144.622 105.587 144.78C106.128 144.938 106.616 145.154 107.052 145.429C107.488 145.703 107.857 146.019 108.158 146.378L106.553 148.103C106.294 147.85 106.024 147.639 105.743 147.47C105.473 147.301 105.182 147.169 104.871 147.074C104.559 146.969 104.227 146.916 103.873 146.916C103.416 146.916 102.996 147.001 102.611 147.169C102.237 147.338 101.905 147.576 101.614 147.882C101.334 148.177 101.116 148.53 100.96 148.942C100.804 149.343 100.726 149.781 100.726 150.255C100.726 150.73 100.809 151.173 100.975 151.585C101.141 151.996 101.37 152.355 101.661 152.661C101.952 152.956 102.295 153.194 102.689 153.373C103.094 153.542 103.525 153.626 103.983 153.626C104.305 153.626 104.606 153.573 104.886 153.468C105.177 153.362 105.426 153.22 105.634 153.041C105.842 152.861 106.008 152.65 106.133 152.408C106.257 152.154 106.32 151.885 106.32 151.601V151.189L106.663 151.727H103.655V149.622H108.782C108.802 149.738 108.818 149.897 108.828 150.097C108.839 150.298 108.844 150.493 108.844 150.683C108.854 150.873 108.86 151.015 108.86 151.11C108.86 151.827 108.73 152.487 108.47 153.088C108.221 153.679 107.868 154.191 107.41 154.623C106.953 155.056 106.413 155.393 105.79 155.636C105.167 155.879 104.492 156 103.764 156Z" fill="#222222"/>
<path d="M110.889 155.842V144.764H118.493V147.059H113.46V153.547H118.648V155.842H110.889ZM112.135 151.3V149.116H117.791V151.3H112.135Z" fill="#222222"/>
<path d="M120.932 155.842V144.764H125.84C126.536 144.764 127.164 144.917 127.725 145.223C128.296 145.529 128.743 145.951 129.065 146.489C129.387 147.016 129.548 147.618 129.548 148.293C129.548 148.989 129.387 149.617 129.065 150.176C128.743 150.725 128.302 151.157 127.741 151.474C127.18 151.79 126.546 151.949 125.84 151.949H123.456V155.842H120.932ZM126.977 155.842L124.204 150.841L126.915 150.445L130 155.842H126.977ZM123.456 149.891H125.606C125.876 149.891 126.11 149.833 126.307 149.717C126.515 149.591 126.671 149.417 126.775 149.195C126.889 148.974 126.946 148.72 126.946 148.435C126.946 148.151 126.884 147.903 126.759 147.692C126.634 147.47 126.453 147.301 126.214 147.185C125.985 147.069 125.705 147.011 125.372 147.011H123.456V149.891Z" fill="#222222"/>
<defs>
<filter id="filter0_i_41_32" x="0" y="115.458" width="37.9321" height="35.2881" filterUnits="userSpaceOnUse" color-interpolation-filters="sRGB">
<feFlood flood-opacity="0" result="BackgroundImageFix"/>
<feBlend mode="normal" in="SourceGraphic" in2="BackgroundImageFix" result="shape"/>
<feColorMatrix in="SourceAlpha" type="matrix" values="0 0 0 0 0 0 0 0 0 0 0 0 0 0 0 0 0 0 127 0" result="hardAlpha"/>
<feOffset dx="4" dy="4"/>
<feGaussianBlur stdDeviation="10"/>
<feComposite in2="hardAlpha" operator="arithmetic" k2="-1" k3="1"/>
<feColorMatrix type="matrix" values="0 0 0 0 1 0 0 0 0 1 0 0 0 0 1 0 0 0 0.3 0"/>
<feBlend mode="normal" in2="shape" result="effect1_innerShadow_41_32"/>
</filter>
<filter id="filter1_i_41_32" x="146.746" y="115.458" width="37.9321" height="35.2881" filterUnits="userSpaceOnUse" color-interpolation-filters="sRGB">
<feFlood flood-opacity="0" result="BackgroundImageFix"/>
<feBlend mode="normal" in="SourceGraphic" in2="BackgroundImageFix" result="shape"/>
<feColorMatrix in="SourceAlpha" type="matrix" values="0 0 0 0 0 0 0 0 0 0 0 0 0 0 0 0 0 0 127 0" result="hardAlpha"/>
<feOffset dx="4" dy="4"/>
<feGaussianBlur stdDeviation="10"/>
<feComposite in2="hardAlpha" operator="arithmetic" k2="-1" k3="1"/>
<feColorMatrix type="matrix" values="0 0 0 0 1 0 0 0 0 1 0 0 0 0 1 0 0 0 0.3 0"/>
<feBlend mode="normal" in2="shape" result="effect1_innerShadow_41_32"/>
</filter>
<filter id="filter2_i_41_32" x="24.678" y="103.559" width="135.322" height="39.2542" filterUnits="userSpaceOnUse" color-interpolation-filters="sRGB">
<feFlood flood-opacity="0" result="BackgroundImageFix"/>
<feBlend mode="normal" in="SourceGraphic" in2="BackgroundImageFix" result="shape"/>
<feColorMatrix in="SourceAlpha" type="matrix" values="0 0 0 0 0 0 0 0 0 0 0 0 0 0 0 0 0 0 127 0" result="hardAlpha"/>
<feOffset dx="4" dy="4"/>
<feGaussianBlur stdDeviation="10"/>
<feComposite in2="hardAlpha" operator="arithmetic" k2="-1" k3="1"/>
<feColorMatrix type="matrix" values="0 0 0 0 1 0 0 0 0 1 0 0 0 0 1 0 0 0 0.3 0"/>
<feBlend mode="normal" in2="shape" result="effect1_innerShadow_41_32"/>
</filter>
</defs>
</svg>
