<svg width="79" height="79" viewBox="0 0 79 79" fill="none" xmlns="http://www.w3.org/2000/svg">
<path d="M48.4065 71.1663C48.1257 71.1915 47.8436 71.1915 47.5632 71.1663L45.0075 70.5787C44.0143 70.3358 43.1569 69.7115 42.6208 68.8409C42.0852 67.9702 41.9142 66.9232 42.1452 65.9274L45.7742 50.5935C43.5704 51.5299 41.6827 53.0812 40.3367 55.0615C38.9908 57.0418 38.2436 59.3677 38.1836 61.7615C38.1881 62.861 38.3516 63.9543 38.6695 65.007L39.1804 66.7448H37.3659C22.0579 65.6714 10.0725 53.9671 10.0725 39.9108C10.0725 25.1141 23.2599 13.0767 39.4616 13.0767C44.3304 13.0459 49.1405 14.1392 53.518 16.2711C53.6692 16.0066 53.8059 15.7333 53.9267 15.4534C54.1885 14.8521 54.3935 14.2274 54.5399 13.5877C54.8291 12.2498 54.8375 10.8664 54.5655 9.52442L54.3358 8.22126L55.6389 7.96557C57.6553 7.70283 59.7048 7.99467 61.5679 8.80892C64.2707 9.99392 66.4163 12.1704 67.5621 14.89C68.7078 17.6096 68.7669 20.6651 67.7269 23.4271V23.6828C67.2072 24.9762 66.4533 26.1634 65.5038 27.1836C67.8455 31.1438 69.0384 35.6775 68.9482 40.2773C68.8582 44.8771 67.488 49.3605 64.9924 53.2254L64.1235 54.6053L62.9989 53.4295V53.43C61.2262 51.585 58.9947 50.2444 56.5334 49.5452L52.1633 68.0989V68.0994C51.9777 68.9608 51.5051 69.7335 50.8222 70.2908C50.1397 70.8481 49.2875 71.1567 48.4068 71.1659L48.4065 71.1663ZM48.7641 48.8556L44.5985 66.4895C44.5139 66.8219 44.5663 67.1742 44.7444 67.4673C44.9221 67.7605 45.2104 67.9699 45.5441 68.0488L48.0998 68.6109C48.7893 68.7546 49.4682 68.3248 49.633 67.6397L57.7856 32.8075C57.8853 32.4707 57.8363 32.1074 57.6507 31.8094C57.4651 31.5114 57.1605 31.3073 56.8144 31.2486L54.2588 30.661V30.6605C53.5962 30.4987 52.9261 30.8964 52.7507 31.555L48.7641 48.8556ZM39.4617 15.6327C24.665 15.6327 12.6277 26.5195 12.6277 39.9105C12.6277 52.0754 22.671 62.3228 35.8074 63.9333V63.9329C35.6862 63.2156 35.6262 62.4886 35.6284 61.7608C35.7108 58.5514 36.7984 55.4487 38.7377 52.89C40.6775 50.3318 43.3711 48.4467 46.4389 47.5007L50.3232 30.9659C50.4625 30.351 50.7521 29.78 51.1665 29.3048C49.6148 28.3834 48.5907 26.7814 48.4068 24.9858C48.3932 24.7984 48.3932 24.6106 48.4068 24.4237C48.4117 22.543 49.255 20.7633 50.7068 19.5678L50.9625 19.1847L51.7802 18.3669C47.9219 16.5704 43.7179 15.6371 39.4619 15.6324L39.4617 15.6327ZM57.0189 47.1684C59.4171 47.8292 61.6412 49.0067 63.5359 50.6184C65.38 47.3095 66.3481 43.5838 66.3481 39.7957C66.3481 36.0075 65.38 32.2819 63.5359 28.9724C62.4492 29.7192 61.2374 30.2645 59.958 30.5829C60.4042 31.3553 60.5668 32.2591 60.4178 33.1386L57.0189 47.1684ZM56.0737 28.4104C58.5927 28.6837 61.11 27.8757 62.999 26.1872L63.1268 25.8548C64.0953 24.948 64.8391 23.8283 65.2993 22.5838L65.4271 22.3025C66.3243 19.6248 65.9041 16.6804 64.2937 14.3602C62.6833 12.04 60.0717 10.6169 57.249 10.5212C57.3045 11.749 57.193 12.9781 56.917 14.1759C56.7191 14.9606 56.4629 15.7295 56.1499 16.4758C55.9965 16.8082 55.8175 17.1402 55.639 17.4726L55.4089 17.8305L54.8468 18.6739L54.6678 18.9296V18.9291C54.0083 19.8796 53.2263 20.7388 52.3424 21.4848L51.9844 21.7916C51.3161 22.4767 50.9325 23.3901 50.9114 24.3473V24.6797V24.6792C50.9965 25.7575 51.6216 26.7195 52.5725 27.2349C53.2624 27.6162 54.0022 27.8997 54.7702 28.0782L55.588 28.2572H56.0738L56.0737 28.4104ZM26.6846 53.9669C24.9899 53.9669 23.365 53.2937 22.1668 52.0955C20.9686 50.8978 20.2954 49.2723 20.2954 47.5782C20.2954 45.8835 20.9686 44.2586 22.1668 43.0604C23.365 41.8622 24.99 41.189 26.6846 41.189C28.3791 41.189 30.0042 41.8622 31.2024 43.0604C32.4006 44.2586 33.0733 45.8836 33.0733 47.5782C33.0733 49.2724 32.4006 50.8978 31.2024 52.0955C30.0042 53.2937 28.3791 53.9669 26.6846 53.9669ZM26.6846 43.7445C25.668 43.7445 24.6929 44.1483 23.9737 44.8674C23.2552 45.5864 22.8509 46.5611 22.8509 47.5782C22.8509 48.5948 23.2552 49.5699 23.9737 50.2886C24.6928 51.0076 25.668 51.4114 26.6846 51.4114C27.7012 51.4114 28.6763 51.0076 29.3954 50.2886C30.114 49.57 30.5178 48.5948 30.5178 47.5782C30.5178 46.5612 30.114 45.5865 29.3954 44.8674C28.6764 44.1483 27.7012 43.7445 26.6846 43.7445V43.7445ZM24.1289 38.6333C23.0092 38.6325 21.9088 38.3419 20.9345 37.79C19.4718 36.9352 18.4045 35.5386 17.9646 33.9026C17.5246 32.2667 17.7468 30.5231 18.5831 29.0498C19.4321 27.584 20.8301 26.5171 22.4678 26.0855C24.1056 25.6274 25.8598 25.858 27.3233 26.7243C28.9505 27.6725 30.076 29.2895 30.4005 31.1446C30.7245 32.9993 30.214 34.9029 29.0052 36.3462C27.7959 37.79 26.0119 38.6267 24.129 38.6334L24.1289 38.6333ZM24.1289 28.411C23.793 28.4158 23.4584 28.4586 23.1322 28.5388C22.153 28.8082 21.3181 29.4505 20.8067 30.3278C20.2998 31.2104 20.1618 32.2575 20.4232 33.2409C20.686 34.2249 21.3292 35.0633 22.2109 35.5721C23.0926 36.0812 24.141 36.2184 25.1239 35.9534C26.107 35.6889 26.9442 35.0439 27.4512 34.1609C28.0018 33.2964 28.1856 32.2481 27.9621 31.2478C27.7033 30.2634 27.0584 29.425 26.1735 28.9219C25.5515 28.5679 24.8444 28.3912 24.1289 28.411L24.1289 28.411ZM37.5713 31.6565C36.4556 31.6618 35.3596 31.3616 34.4025 30.7876C32.9363 29.9425 31.8655 28.5503 31.4246 26.9165C30.9837 25.2827 31.2094 23.5409 32.0515 22.0729C32.8979 20.6053 34.2922 19.534 35.9287 19.0945C37.5651 18.6549 39.3086 18.8833 40.7767 19.7297C42.2443 20.5757 43.316 21.9702 43.7559 23.6066C44.1936 25.24 43.9662 26.98 43.1228 28.4463C42.2799 29.912 40.8899 30.9837 39.2579 31.4268C38.7086 31.578 38.1412 31.6556 37.5713 31.6565L37.5713 31.6565ZM34.2747 23.2998C33.7637 24.181 33.6249 25.2294 33.8885 26.2133C34.1517 27.1973 34.7962 28.0362 35.6787 28.5445C36.5618 29.0523 37.6105 29.1886 38.5936 28.9218C39.5771 28.6587 40.4152 28.015 40.9235 27.1328C41.4314 26.2507 41.5681 25.2024 41.3027 24.2198C41.0399 23.2362 40.3967 22.3973 39.515 21.8886C38.6333 21.3799 37.5849 21.2423 36.6023 21.5073C35.6192 21.7718 34.7816 22.4167 34.2746 23.2998L34.2747 23.2998Z" fill="#222222"/>
</svg>
