<svg width="79" height="79" viewBox="0 0 79 79" fill="none" xmlns="http://www.w3.org/2000/svg">
<path d="M37.5666 36.8588C37.8316 36.8588 38.0992 36.7737 38.3244 36.5983L43.5225 32.5482C43.8351 32.3048 43.9982 31.9407 43.9982 31.5735C43.9982 31.3085 43.9131 31.0414 43.7376 30.8161C43.3184 30.2783 42.5429 30.1822 42.0051 30.601L36.807 34.6511C36.4944 34.8944 36.3313 35.2586 36.3313 35.6258C36.3313 35.8907 36.4164 36.1579 36.5918 36.3832C36.8356 36.6953 37.1993 36.8588 37.5666 36.8588H37.5666Z" fill="#222222"/>
<path d="M37.3623 40.1001C37.3623 40.3651 37.4474 40.6322 37.6229 40.8575C37.8662 41.17 38.2299 41.3336 38.5976 41.3336C38.8626 41.3336 39.1297 41.2485 39.355 41.073L48.2619 34.1393C48.5744 33.896 48.738 33.5323 48.738 33.1646C48.738 32.8997 48.6529 32.6325 48.4775 32.4072C48.0587 31.8694 47.2832 31.7729 46.7453 32.1912L37.8384 39.1249C37.5259 39.3683 37.3623 39.732 37.3623 40.1001H37.3623Z" fill="#222222"/>
<path d="M68.6079 62.4244H58.4684C64.4031 57.8039 67.9537 50.6782 67.9537 42.9881C67.9537 29.4046 56.9104 18.3536 43.3373 18.3536C35.1419 18.3536 27.5644 22.4139 23.0061 29.0998C22.9011 29.0077 22.79 28.923 22.6728 28.8467L22.6732 10.8325C22.6732 9.62017 21.6853 8.63358 20.4707 8.63358L17.8789 8.63402C15.2352 8.63402 13.0848 10.7862 13.0848 13.4318V28.8447C12.2886 29.3618 11.7601 30.2585 11.7601 31.2769V34.8231C10.2872 35.3309 9.22607 36.7306 9.22607 38.3746V66.5956C9.22607 68.6668 10.9101 70.3516 12.9799 70.3516H22.7733C22.7764 70.3516 22.7795 70.3512 22.783 70.3512H65.8843C68.067 70.3512 69.8427 68.5733 69.8427 66.388V63.6591C69.8422 62.9776 69.2898 62.4247 68.6079 62.4247L68.6079 62.4244ZM43.3369 20.823C55.5492 20.823 65.4852 30.7662 65.4852 42.9881C65.4852 51.105 61.0895 58.524 53.9918 62.4244H49.6111C57.806 59.7696 63.7487 52.0605 63.7487 42.9881C63.7487 31.7258 54.5923 22.5632 43.3374 22.5632C38.9011 22.5632 34.6826 23.9651 31.1375 26.6173C28.2372 28.7867 25.9404 31.7364 24.534 35.0573C24.523 35.0516 24.512 35.0463 24.501 35.0405C24.4309 35.004 24.359 34.9696 24.2863 34.9374C24.2757 34.9325 24.2651 34.9277 24.2541 34.9228C24.1756 34.8889 24.0954 34.858 24.0143 34.8298C24.0068 34.8272 24.0002 34.8241 23.9927 34.8214V32.1945C27.9083 25.1717 35.2919 20.8218 43.3375 20.8218L43.3369 20.823ZM14.6554 30.8474H21.0962H21.0975C21.3285 30.8483 21.5238 31.0444 21.5238 31.2763V31.8772V31.879V34.6176L14.2282 34.618V31.2764C14.2282 31.0445 14.423 30.8488 14.654 30.8475H14.6553L14.6554 30.8474ZM26.5178 38.1033C26.5174 38.0954 26.5174 38.0874 26.5165 38.0795C26.5156 38.068 26.5143 38.0566 26.5134 38.0451C26.5055 37.9556 26.4954 37.867 26.4813 37.7797C26.4795 37.7687 26.4773 37.7577 26.4755 37.7467C26.4619 37.6651 26.4451 37.5844 26.4261 37.5046C26.4231 37.4919 26.4204 37.4786 26.4173 37.4658C26.397 37.3838 26.3737 37.3027 26.3481 37.2234C28.8164 29.9133 35.5901 25.0326 43.3376 25.0326C53.2311 25.0326 61.2797 33.0877 61.2797 42.9881C61.2797 52.8891 53.2307 60.9448 43.3376 60.9448C35.8648 60.9448 29.1379 56.2622 26.5298 49.2697V38.3742C26.5294 38.2834 26.525 38.1934 26.5188 38.1039L26.5178 38.1033ZM26.5284 60.9828C27.0685 61.4889 27.6292 61.9703 28.2116 62.4244H26.5284V60.9828ZM26.5284 57.4181V54.568C29.0871 58.2764 32.8128 61.0419 37.0824 62.4244H32.6853C30.3431 61.1367 28.2747 59.4544 26.5284 57.4181ZM17.8781 11.1027H20.2036V28.3789H15.5526L15.5522 13.4309C15.5522 12.1467 16.5957 11.1023 17.878 11.1023L17.8781 11.1027ZM11.6939 66.5957V38.3746C11.6939 37.6648 12.2705 37.0874 12.979 37.0874H22.7724C23.286 37.0874 23.7295 37.3907 23.9359 37.8267C23.9513 37.8593 23.9654 37.8928 23.9777 37.9267C23.9817 37.9373 23.9857 37.9479 23.9892 37.9585C24.0011 37.9933 24.0113 38.0286 24.0201 38.0643C24.0227 38.074 24.0254 38.0841 24.0276 38.0938C24.0359 38.1313 24.0421 38.1692 24.0474 38.2076C24.0487 38.2164 24.0505 38.2248 24.0514 38.234C24.0567 38.2807 24.0593 38.3279 24.0593 38.3751V57.8689V57.8715V66.596C24.0593 67.3057 23.4818 67.8832 22.7721 67.8832C22.7703 67.8832 22.769 67.8837 22.7672 67.8837L12.9791 67.8832C12.2707 67.8832 11.694 67.3057 11.694 66.5955L11.6939 66.5957ZM67.3731 66.3885C67.3731 67.2129 66.7048 67.8829 65.8835 67.8829H26.3011C26.3016 67.8816 26.302 67.8803 26.3025 67.8794C26.3214 67.8274 26.339 67.7749 26.3558 67.722C26.362 67.7022 26.3677 67.6819 26.3734 67.6621C26.384 67.6264 26.3946 67.5907 26.4043 67.5545C26.4105 67.5316 26.4157 67.5087 26.4215 67.4853C26.4299 67.4514 26.4378 67.4174 26.4448 67.383C26.4501 67.3592 26.4545 67.335 26.4594 67.3107C26.466 67.2763 26.4722 67.2424 26.4779 67.2076C26.4819 67.1833 26.4858 67.1591 26.4894 67.1348C26.4947 67.0991 26.4991 67.0634 26.503 67.0273C26.5057 67.0039 26.5088 66.9805 26.511 66.9572C26.5149 66.9175 26.5176 66.8778 26.5202 66.8381C26.5216 66.8179 26.5233 66.7976 26.5242 66.7773C26.5268 66.7178 26.5286 66.6578 26.5286 66.5974V66.5957V64.8935H67.3739L67.3734 66.3885L67.3731 66.3885Z" fill="#222222"/>
</svg>
