<svg width="79" height="79" viewBox="0 0 79 79" fill="none" xmlns="http://www.w3.org/2000/svg">
<path d="M69.7552 63.7312H34.5719C33.845 63.7312 33.2551 63.1427 33.2551 62.4144C33.2551 61.6861 33.845 61.0976 34.5719 61.0976L69.7552 61.098C70.4834 61.098 71.072 61.6866 71.072 62.4149C71.072 63.1427 70.4835 63.7312 69.7552 63.7312V63.7312Z" fill="#222222"/>
<path d="M35.1767 71.0726C29.2411 71.0726 27.6731 65.5638 27.6731 62.6511C27.6731 59.9532 28.5658 58.0073 29.7852 56.6419L39.6589 41.5823C39.9027 41.2111 40.317 40.9871 40.7597 40.9871H61.9903C62.4524 40.9871 62.8804 41.2296 63.1176 41.6233L70.8805 54.507C71.1269 54.9153 71.1318 55.4209 70.9003 55.8357C70.6658 56.2479 70.2276 56.5045 69.7537 56.5045L35.2645 56.504C34.8272 56.5697 33.1802 56.8951 31.9031 58.2145C31.8374 58.3066 31.762 58.3908 31.6791 58.4618C30.8997 59.377 30.3072 60.712 30.3072 62.6542C30.3112 63.2428 30.4783 68.4421 35.1777 68.4421L69.7549 68.4381V71.0713L35.1767 71.0726ZM41.472 43.619L34.7173 53.9221C34.8227 53.9035 34.9254 53.8903 35.0241 53.8784C35.0753 53.8718 35.1269 53.8692 35.1767 53.8692H67.4245L61.2495 43.619L41.472 43.619Z" fill="#222222"/>
<path d="M23.5853 61.8251C23.4222 61.8251 23.256 61.796 23.0955 61.7303L8.69834 55.9538C8.373 55.8233 8.11377 55.5694 7.97668 55.2467C7.83958 54.924 7.83692 54.5608 7.96874 54.2354L26.5213 8.6919C26.7951 8.02049 27.5586 7.69779 28.2305 7.96627L42.6277 13.7414C42.9531 13.8719 43.2123 14.1258 43.3507 14.4498C43.4878 14.7725 43.4892 15.1358 43.3573 15.4611L24.8047 61.0046C24.5967 61.5143 24.1056 61.8251 23.5853 61.8251L23.5853 61.8251ZM10.9069 54.0027L22.8596 58.7978L40.4202 15.692L28.4675 10.8982L10.9069 54.0027Z" fill="#222222"/>
<path d="M36.0436 31.2397C35.8805 31.2397 35.7143 31.2093 35.5539 31.1449L21.1578 25.3698C20.8325 25.2393 20.5732 24.9854 20.4361 24.6613C20.299 24.3373 20.2964 23.9754 20.4282 23.65L23.2011 16.8389C23.4749 16.1675 24.2384 15.8434 24.9116 16.1132L39.3088 21.8905C39.6341 22.021 39.8933 22.2763 40.0304 22.5989C40.1675 22.9217 40.1702 23.2849 40.0384 23.6102L37.2641 30.4187C37.0556 30.9292 36.5645 31.2395 36.0434 31.2395L36.0436 31.2397ZM23.3664 23.4177L35.3191 28.2127L37.0992 23.8426L25.1465 19.0461L23.3664 23.4177Z" fill="#222222"/>
<path d="M20.7256 52.309C20.0356 52.309 19.3576 52.1772 18.7136 51.9179C17.376 51.3806 16.329 50.3565 15.7696 49.0357C15.2128 47.7215 15.2022 46.2707 15.7405 44.9499C16.5688 42.9199 18.5267 41.6083 20.7305 41.6083C21.4217 41.6083 22.0984 41.7402 22.7438 41.9994C24.0801 42.5341 25.127 43.5581 25.6878 44.8803C26.2446 46.1945 26.2552 47.6466 25.7156 48.9674C24.8877 50.9975 22.9298 52.309 20.7256 52.309H20.7256ZM20.7295 44.2419C19.601 44.2419 18.6007 44.9107 18.178 45.9445C17.9068 46.6106 17.9121 47.3442 18.1925 48.0064C18.4782 48.6791 19.0116 49.1993 19.6949 49.4745C21.088 50.0286 22.7217 49.3294 23.275 47.9721C23.5488 47.3033 23.5435 46.5711 23.2618 45.9076C22.9775 45.2362 22.444 44.7159 21.762 44.4435C21.4288 44.3104 21.0823 44.242 20.7296 44.242L20.7295 44.2419Z" fill="#222222"/>
</svg>
