<svg width="52" height="52" viewBox="0 0 52 52" fill="none" xmlns="http://www.w3.org/2000/svg">
<path d="M4.875 13C4.875 11.0606 5.64542 9.20064 7.01678 7.82928C8.38814 6.45792 10.2481 5.6875 12.1875 5.6875H39.8125C41.7519 5.6875 43.6119 6.45792 44.9832 7.82928C46.3546 9.20064 47.125 11.0606 47.125 13V40.625C47.125 42.5644 46.3546 44.4244 44.9832 45.7957C43.6119 47.1671 41.7519 47.9375 39.8125 47.9375H12.1875C10.2481 47.9375 8.38814 47.1671 7.01678 45.7957C5.64542 44.4244 4.875 42.5644 4.875 40.625V13ZM12.1875 8.9375C11.1101 8.9375 10.0767 9.36551 9.31488 10.1274C8.55301 10.8892 8.125 11.9226 8.125 13V40.625C8.125 41.3156 8.29725 41.9673 8.60275 42.5376L23.0506 27.261C23.4303 26.8595 23.8879 26.5396 24.3955 26.321C24.903 26.1024 25.4498 25.9897 26.0024 25.9897C26.5551 25.9897 27.1019 26.1024 27.6094 26.321C28.117 26.5396 28.5746 26.8595 28.9543 27.261L43.3972 42.536C43.7027 41.9673 43.875 41.3172 43.875 40.625V13C43.875 11.9226 43.447 10.8892 42.6851 10.1274C41.9233 9.36551 40.8899 8.9375 39.8125 8.9375H12.1875V8.9375ZM12.1875 44.6875H39.8125C40.1667 44.6875 40.508 44.642 40.8362 44.5575L26.5931 29.4937C26.5172 29.4133 26.4256 29.3493 26.324 29.3055C26.2225 29.2617 26.113 29.2391 26.0024 29.2391C25.8918 29.2391 25.7824 29.2617 25.6808 29.3055C25.5793 29.3493 25.4877 29.4133 25.4117 29.4937L11.1637 44.5575C11.492 44.642 11.8349 44.6875 12.1875 44.6875ZM37.375 18.6875C37.375 18.041 37.1182 17.421 36.6611 16.9639C36.204 16.5068 35.584 16.25 34.9375 16.25C34.291 16.25 33.671 16.5068 33.2139 16.9639C32.7568 17.421 32.5 18.041 32.5 18.6875C32.5 19.334 32.7568 19.954 33.2139 20.4111C33.671 20.8682 34.291 21.125 34.9375 21.125C35.584 21.125 36.204 20.8682 36.6611 20.4111C37.1182 19.954 37.375 19.334 37.375 18.6875ZM40.625 18.6875C40.625 20.1959 40.0258 21.6426 38.9592 22.7092C37.8926 23.7758 36.4459 24.375 34.9375 24.375C33.4291 24.375 31.9824 23.7758 30.9158 22.7092C29.8492 21.6426 29.25 20.1959 29.25 18.6875C29.25 17.1791 29.8492 15.7324 30.9158 14.6658C31.9824 13.5992 33.4291 13 34.9375 13C36.4459 13 37.8926 13.5992 38.9592 14.6658C40.0258 15.7324 40.625 17.1791 40.625 18.6875V18.6875Z" fill="#222222"/>
</svg>
