<svg width="18" height="18" viewBox="0 0 18 18" fill="none" xmlns="http://www.w3.org/2000/svg">
<path fill-rule="evenodd" clip-rule="evenodd" d="M12.7664 0.783713C13.1766 0.373811 13.7327 0.143555 14.3126 0.143555C14.8925 0.143555 15.4487 0.373811 15.8589 0.783713L17.2164 2.14121C17.6263 2.5514 17.8565 3.10757 17.8565 3.68746C17.8565 4.26736 17.6263 4.82352 17.2164 5.23371L6.45387 15.9962C6.19137 16.2587 5.86637 16.4512 5.50887 16.5525L1.44512 17.715C1.28427 17.7609 1.11405 17.763 0.952126 17.721C0.790197 17.679 0.642456 17.5945 0.52423 17.4761C0.406004 17.3578 0.3216 17.2099 0.279775 17.0479C0.237949 16.886 0.240226 16.7158 0.286369 16.555L1.44762 12.4925C1.54941 12.1344 1.74086 11.8083 2.00387 11.545L12.7664 0.782463V0.783713ZM14.5339 2.10871C14.5048 2.07961 14.4704 2.05652 14.4324 2.04077C14.3944 2.02501 14.3537 2.0169 14.3126 2.0169C14.2715 2.0169 14.2308 2.02501 14.1928 2.04077C14.1549 2.05652 14.1204 2.07961 14.0914 2.10871L12.5139 3.68746L14.3126 5.48746L15.8914 3.90871C15.9205 3.87968 15.9436 3.8452 15.9593 3.80723C15.9751 3.76927 15.9832 3.72857 15.9832 3.68746C15.9832 3.64636 15.9751 3.60566 15.9593 3.56769C15.9436 3.52973 15.9205 3.49524 15.8914 3.46621L14.5339 2.10871ZM12.9864 6.81246L11.1876 5.01246L3.33012 12.8712C3.2924 12.9087 3.26487 12.9551 3.25012 13.0062L2.55262 15.4475L4.99387 14.75C5.04496 14.7353 5.09144 14.7077 5.12887 14.67L12.9864 6.81246Z" fill="#878787"/>
</svg>
