<svg width="79" height="79" viewBox="0 0 79 79" fill="none" xmlns="http://www.w3.org/2000/svg">
<path d="M65.3492 52.2928L47.5245 45.8123V42.1092C50.4747 40.196 52.3139 36.9619 52.4497 33.444L53.141 33.2712C55.4492 32.691 56.8564 30.3457 56.2762 28.0374C55.8319 26.2476 54.2889 24.9391 52.4497 24.7787V20.2609L58.3747 19.0759V25.7662H60.3497V16.8787V16.854C60.3497 15.8294 59.6585 14.9407 58.671 14.6938L40.1556 10.0648C39.7976 9.97841 39.4273 9.97841 39.0817 10.0648L20.5664 14.6938C19.3814 15.0024 18.6531 16.1997 18.9493 17.397C19.1592 18.2241 19.8257 18.866 20.6651 19.0388L26.7753 20.2608V24.8033C24.4053 25.0008 22.6401 27.0868 22.8376 29.4693C22.9981 31.3085 24.3066 32.8391 26.0964 33.2958L26.7876 33.4686C26.9234 36.9866 28.7626 40.2206 31.7128 42.1339V45.8369L13.9006 52.2927C11.5676 53.1444 10 55.3663 10 57.8597V69.2154H69.25V57.8597C69.25 55.3663 67.6823 53.1444 65.3494 52.2927L65.3492 52.2928ZM26.787 31.4199L26.5895 31.3705C25.3428 31.0619 24.5775 29.7905 24.886 28.5315C25.1082 27.618 25.8612 26.9392 26.787 26.791V31.4199ZM50.487 24.7789H28.762V20.6561L39.1925 22.7422C39.4764 22.8039 39.7726 22.8039 40.0689 22.7422L50.4994 20.6561V24.7789H50.487ZM54.437 29.0992C54.437 30.1731 53.7087 31.1112 52.6595 31.3704L52.462 31.4198V26.7909C53.5976 26.9637 54.437 27.9388 54.437 29.0991V29.0992ZM21.0595 17.1013C20.9237 17.0767 20.8373 16.9409 20.862 16.8174C20.8867 16.7187 20.9484 16.6446 21.0472 16.6323L39.5625 12.0033C39.5995 11.991 39.6489 11.991 39.6859 12.0033L58.2013 16.6323C58.3371 16.6693 58.4111 16.8051 58.3864 16.9285C58.3618 17.0149 58.2877 17.089 58.2013 17.1137L39.6859 20.8168C39.6489 20.8291 39.6242 20.8291 39.5872 20.8168L21.0595 17.1013ZM28.762 33.0119V26.7537H50.487V33.0119C50.4993 36.604 48.3392 39.838 45.0187 41.2205L41.1428 42.8375C40.1676 43.2449 39.0813 43.2449 38.1062 42.8375L34.2303 41.2205C30.9098 39.838 28.7497 36.5915 28.762 33.0119V33.0119ZM39.6245 51.4415C40.1429 51.4292 40.6244 51.7131 40.8835 52.1575C41.3032 52.8611 41.081 53.7622 40.3774 54.1819C39.6738 54.6016 38.7727 54.3794 38.353 53.6758C38.0691 53.2067 38.0691 52.6266 38.353 52.1575C38.6246 51.7132 39.106 51.4292 39.6245 51.4416L39.6245 51.4415ZM40.2294 49.5159C39.822 49.4419 39.4147 49.4419 39.0196 49.5159L33.6994 45.9732V43.1218L37.3409 44.6401C38.7974 45.2449 40.4392 45.2449 41.8957 44.6401L45.5371 43.1218V45.9732L40.2294 49.5159ZM34.8228 67.2413H11.9749V57.86C11.9749 56.206 13.0118 54.7123 14.5794 54.1446L16.0977 53.5891L35.4651 62.8099L34.8228 67.2413ZM35.7363 60.7732L18.6892 52.651L27.4779 49.454L36.5752 54.91L35.7363 60.7732ZM36.662 51.1452C36.4275 51.5278 36.2794 51.9475 36.2053 52.3919L29.873 48.59L32.5763 47.6025L37.0694 50.5897C36.9212 50.7625 36.7854 50.9476 36.662 51.1451L36.662 51.1452ZM36.8102 67.2408L38.3902 56.1438C39.1802 56.4401 40.0566 56.4401 40.8466 56.1438L42.4266 67.2408H36.8102ZM42.1797 50.6012L46.6727 47.614L49.376 48.6015L43.0313 52.4034C42.9572 51.959 42.8091 51.5393 42.5746 51.1567C42.4635 50.9468 42.3277 50.7617 42.1796 50.6012L42.1797 50.6012ZM42.6734 54.9092L51.7707 49.4532L60.5595 52.6502L43.5124 60.7724L42.6734 54.9092ZM67.274 67.2411H44.4261L43.7966 62.822L63.164 53.6013L64.6823 54.1567C66.2375 54.7245 67.2745 56.2058 67.2868 57.8722V67.2412L67.274 67.2411Z" fill="#222222"/>
</svg>
