<svg width="79" height="60" viewBox="0 0 79 60" fill="none" xmlns="http://www.w3.org/2000/svg">
<path d="M3.28003 3.09052H3.08002V3.29052V49.3578V49.5578H3.28003H75.4406H75.6406V49.3578V3.29052V3.09052H75.4406H3.28003ZM0.2 3.29052C0.2 1.60601 1.60244 0.2 3.28003 0.2H75.4406C77.1182 0.2 78.5206 1.60601 78.5206 3.29052V49.3578C78.5206 51.0423 77.1182 52.4483 75.4406 52.4483H3.28003C1.60244 52.4483 0.2 51.0423 0.2 49.3578V3.29052Z" fill="#222222" stroke="#E8F9FF" stroke-width="0.4"/>
<path d="M1.63995 42.7767V45.0667H77.0805V42.7767H1.63995Z" fill="#222222"/>
<path d="M17.3559 51.0029L11.9608 56.4131C11.6504 56.7223 11.4754 57.1424 11.4739 57.5809C11.4724 58.0201 11.6459 58.441 11.9542 58.7517C12.2631 59.0624 12.6827 59.2357 13.119 59.235C13.5561 59.2343 13.9742 59.058 14.2817 58.7466L21 51.0001L17.3559 51.0029ZM58 51.0001L64.438 58.7467C64.7447 59.0581 65.1635 59.2344 65.5999 59.2352C66.037 59.2359 66.4558 59.0626 66.7647 58.7519C67.0737 58.4412 67.2465 58.0203 67.2458 57.5811C67.2443 57.1426 67.0693 56.7225 66.7589 56.4133L61.3637 51.0031L58 51.0001Z" fill="#222222"/>
<path d="M68.6006 47.5673C68.6006 48.3957 67.9289 49.0673 67.1006 49.0673C66.2722 49.0673 65.6006 48.3957 65.6006 47.5673C65.6006 46.739 66.2722 46.0673 67.1006 46.0673C67.9289 46.0673 68.6006 46.739 68.6006 47.5673Z" fill="#222222"/>
</svg>
