<svg width="79" height="79" viewBox="0 0 79 79" fill="none" xmlns="http://www.w3.org/2000/svg">
<path fill-rule="evenodd" clip-rule="evenodd" d="M25.8524 53.2979C25.0941 53.2979 24.3355 53.2348 23.5772 53.1714C17.0676 52.3496 12.3907 48.4314 10.1788 41.7954C8.02963 35.5384 8.47225 28.3338 8.91443 24.605C9.35704 21.2554 10.0518 19.5488 11.4422 18.7276C13.2118 17.7163 15.1709 18.6011 17.7622 19.6754C20.1639 20.7497 23.1974 22.0137 27.2422 22.5193C31.287 23.0249 34.5735 22.4562 37.1648 22.0767C39.8822 21.6341 42.0313 21.2549 43.4848 22.6454C44.6222 23.7827 44.9383 25.6158 44.5592 28.9654C43.8639 34.9067 40.4514 53.2985 25.852 53.2985M23.8924 50.0751C37.2276 51.6551 40.6404 35.6023 41.5252 28.6503C41.9044 25.5534 41.4622 25.0476 41.3987 24.9847C41.0826 24.6686 39.1235 24.9847 37.7331 25.2373C35.0787 25.6799 31.4131 26.2486 26.9257 25.7429C22.4383 25.1742 19.0257 23.7203 16.5609 22.646C15.2335 22.0773 13.464 21.3186 13.0848 21.5086C13.0217 21.5717 12.4526 21.9513 12.0735 25.0477C11.6309 28.5238 11.1887 35.2229 13.1478 40.8477C14.9179 46.2834 18.5835 49.38 23.8922 50.0752" fill="#222222"/>
<path fill-rule="evenodd" clip-rule="evenodd" d="M20.038 35.4755C21.2389 35.602 22.3132 34.7172 22.4397 33.5164C22.5662 32.2525 21.7445 31.1781 20.6071 30.9886C19.4062 30.8621 18.3319 31.7469 18.2054 32.9477C18.0159 34.2116 18.8376 35.286 20.038 35.4755Z" fill="#222222"/>
<path fill-rule="evenodd" clip-rule="evenodd" d="M30.7188 36.7395C31.9197 36.866 32.994 35.9812 33.1205 34.7804C33.247 33.5165 32.4253 32.4421 31.2879 32.2526C30.087 32.1261 29.0127 33.0109 28.8862 34.2117C28.6966 35.4756 29.518 36.6134 30.7188 36.7395Z" fill="#222222"/>
<path fill-rule="evenodd" clip-rule="evenodd" d="M24.9675 43.6915C28.1906 44.0706 31.0979 42.1746 31.2245 41.5428C31.2875 40.9106 28.5071 42.1115 25.2206 41.7324C21.9975 41.3532 19.5328 39.5201 19.4693 40.1524C19.3427 40.658 21.744 43.2489 24.9675 43.6915" fill="#222222"/>
<path fill-rule="evenodd" clip-rule="evenodd" d="M52.902 60.7555C47.2772 60.7555 42.6003 58.1642 39.4404 53.108C38.9978 52.4128 39.1878 51.4015 39.883 50.9594C40.5783 50.5167 41.5895 50.7068 42.0317 51.402C44.8756 55.8259 48.9204 57.9116 53.9765 57.5955C67.3749 56.6476 67.6909 40.5315 67.1853 33.6427C66.9957 30.6092 66.4271 30.1665 66.3636 30.1665C65.9844 29.8505 64.1518 30.5457 62.8245 31.0513C60.2967 31.9991 56.8206 33.2636 52.3332 33.5791C51.1958 33.6421 50.058 33.6421 48.9206 33.6421C48.0358 33.5791 47.4037 32.8839 47.4037 31.9991C47.4667 31.1143 48.2254 30.4821 49.0468 30.4821C50.0581 30.5452 51.0694 30.4821 52.0803 30.4191C56.188 30.103 59.2851 29.0287 61.7499 28.0808C64.3412 27.133 66.4268 26.3743 68.0699 27.4486C69.3973 28.3334 70.0925 30.0399 70.2821 33.326C70.7247 39.4564 70.7878 59.4276 54.1661 60.6284C53.7874 60.6919 53.3448 60.7549 52.9027 60.7549" fill="#222222"/>
<path fill-rule="evenodd" clip-rule="evenodd" d="M47.4036 44.2603C48.6045 44.1972 49.4892 43.1229 49.4262 41.922C49.3632 40.7211 48.2889 39.7733 47.151 39.8364C45.9501 39.8994 45.0654 40.9738 45.1284 42.1747C45.1919 43.4386 46.2032 44.3234 47.4036 44.2603Z" fill="#222222"/>
<path fill-rule="evenodd" clip-rule="evenodd" d="M58.1476 43.5019C59.3485 43.4388 60.2332 42.3645 60.1702 41.1636C60.1072 39.9627 59.0328 39.0149 57.895 39.078C56.7576 39.141 55.8094 40.2154 55.8724 41.4163C55.9354 42.6802 56.9467 43.565 58.1476 43.5019Z" fill="#222222"/>
<path fill-rule="evenodd" clip-rule="evenodd" d="M53.5972 48.2419C50.3107 48.4945 47.8459 50.8963 47.9094 51.5284C47.9724 52.1606 50.5007 50.4541 53.7868 50.2645C57.0733 50.0119 59.7907 51.3389 59.7277 50.7071C59.6642 50.0745 56.8834 48.0524 53.5973 48.2419" fill="#222222"/>
</svg>
