<svg width="57" height="65" viewBox="0 0 57 65" fill="none" xmlns="http://www.w3.org/2000/svg">
<path d="M28.4972 35.629C28.1765 35.629 27.8772 35.4366 27.7275 35.1587L15.6484 10.4441C15.4987 10.1448 15.5415 9.78131 15.7553 9.52476L22.4255 1.22962C22.5966 1.0372 22.8317 0.908936 23.0883 0.908936H33.9061C34.1626 0.908936 34.4192 1.01583 34.5688 1.22962L41.2391 9.52476C41.4529 9.78131 41.4956 10.1448 41.346 10.4441L29.2668 35.1372C29.1172 35.4365 28.8179 35.6289 28.4972 35.6289L28.4972 35.629ZM17.4229 10.1873L28.4972 32.828L39.5714 10.1873L33.4999 2.61904H23.4944L17.4229 10.1873Z" fill="#222222"/>
<path d="M28.4971 35.629C28.1122 35.629 27.7702 35.3725 27.6633 34.9877L19.7958 5.03655C19.7317 4.78 19.7744 4.50207 19.9455 4.28829C20.1165 4.07451 20.3517 3.96761 20.6296 3.94623L36.3859 3.98899C36.6424 3.98899 36.8989 4.11726 37.07 4.33105C37.241 4.54484 37.2838 4.82276 37.2196 5.07931L29.3309 34.9894C29.224 35.3742 28.8819 35.6307 28.4971 35.6307L28.4971 35.629ZM21.7414 5.67791L28.4971 31.4187L35.2742 5.72091L21.7414 5.67791Z" fill="#222222"/>
<path d="M40.5552 26.3307H35.9161C35.4457 26.3307 35.0609 25.9458 35.0609 25.4755C35.0609 25.0052 35.4457 24.6204 35.9161 24.6204H40.5552C41.0256 24.6204 41.4104 25.0052 41.4104 25.4755C41.4104 25.9458 41.0469 26.3307 40.5552 26.3307Z" fill="#222222"/>
<path d="M21.2492 64.0201C20.9713 64.0201 20.6934 63.9988 20.4155 63.956L11.4362 62.5236C11.201 62.4809 11.0086 62.3526 10.859 62.1602C10.7307 61.9678 10.6879 61.7326 10.7307 61.4974C10.7734 61.3478 14.0657 45.8694 14.0657 39.9259C14.0657 37.4458 13.5954 32.3792 13.1892 28.424C12.7616 30.562 12.4409 32.2295 12.2485 33.4052C11.1795 39.8616 9.0843 59.5525 9.06299 59.7441C9.04161 59.9793 8.91334 60.2144 8.72093 60.3427C8.52852 60.4924 8.27197 60.5351 8.0368 60.4924L0.746543 58.8889C0.318963 58.8034 0.0410297 58.3972 0.0837974 57.9697C0.105177 57.7772 2.2218 38.0009 3.2906 31.4802C3.97473 27.3327 5.70635 19.7218 6.94638 14.1847C7.24568 12.8592 7.52361 11.6405 7.73741 10.6358C8.07947 9.11794 9.8539 7.36493 11.2009 7.17239L20.3297 3.9869C20.6931 3.85863 21.0993 3.9869 21.3131 4.30758C21.5269 4.62826 21.5269 5.03447 21.2917 5.33377L17.4221 10.1655L29.2661 34.3875C29.3088 34.4516 29.3302 34.5372 29.3302 34.6013C29.7364 36.846 29.8861 38.5563 29.8861 39.1122C29.8861 42.9391 28.6889 51.0632 27.684 57.2203C27.0426 61.261 24.349 64.0188 21.2489 64.0188L21.2492 64.0201ZM12.612 60.9844L20.6933 62.2671C23.1734 62.6519 25.4609 60.3858 26.0166 56.9438C27.0001 50.8508 28.1972 42.8336 28.1972 39.1137C28.1972 38.7289 28.069 37.1682 27.6841 35.0302L15.6691 10.4446C15.5194 10.1453 15.5622 9.78189 15.776 9.52534L18.1276 6.59649L11.714 8.81991C11.6499 8.84129 11.5644 8.86267 11.4789 8.86267C11.0299 8.88405 9.66165 10.0599 9.44779 11.0007C9.21263 12.0055 8.95608 13.2241 8.65676 14.5495C7.39541 20.0867 5.68511 27.6549 5.02229 31.7596C4.08161 37.4891 2.30708 53.6732 1.92241 57.3929L7.52365 58.6115C7.95123 54.5709 9.68296 38.7933 10.6235 33.1073C10.9656 31.0762 11.6497 27.5701 12.6759 22.7384C12.7614 22.3322 13.1249 22.0543 13.5525 22.0543C13.98 22.0757 14.3221 22.3964 14.3649 22.8026C14.429 23.3156 15.84 35.4376 15.84 39.8844C15.7759 45.2933 13.3173 57.5435 12.6117 60.9849L12.612 60.9844Z" fill="#222222"/>
<path d="M36.1085 64.0203C33.0086 64.0203 30.3147 61.241 29.6734 57.2219C29.0961 53.6302 28.3051 48.4564 27.8562 44.3091V44.1166C28.0913 41.9573 28.2196 40.2683 28.2196 39.1139C28.2196 38.7505 28.0699 37.0187 27.6851 34.9235C27.6424 34.7525 27.6851 34.5601 27.7493 34.3891L39.5933 10.167L35.745 5.37813C35.5098 5.07883 35.4884 4.65123 35.7236 4.33055C35.9587 4.00987 36.3649 3.90297 36.7284 4.03126L46.1138 7.66573C46.1993 7.68711 46.2635 7.72987 46.3276 7.79401C46.7125 8.0933 48.5939 9.63259 48.8931 11.0436C49.3207 13.0104 50.0262 15.6828 50.7531 18.5049C51.9289 23.08 53.2544 28.2537 53.7888 31.4605C54.8578 37.981 56.9743 57.7349 56.9956 57.9499C57.0384 58.3775 56.7605 58.7837 56.3329 58.8692L49.0426 60.4727C48.8075 60.5154 48.5509 60.4727 48.3585 60.323C48.1661 60.1734 48.0378 59.9596 48.0164 59.7244C47.9951 59.532 45.8999 39.8417 44.8309 33.3855C44.6813 32.4448 44.4461 31.1621 44.1254 29.58C43.7406 33.6847 43.313 38.4949 43.313 39.8847C43.313 45.828 46.6055 61.2842 46.6481 61.4562C46.6908 61.6914 46.6481 61.9265 46.5198 62.119C46.3915 62.3114 46.1777 62.4396 45.9426 62.4824L36.9633 63.9148C36.664 64.0003 36.3861 64.0217 36.1081 64.0217L36.1085 64.0203ZM29.5451 44.2236C29.9941 48.3071 30.7638 53.3953 31.341 56.9441C31.8968 60.3648 34.1844 62.6523 36.6643 62.2674L44.7456 60.9847C44.0401 57.564 41.5601 45.2925 41.5601 39.9487C41.5601 37.7681 42.5008 28.0406 42.907 23.9573L42.9283 23.8077C42.9711 23.3801 43.3132 23.0594 43.7407 23.038C44.1683 23.0166 44.5318 23.2946 44.6173 23.7222C45.5366 28.0834 46.1566 31.2689 46.4772 33.1717C47.4179 38.8586 49.1281 54.6357 49.5771 58.676L55.1784 57.4574C54.7722 53.7588 53.0191 37.5747 52.0785 31.8241C51.5654 28.6814 50.2399 23.5505 49.064 19.018C48.3371 16.1746 47.6316 13.4809 47.2041 11.4926C47.0758 10.9154 46.0496 9.86781 45.3441 9.29051L39.0587 6.85326L41.2393 9.56846C41.4531 9.82501 41.4959 10.1885 41.3462 10.4878L29.3953 34.9443C29.7587 36.9967 29.9084 38.707 29.9084 39.1773C29.887 40.3318 29.7801 42.0421 29.5449 44.2227L29.5451 44.2236Z" fill="#222222"/>
</svg>
