<svg width="79" height="79" viewBox="0 0 79 79" fill="none" xmlns="http://www.w3.org/2000/svg">
<path fill-rule="evenodd" clip-rule="evenodd" d="M41.6977 27.896C41.6977 30.1902 37.526 30.1902 37.526 27.896C36.6914 27.6875 36.0658 27.479 35.4404 27.0615C34.3973 26.227 33.7718 25.1843 33.7718 23.9328C33.7718 22.8897 34.8148 22.2642 35.8574 22.2642C36.6919 22.2642 37.943 22.8897 37.943 23.9328C37.943 24.1413 38.1515 24.5583 38.36 24.5583C38.9856 25.1839 40.2372 25.1839 40.8632 24.5583C41.0717 24.5583 41.2802 24.1413 41.2802 23.9328C41.2802 23.5157 41.0717 23.3072 40.8632 23.0982C39.8201 22.2637 37.526 23.0982 35.4398 21.4296C34.3968 20.8041 33.7712 19.7611 33.7712 18.3009C33.7712 17.0493 34.3968 16.0067 35.4398 15.1722C36.0654 14.7551 36.6914 14.5466 37.5254 14.3376C37.734 12.4605 41.4886 12.4605 41.6972 14.3376C42.3228 14.5462 43.1573 14.7547 43.5744 15.1722C44.6174 16.0067 45.4515 17.0493 45.4515 18.3009C45.4515 20.5951 41.2797 20.5951 41.2797 18.3009C41.2797 18.0924 41.0712 17.8839 40.8627 17.6753C40.4457 17.4668 40.0282 17.2583 39.6111 17.2583C39.1941 17.2583 38.7766 17.4668 38.3595 17.6753C38.151 17.8839 37.9425 18.0924 37.9425 18.3009C37.9425 18.7179 38.151 18.9265 38.3595 19.1354C39.4026 19.9699 41.6967 19.344 43.5739 20.804C44.6169 21.4296 45.451 22.6812 45.451 23.9328C45.451 25.1843 44.6165 26.2269 43.5739 27.0615C43.1568 27.4785 42.3223 27.6871 41.6967 27.896H41.6977Z" fill="#222222"/>
<path fill-rule="evenodd" clip-rule="evenodd" d="M39.6121 7.87178C46.9126 7.87178 52.9619 13.9207 52.9619 21.2217C52.9619 28.5226 46.913 34.5715 39.6121 34.5715C32.1031 34.5715 26.2622 28.5226 26.2622 21.2217C26.2622 13.9207 32.1026 7.87178 39.6121 7.87178ZM39.6121 9.54037C46.078 9.54037 51.084 14.7547 51.084 21.2211C51.084 27.687 46.0782 32.9018 39.6121 32.9018C33.1459 32.9018 27.9314 27.6875 27.9314 21.2211C27.9314 14.7552 33.1457 9.54037 39.6121 9.54037V9.54037Z" fill="#222222"/>
<path fill-rule="evenodd" clip-rule="evenodd" d="M56.0891 56.8879V71.0718H64.8496V44.1655L56.0891 56.8879ZM57.1322 57.3049L63.8066 47.9188V69.8199H57.1322V57.3049Z" fill="#222222"/>
<path fill-rule="evenodd" clip-rule="evenodd" d="M45.4512 51.0475V71.0718H54.4203V58.5571L45.4512 51.0475ZM46.7028 53.5507L53.1687 58.9741V69.8202H46.7028V53.5507Z" fill="#222222"/>
<path fill-rule="evenodd" clip-rule="evenodd" d="M35.0232 60.6426V71.0718H43.9923V49.7959L43.1578 49.1704L35.0232 60.6426ZM36.2748 61.0597L42.7407 51.8821V69.8208H36.2748V61.0597Z" fill="#222222"/>
<path fill-rule="evenodd" clip-rule="evenodd" d="M24.594 52.9255V71.0718H33.5631V62.7287L24.594 52.9256V52.9255ZM25.637 56.0542L32.3115 63.1462V69.8206H25.637V56.0542Z" fill="#222222"/>
<path fill-rule="evenodd" clip-rule="evenodd" d="M13.9563 41.6623V71.0718H22.9254V51.2563L13.9563 41.6623ZM15.2079 44.5825L21.8824 51.883V69.8217H15.2079V44.5825Z" fill="#222222"/>
<path fill-rule="evenodd" clip-rule="evenodd" d="M32.5201 47.5027L41.4892 35.1968L52.9611 44.5829L58.5929 36.6569L54.8386 34.1537L68.6049 29.1479V43.7483L65.2677 41.4541L54.63 56.6808L43.1581 47.2947L33.355 60.6446L10.4111 35.6151L16.46 30.1918L32.5208 47.5041L32.5201 47.5027ZM16.4594 32.0672L32.7289 49.7971L40.0294 39.5765L41.698 37.2824L53.1699 46.6685L60.4704 36.4479L57.9672 34.5707L67.1448 31.2336V41.0367L65.0592 39.5765L56.0901 52.3L54.4215 54.8032L52.1273 52.926L42.7412 45.2085L35.2323 55.8462L33.3551 58.5578L31.0609 56.0547L12.2883 35.8228L16.46 32.0685L16.4594 32.0672Z" fill="#222222"/>
</svg>
