<svg width="79" height="79" viewBox="0 0 79 79" fill="none" xmlns="http://www.w3.org/2000/svg">
<path d="M16.9115 55.769L16.8542 55.8263C15.119 57.5606 15.119 60.3843 16.8542 62.119C18.5885 63.8542 21.4126 63.8542 23.1478 62.119L23.2051 62.0617L29.8747 68.7321L34.7391 63.8682L39.0466 68.1758L45.6333 61.5891L34.6566 50.6115L50.6112 34.6546L61.5892 45.6322L68.1758 39.0455L63.8674 34.738L68.7318 29.8741L62.0617 23.2044L62.1203 23.1467C62.961 22.3064 63.423 21.1888 63.423 20.0008C63.423 18.8118 62.9601 17.6956 62.119 16.8549C61.2787 16.0142 60.1625 15.5508 58.9731 15.5508C57.7837 15.5508 56.6665 16.0137 55.8263 16.8549L55.769 16.9122L49.0985 10.2418L44.2346 15.1057L39.9262 10.7982L33.3395 17.3849L44.3175 28.3625L28.3628 44.3182L17.3849 33.3406L10.7982 39.9273L15.1057 44.2348L10.2418 49.0978L16.9115 55.769ZM18.577 60.3966C17.9219 59.7415 17.8135 58.7412 18.2539 57.9725L21.0022 60.7208C20.2325 61.1603 19.233 61.0523 18.5771 60.3967L18.577 60.3966ZM58.972 17.9883C59.5107 17.9874 60.015 18.1973 60.3955 18.5777C60.7759 18.9582 60.9862 19.4638 60.9862 20.0012C60.9862 20.3583 60.8936 20.7012 60.7199 21.0019L57.9716 18.2533C58.2723 18.0805 58.6161 17.9883 58.9719 17.9883L58.972 17.9883ZM49.0983 13.6874L65.2854 29.8757L62.1449 33.0162L45.9578 16.8291L49.0983 13.6874ZM36.7868 17.3853L39.9273 14.2438L42.5124 16.8285H42.5116L62.1442 36.4622H62.1451L64.7302 39.0469L61.5887 42.1884L36.7868 17.3853ZM45.6108 30.5162L48.4574 33.3636L33.3639 48.4583L30.5165 45.6109L45.6108 30.5162ZM14.2444 39.928L17.3859 36.7874L42.1885 61.59L39.0471 64.7306L36.4624 62.1459L36.4633 62.145L16.8295 42.5124V42.5133L14.2444 39.928ZM16.8286 45.9588L33.0157 62.1459L29.8743 65.2865L13.6883 49.0983L16.8286 45.9588Z" fill="#222222"/>
</svg>
