<svg width="79" height="79" viewBox="0 0 79 79" fill="none" xmlns="http://www.w3.org/2000/svg">
<path d="M41.9053 35.0862V39.4471C41.9053 39.9528 42.3479 40.3949 42.8531 40.3949C43.3588 40.3949 43.8009 39.9523 43.8009 39.4471V35.0862C43.8009 34.5805 43.3583 34.1384 42.8531 34.1384C42.3474 34.1384 41.9053 34.581 41.9053 35.0862V35.0862Z" fill="#222222"/>
<path d="M59.2852 52.4662V48.2318C59.2852 47.7261 58.8426 47.284 58.3374 47.284C57.8318 47.284 57.3896 47.7266 57.3896 48.2318V51.5183H40.4509V13.6615H52.9645C55.4293 13.6615 57.3884 15.6206 57.3884 18.0854V43.871C57.3884 44.3766 57.831 44.8188 58.3362 44.8188C58.8418 44.8188 59.284 44.3762 59.284 43.871L59.2849 18.0854C59.2849 14.6093 56.441 11.7654 52.9649 11.7654H26.0417C22.5656 11.7654 19.7217 14.6093 19.7217 18.0854V56.3214C19.7217 59.7975 22.5656 62.6414 26.0417 62.6414H26.1682V66.307C26.1682 66.8126 26.6108 67.2548 27.116 67.2548H29.6438C30.1495 67.2548 30.5916 66.8122 30.5916 66.307V62.6414H48.4151V66.307C48.4151 66.8126 48.8578 67.2548 49.363 67.2548H51.8907C52.3964 67.2548 52.8386 66.8122 52.8386 66.307V62.6414H52.9651C56.4412 62.6414 59.2851 59.7975 59.2851 56.3214L59.2855 52.4662H59.2852ZM28.6964 65.4854H28.0643V62.768H28.6964V65.4854ZM50.9428 65.4854H50.3107V62.768H50.9428V65.4854ZM21.618 21.4982H29.139V21.8773L23.2616 27.5651C23.009 27.8177 22.8824 28.2603 23.072 28.5764C23.1985 28.9555 23.5777 29.1451 23.9568 29.1451H36.2808C36.6599 29.1451 37.0391 28.8925 37.1656 28.5764C37.2921 28.1973 37.2286 27.8181 36.976 27.5651L31.0986 21.8773V21.5612H38.6195V51.5812H21.6187L21.618 21.4982ZM30.0867 23.5838L33.879 27.3125H26.2951L30.0867 23.5838ZM26.0419 13.6612H38.5555V19.6021H31.0351V18.9699C31.0351 18.4642 30.5925 18.0221 30.0872 18.0221C29.5816 18.0221 29.1394 18.4647 29.1394 18.9699V19.6021H21.6181V18.0855C21.6181 15.6207 23.5771 13.6612 26.0419 13.6612H26.0419ZM21.618 56.4476V53.4772H38.5556V60.8716H26.042C23.5772 60.8716 21.6182 58.8494 21.6182 56.4477L21.618 56.4476ZM52.9652 60.8714H40.4516V53.4141H57.3892V56.3845C57.3897 58.8493 55.4306 60.8714 52.9658 60.8714H52.9652Z" fill="#222222"/>
<path d="M50.3108 55.879H47.5298C47.0242 55.879 46.582 56.3216 46.582 56.8268C46.582 57.3324 47.0246 57.7746 47.5298 57.7746H50.3108C50.8164 57.7746 51.2586 57.332 51.2586 56.8268C51.2586 56.3211 50.8795 55.879 50.3108 55.879Z" fill="#222222"/>
<path d="M31.4773 55.879H28.6964C28.1907 55.879 27.7485 56.3216 27.7485 56.8268C27.7485 57.3324 28.1911 57.7746 28.6964 57.7746H31.4773C31.9829 57.7746 32.4251 57.332 32.4251 56.8268C32.4255 56.3211 31.9829 55.879 31.4773 55.879Z" fill="#222222"/>
</svg>
