<svg width="79" height="79" viewBox="0 0 79 79" fill="none" xmlns="http://www.w3.org/2000/svg">
<path d="M31.484 48.3068C31.484 49.125 30.8205 49.7881 30.0028 49.7881H28.1706V51.6197C28.1706 52.438 27.5072 53.101 26.6894 53.101C25.8712 53.101 25.2081 52.438 25.2081 51.6197V49.7881H23.3768C22.5586 49.7881 21.8956 49.125 21.8956 48.3068C21.8956 47.4886 22.5586 46.8256 23.3768 46.8256H25.2081V44.9934C25.2081 44.1752 25.8712 43.5122 26.6894 43.5122C27.5072 43.5122 28.1706 44.1752 28.1706 44.9934V46.8256H30.0028C30.8205 46.8256 31.484 47.4886 31.484 48.3068ZM57.0823 48.3068C57.0818 49.5783 56.5766 50.798 55.6778 51.6969C54.7784 52.5963 53.5587 53.101 52.2872 53.101C51.0153 53.101 49.796 52.5958 48.8966 51.6965C47.9977 50.7976 47.4926 49.5778 47.4926 48.3064C47.4926 47.0345 47.9978 45.8152 48.8971 44.9158C49.796 44.0169 51.0158 43.5117 52.2872 43.5117C53.5587 43.5131 54.7775 44.0187 55.6764 44.9176C56.5753 45.8165 57.0809 47.0355 57.0823 48.3068ZM54.1198 48.3068C54.1198 47.821 53.9267 47.3546 53.5828 47.0112C53.2394 46.6674 52.7734 46.4747 52.2872 46.4747C51.8014 46.4747 51.3354 46.6674 50.9916 47.0112C50.6482 47.3546 50.4551 47.8211 50.4551 48.3068C50.4551 48.7926 50.6482 49.2586 50.9916 49.6024C51.3355 49.9458 51.8015 50.1389 52.2872 50.1389C52.773 50.1385 53.239 49.9454 53.5825 49.602C53.9259 49.2581 54.1194 48.7926 54.1199 48.3067L54.1198 48.3068ZM63.9714 66.549C60.4574 68.2494 56.3244 68.0731 52.9678 66.08L45.6308 61.7354C43.7642 60.6536 41.6451 60.084 39.4875 60.084C37.3305 60.084 35.2112 60.6536 33.3447 61.7354L26.0076 66.08C22.6515 68.0726 18.519 68.249 15.0054 66.549C12.9744 65.5801 11.3825 63.8823 10.5457 61.7936C9.70901 59.7044 9.68873 57.3771 10.4893 55.2743L14.6271 44.258H14.6267C15.615 41.6521 17.3705 39.4081 19.6611 37.8211C21.9518 36.2345 24.6701 35.3802 27.4566 35.3714H38.0069V26.2692C38.0105 25.7521 37.8077 25.2552 37.4435 24.8885C37.0794 24.5217 36.5839 24.3154 36.0672 24.3154C35.5501 24.3154 35.0546 24.5217 34.6905 24.8885C34.3264 25.2553 34.1236 25.7521 34.1275 26.2692V28.0467C34.1275 29.7236 33.2326 31.2737 31.78 32.1122C30.3279 32.9506 28.5379 32.9506 27.0858 32.1122C25.6332 31.2737 24.7383 29.7236 24.7383 28.0467V12.7388C24.7383 11.921 25.4017 11.2575 26.2195 11.2575C27.0377 11.2575 27.7008 11.921 27.7008 12.7388V28.0467C27.7008 28.6652 28.031 29.237 28.567 29.5465C29.1027 29.8559 29.7631 29.8559 30.2987 29.5465C30.8348 29.237 31.165 28.6652 31.165 28.0467V26.2692C31.1588 24.9651 31.6728 23.7128 32.5929 22.7882C33.5129 21.8642 34.7631 21.3449 36.0672 21.3449C37.3712 21.3449 38.6215 21.8642 39.5415 22.7882C40.4615 23.7127 40.9751 24.9651 40.9693 26.2692V35.3718H51.5192C54.3058 35.3806 57.0241 36.235 59.3147 37.8216C61.6054 39.4083 63.3609 41.6525 64.3492 44.258L68.487 55.2743H68.4865C69.2871 57.3776 69.2668 59.7048 68.4301 61.7936C67.5938 63.8823 66.0019 65.5801 63.9709 66.549H63.9714ZM65.714 56.3156L61.5762 45.2993V45.2997C60.8017 43.2572 59.4258 41.4982 57.6302 40.2547C55.8351 39.011 53.7045 38.3414 51.52 38.3338H27.4577C25.2734 38.3413 23.1432 39.011 21.3475 40.2547C19.552 41.4984 18.176 43.2572 17.401 45.2993L13.2632 56.3156H13.2637C12.7263 57.7268 12.7399 59.2883 13.3016 60.6902C13.8632 62.0916 14.9314 63.2308 16.2946 63.8806C18.915 65.1485 21.9964 65.0171 24.4992 63.531L31.8362 59.1865H31.8367C34.1617 57.8389 36.8019 57.1291 39.4897 57.1291C42.1771 57.1291 44.8174 57.8389 47.1428 59.1865L54.4799 63.531C56.9826 65.0171 60.064 65.1485 62.6845 63.8806C64.0471 63.2304 65.1158 62.0916 65.677 60.6898C66.2382 59.2884 66.2519 57.7269 65.7145 56.3157L65.714 56.3156Z" fill="#222222"/>
</svg>
