<svg width="79" height="79" viewBox="0 0 79 79" fill="none" xmlns="http://www.w3.org/2000/svg">
<path d="M70.1127 25.7539V21.8039C70.1118 21.535 70.0012 21.2785 69.8068 21.0929H69.8561L58.9936 9.24285C58.812 9.02507 58.5462 8.89547 58.2627 8.88753H20.7377C20.4604 8.88577 20.1955 9.00039 20.0068 9.20362L9.14428 21.0536H9.19366C8.99924 21.2388 8.88859 21.4958 8.88771 21.7647V25.7147C8.87184 27.5442 9.58204 29.3054 10.8627 30.6125V64.1875H9.87521C9.32989 64.1875 8.88771 64.6297 8.88771 65.175V69.125C8.88771 69.3869 8.99175 69.6381 9.17691 69.8233C9.36206 70.0085 9.61335 70.1125 9.87521 70.1125H69.1252C69.3871 70.1125 69.6384 70.0085 69.8235 69.8233C70.0087 69.6381 70.1127 69.3869 70.1127 69.125V65.175C70.1127 64.9131 70.0087 64.6618 69.8235 64.4767C69.6384 64.2915 69.3871 64.1875 69.1252 64.1875H68.1377V30.6125C69.4087 29.3155 70.118 27.5702 70.1127 25.7539V25.7539ZM68.1377 25.7539C68.1377 27.5182 67.1965 29.148 65.669 30.0302C64.1414 30.9119 62.259 30.9119 60.7315 30.0302C59.2039 29.1481 58.2627 27.5182 58.2627 25.7539V22.7914H68.1377V25.7539ZM10.8627 25.7539V22.7914H20.7377V25.7539C20.7377 27.5182 19.7965 29.148 18.269 30.0302C16.7414 30.9119 14.859 30.9119 13.3315 30.0302C11.8039 29.1481 10.8627 27.5182 10.8627 25.7539ZM46.1362 20.8164L42.8377 10.8626H47.8939L55.3001 20.8164H46.1362ZM44.0625 20.8164H34.9377L38.2362 10.8626H40.764L44.0625 20.8164ZM32.864 20.8164H23.7001L31.1063 10.8626H36.1625L32.864 20.8164ZM22.7126 25.7539V22.7914H32.5876V25.7539C32.5876 27.5182 31.6464 29.148 30.1188 30.0302C28.5913 30.9119 26.7089 30.9119 25.1813 30.0302C23.6538 29.1481 22.7126 27.5182 22.7126 25.7539ZM34.5626 22.7914H44.4376V25.7539C44.4376 27.5182 43.4964 29.148 41.9689 30.0302C40.4413 30.9119 38.5589 30.9119 37.0313 30.0302C35.5038 29.1481 34.5626 27.5182 34.5626 25.7539V22.7914ZM46.4126 22.7914H56.2876V25.7539C56.2876 27.5182 55.3464 29.148 53.8189 30.0302C52.2913 30.9119 50.4089 30.9119 48.8814 30.0302C47.3538 29.1481 46.4126 27.5182 46.4126 25.7539V22.7914ZM66.9526 20.8164H57.7689L50.3626 10.8626H57.838L66.9526 20.8164ZM21.1721 10.8626H28.6374L21.2311 20.8164H12.0474L21.1721 10.8626ZM68.1376 68.1376H10.8626V66.1626H68.1376V68.1376ZM28.6376 64.1876H16.7876V44.4376H28.6376V64.1876ZM30.6126 64.1876V43.4501C30.6126 43.1882 30.5086 42.9369 30.3234 42.7518C30.1382 42.5666 29.887 42.4626 29.6251 42.4626H15.8001C15.2548 42.4626 14.8126 42.9047 14.8126 43.4501V64.1876H12.8376V31.9951C14.388 32.7304 16.1567 32.8626 17.7994 32.3663C19.442 31.8699 20.8412 30.78 21.7251 29.309C22.9749 31.3889 25.2237 32.6612 27.6501 32.6612C30.0765 32.6612 32.3253 31.3889 33.5751 29.309C34.8249 31.3889 37.0737 32.6612 39.5001 32.6612C41.9265 32.6612 44.1753 31.3889 45.4251 29.309C46.6749 31.3889 48.9237 32.6612 51.3501 32.6612C53.7765 32.6612 56.0253 31.3889 57.2751 29.309C58.159 30.78 59.5582 31.8698 61.2008 32.3663C62.8435 32.8626 64.6122 32.7304 66.1626 31.9951V64.1876H30.6126Z" fill="#222222"/>
<path d="M63.2001 34.5624H33.5751C33.0298 34.5624 32.5876 35.0046 32.5876 35.5499V61.2249C32.5876 61.4868 32.6917 61.7381 32.8768 61.9232C33.062 62.1084 33.3133 62.2124 33.5751 62.2124H63.2001C63.462 62.2124 63.7133 62.1084 63.8985 61.9232C64.0836 61.7381 64.1876 61.4868 64.1876 61.2249V35.5499C64.1876 35.2881 64.0836 35.0368 63.8985 34.8516C63.7133 34.6665 63.462 34.5624 63.2001 34.5624ZM62.2126 36.5374V48.3874H57.2751V44.4374C57.2743 44.2827 57.2368 44.1306 57.1667 43.9931L56.2876 42.2253V39.5C56.2876 39.2381 56.1836 38.9868 55.9984 38.8017C55.8133 38.6165 55.562 38.5125 55.3001 38.5125H51.3501C50.8048 38.5125 50.3626 38.9547 50.3626 39.5V42.2253L49.4836 43.9931C49.4135 44.1306 49.376 44.2827 49.3751 44.4374V48.3874H47.4001V44.4374C47.3993 44.2827 47.3618 44.1306 47.2917 43.9931L46.4126 42.2253V39.5C46.4126 39.2381 46.3086 38.9868 46.1234 38.8017C45.9383 38.6165 45.687 38.5125 45.4251 38.5125H41.4751C40.9298 38.5125 40.4876 38.9547 40.4876 39.5V42.2253L39.6086 43.9931C39.5385 44.1306 39.501 44.2827 39.5001 44.4374V48.3874H34.5626V36.5374H62.2126ZM57.2751 56.2874H55.3001V54.3124H57.2751V56.2874ZM58.2626 52.3374H54.3126C53.7673 52.3374 53.3251 52.7796 53.3251 53.3249V56.2874H51.3501V53.3249C51.3501 53.0631 51.2461 52.8118 51.061 52.6266C50.8758 52.4415 50.6245 52.3374 50.3626 52.3374H46.4126C45.8673 52.3374 45.4251 52.7796 45.4251 53.3249V56.2874H43.4501V53.3249C43.4501 53.0631 43.3461 52.8118 43.161 52.6266C42.9758 52.4415 42.7245 52.3374 42.4626 52.3374H38.5126C37.9673 52.3374 37.5251 52.7796 37.5251 53.3249V56.2874H34.5626V50.3624H62.2126V56.2874H59.2501V53.3249C59.2501 53.0631 59.1461 52.8118 58.961 52.6266C58.7758 52.4415 58.5245 52.3374 58.2626 52.3374ZM49.3751 56.2874H47.4001V54.3124H49.3751V56.2874ZM41.4751 56.2874H39.5001V54.3124H41.4751V56.2874ZM44.5461 42.9071L44.8128 43.4502H42.0875L42.3543 42.9071C42.4244 42.7695 42.4618 42.6175 42.4627 42.4627V40.4877H44.4377V42.4627C44.4386 42.6175 44.4761 42.7696 44.5462 42.9071H44.5461ZM41.4751 45.4252H45.4251V48.3877H41.4751V45.4252ZM54.421 42.9071L54.6877 43.4502H51.9624L52.2291 42.9071C52.2992 42.7695 52.3367 42.6175 52.3376 42.4627V40.4877H54.3126V42.4627C54.3135 42.6175 54.3509 42.7696 54.421 42.9071H54.421ZM51.35 45.4252H55.3V48.3877H51.35V45.4252ZM34.5625 60.2377V58.2627H62.2125V60.2377H34.5625Z" fill="#222222"/>
<path d="M29.6252 34.5624H15.8002C15.2549 34.5624 14.8127 35.0046 14.8127 35.5499V39.4999C14.8127 39.7618 14.9168 40.0131 15.1019 40.1982C15.2871 40.3834 15.5384 40.4874 15.8002 40.4874H29.6252C29.8871 40.4874 30.1384 40.3834 30.3235 40.1982C30.5087 40.0131 30.6127 39.7618 30.6127 39.4999V35.5499C30.6127 35.2881 30.5087 35.0368 30.3235 34.8516C30.1384 34.6665 29.8871 34.5624 29.6252 34.5624ZM28.6377 38.5124H16.7877V36.5374H28.6377V38.5124Z" fill="#222222"/>
<path d="M18.7627 52.3375H20.7377V56.2875H18.7627V52.3375Z" fill="#222222"/>
</svg>
