<svg width="79" height="79" viewBox="0 0 79 79" fill="none" xmlns="http://www.w3.org/2000/svg">
<path d="M26.1128 42.3871C26.9834 42.3871 27.9397 41.9114 28.5066 41.2229L30.0799 46.48C30.426 47.635 31.2878 47.7779 31.544 47.7938C31.8001 47.8079 32.673 47.777 33.1619 46.6736L36.6133 38.8587L40.6841 52.4275C41.0302 53.579 41.8906 53.7235 42.1482 53.7399C42.1702 53.7412 42.1989 53.7434 42.2328 53.7434C42.5573 53.7434 43.3204 53.6275 43.7701 52.6303L48.3152 42.5305C48.3531 42.4767 48.4734 42.3995 48.5387 42.3863H54.0409C54.7502 42.3863 55.326 41.811 55.326 41.1012C55.326 40.3914 54.7507 39.8166 54.0409 39.8166H48.5276C47.4779 39.8166 46.4049 40.5104 45.9756 41.4657L42.4377 49.3269L38.3555 35.7231C38.0107 34.5694 37.1462 34.4271 36.8901 34.4107C36.634 34.3953 35.7611 34.4288 35.2735 35.5309L31.8235 43.3423L30.4997 38.921C30.2801 38.1813 29.7525 37.687 29.0925 37.5975C28.4532 37.5111 27.8369 37.8224 27.4265 38.4303L26.5611 39.528L26.5245 39.5884C26.4579 39.6801 26.223 39.8093 26.1127 39.8172L12.2415 39.8176V39.837C11.6362 39.9393 11.1729 40.4666 11.1729 41.1018C11.1729 41.738 11.6353 42.2639 12.2406 42.3671V42.3865L26.1128 42.3871Z" fill="#222222"/>
<path d="M63.3781 19.3947C60.5329 16.5499 56.7487 14.9818 52.7246 14.9818C48.7006 14.9818 44.9185 16.549 42.0712 19.3947L40.1248 21.3429L38.1767 19.3947C35.3328 16.5499 31.5486 14.9818 27.5232 14.9818C23.4992 14.9818 19.7157 16.549 16.8709 19.3947C14.0244 22.2409 12.458 26.0246 12.458 30.0482C12.458 32.859 13.2216 35.5514 14.6539 37.8895H17.7945C16.0029 35.6743 15.0295 32.9375 15.0295 30.0486C15.0295 26.7105 16.3273 23.5729 18.6885 21.2131C21.0497 18.8519 24.1863 17.5536 27.524 17.5536C30.8616 17.5536 33.9996 18.8523 36.3595 21.2131L40.1247 24.9766L43.8874 21.2131C46.2486 18.8519 49.3866 17.5536 52.7242 17.5536C56.0618 17.5536 59.1998 18.8523 61.5597 21.2131C63.9209 23.5729 65.2201 26.7109 65.2201 30.0486C65.2201 33.3862 63.9209 36.5242 61.5584 38.8845L40.1257 60.3206L24.1181 44.314H20.4837L40.1254 63.9534L63.3785 40.7003C66.2237 37.8556 67.7914 34.0718 67.7914 30.0476C67.7914 26.0235 66.2237 22.2402 63.3785 19.3942L63.3781 19.3947Z" fill="#222222"/>
</svg>
