<svg width="79" height="79" viewBox="0 0 79 79" fill="none" xmlns="http://www.w3.org/2000/svg">
<path d="M24.139 19L23.7638 19.5136L13.6516 33.4176L13 34.3262L13.8098 35.0765L39.0898 59.0925L39.9588 59.9217L40.8277 59.0925L66.1077 35.0765L66.9175 34.3262L66.2659 33.4176L56.1537 19.5136L55.7785 19H24.139ZM26.6276 21.5278H38.1221L32.3747 31.6003L26.6276 21.5278ZM41.7956 21.5278H53.2901L47.5427 31.6003L41.7956 21.5278ZM24.4551 22.871L30.2024 32.9038H17.1674L24.4551 22.871ZM55.4626 22.871L62.7502 32.9038H49.7152L55.4626 22.871ZM39.9583 23.4635L45.3696 32.9038H34.5666L39.9583 23.4635ZM17.8383 35.432H31.2479L37.4692 54.076L17.8383 35.432ZM33.9339 35.432H45.9814L39.9577 53.523L33.9339 35.432ZM48.6674 35.432H62.0771L42.4659 54.0568L48.6674 35.432Z" fill="#222222"/>
</svg>
