<svg width="61" height="61" viewBox="0 0 61 61" fill="none" xmlns="http://www.w3.org/2000/svg">
<path d="M4.9532 21.542V21.4603L4.87316 21.444C2.66824 20.9949 1.0032 19.0406 1.0032 16.7042V3.86667C1.0032 2.28852 2.28755 1.00417 3.8657 1.00417C4.60027 1.00417 5.26508 1.29073 5.77379 1.74866L5.8407 1.80888L5.9076 1.74866C6.41629 1.29073 7.08113 1.00417 7.8157 1.00417C8.55027 1.00417 9.21508 1.29073 9.72379 1.74866L9.7907 1.80888L9.8576 1.74866C10.3663 1.29073 11.0311 1.00417 11.7657 1.00417C13.3439 1.00417 14.6282 2.28852 14.6282 3.86667V16.7042C14.6282 19.0397 12.9631 20.9953 10.7583 21.444L10.6782 21.4603V21.542V57.1913C10.6782 58.7695 9.39385 60.0538 7.8157 60.0538C6.23755 60.0538 4.9532 58.7695 4.9532 57.1913V21.542ZM3.8657 2.77884C3.26553 2.77884 2.7782 3.26716 2.7782 3.86634V16.7038C2.7782 18.3924 4.15209 19.7663 5.8407 19.7663C6.33159 19.7663 6.7282 20.1641 6.7282 20.6538V57.1913C6.7282 57.7905 7.21553 58.2788 7.8157 58.2788C8.41587 58.2788 8.9032 57.7905 8.9032 57.1913V20.6538C8.9032 20.1641 9.29981 19.7663 9.7907 19.7663C11.4793 19.7663 12.8532 18.3924 12.8532 16.7038V3.86634C12.8532 3.26716 12.3659 2.77884 11.7657 2.77884C11.1655 2.77884 10.6782 3.26716 10.6782 3.86634V14.6288H8.9032V3.86634C8.9032 3.26716 8.41587 2.77884 7.8157 2.77884C7.21553 2.77884 6.7282 3.26716 6.7282 3.86634V14.6288H4.9532V3.86634C4.9532 3.26716 4.46587 2.77884 3.8657 2.77884Z" fill="#222222" stroke="#ECFDF3" stroke-width="0.2"/>
<path d="M58.8365 1.06678L58.8366 1.06671C59.1014 0.960182 59.4034 0.98873 59.6455 1.14432L59.6635 1.15658C59.9065 1.3219 60.0531 1.59698 60.0531 1.89167V57.1917C60.0531 58.7698 58.7688 60.0542 57.1906 60.0542C55.6124 60.0542 54.3281 58.7698 54.3281 57.1917V34.8256V34.7906L54.3062 34.7632L50.5727 30.0951C50.4253 29.9104 50.3572 29.6747 50.3845 29.4395L50.3845 29.4394L52.7378 9.04724L52.7378 9.04722C53.1503 5.46475 55.4874 2.40698 58.8365 1.06678ZM52.1939 29.2341L52.1891 29.2755L52.2151 29.308L55.9086 33.9245C55.9086 33.9245 55.9086 33.9246 55.9086 33.9246C56.035 34.0827 56.1032 34.278 56.1032 34.4793V57.1918C56.1032 57.791 56.5905 58.2793 57.1907 58.2793C57.7908 58.2793 58.2782 57.791 58.2782 57.1918V3.50713V3.32378L58.124 3.42306C56.1258 4.71011 54.7781 6.83497 54.4996 9.25048L52.1939 29.2341Z" fill="#222222" stroke="#ECFDF3" stroke-width="0.2"/>
<path d="M24.6705 37.2533L24.5277 37.4186L13.0682 50.685L13.0681 50.685C12.8412 50.9476 12.7884 51.3184 12.9335 51.6347L12.9335 51.6347C13.0782 51.9506 13.3923 52.153 13.7402 52.153H18.4061H18.6247L18.4818 52.3184L13.0681 58.585L13.0681 58.585C12.8412 58.8476 12.7884 59.2184 12.9335 59.5346L12.9335 59.5347C13.0782 59.8506 13.3923 60.053 13.7402 60.053H51.2652C51.613 60.053 51.9271 59.8506 52.0718 59.5347L52.0718 59.5346C52.2164 59.2197 52.1642 58.8485 51.9372 58.585L24.6705 37.2533ZM24.6705 37.2533H24.4764C19.1751 34.3464 15.8146 28.7434 15.8146 22.6288C15.8146 13.4272 23.3004 5.94131 32.5021 5.94131C41.7037 5.94131 49.1896 13.4272 49.1896 22.6288C49.1896 28.7516 45.8197 34.3619 40.5054 37.2655L40.3967 37.3249L40.4776 37.4186L51.9371 50.6849L24.6705 37.2533ZM29.8814 31.2198L29.8189 31.2003C26.0808 30.0359 23.5163 26.5945 23.5163 22.629C23.5163 17.6738 27.5476 13.6415 32.5038 13.6415C37.46 13.6415 41.4913 17.6738 41.4913 22.629C41.4913 26.5944 38.9268 30.0358 35.1887 31.2011L35.1261 31.2206L35.0833 31.171L33.1759 28.9613C32.8398 28.574 32.1684 28.5739 31.8322 28.9611L29.8814 31.2198ZM29.8814 31.2198L29.9243 31.1702L31.8321 28.9613L29.8814 31.2198ZM46.5235 52.3184L51.9371 58.5849L51.9372 50.685C52.1642 50.9486 52.2164 51.3198 52.0718 51.6346L52.0718 51.6347C51.9271 51.9506 51.613 52.153 51.2652 52.153H46.5992H46.3807L46.5235 52.3184ZM49.1068 58.2788H49.3252L49.1824 58.1135L44.066 52.1885L44.036 52.1538H43.9903H21.0171H20.9713L20.9414 52.1884L15.824 58.1134L15.6812 58.2788H15.8997H49.1068ZM15.8229 50.2135L15.6801 50.3788H15.8985H49.1079H49.3264L49.1836 50.2135L32.5789 30.9871L32.5032 30.8995L32.4275 30.9871L15.8229 50.2135ZM39.151 35.8804L39.2022 35.9397L39.2721 35.9041C44.2398 33.3739 47.4163 28.2461 47.4163 22.6288C47.4163 14.406 40.7266 7.71631 32.5038 7.71631C24.281 7.71631 17.5913 14.406 17.5913 22.6288C17.5913 28.2461 20.7678 33.3739 25.7355 35.9041L25.8053 35.9397L25.8566 35.8804L28.5418 32.7715L28.6336 32.6652L28.5031 32.6133C24.4571 31.0011 21.7413 27.0942 21.7413 22.6288C21.7413 16.6947 26.5697 11.8663 32.5038 11.8663C38.4379 11.8663 43.2663 16.6947 43.2663 22.6288C43.2663 27.0942 40.5505 31.0011 36.5045 32.6133L36.374 32.6652L36.4658 32.7715L39.151 35.8804Z" fill="#222222" stroke="#ECFDF3" stroke-width="0.2"/>
<path d="M27.7657 54.4288H29.3407V56.0038H27.7657V54.4288Z" stroke="#222222" stroke-width="0.4"/>
<path d="M31.7157 54.4288H33.2907V56.0038H31.7157V54.4288Z" stroke="#222222" stroke-width="0.4"/>
<path d="M35.6657 54.4288H37.2407V56.0038H35.6657V54.4288Z" stroke="#222222" stroke-width="0.4"/>
</svg>
