<svg width="228" height="228" viewBox="0 0 228 228" fill="none" xmlns="http://www.w3.org/2000/svg">
<circle cx="114" cy="114" r="113" fill="url(#paint0_linear_7_68)" fill-opacity="0.3" stroke="url(#paint1_linear_7_68)" stroke-width="2"/>
<path d="M70.024 129V97.92H76.744V129H70.024ZM92.8277 129.42C90.5037 129.42 88.4317 128.916 86.6117 127.908C84.8197 126.9 83.3917 125.528 82.3277 123.792C81.2917 122.056 80.7737 120.068 80.7737 117.828C80.7737 115.588 81.2917 113.6 82.3277 111.864C83.3917 110.128 84.8197 108.756 86.6117 107.748C88.4317 106.74 90.5037 106.236 92.8277 106.236C95.1517 106.236 97.2097 106.74 99.0017 107.748C100.822 108.756 102.25 110.128 103.286 111.864C104.322 113.6 104.84 115.588 104.84 117.828C104.84 120.068 104.322 122.056 103.286 123.792C102.25 125.528 100.822 126.9 99.0017 127.908C97.2097 128.916 95.1517 129.42 92.8277 129.42ZM92.8277 123.624C93.8357 123.624 94.7317 123.372 95.5157 122.868C96.2997 122.364 96.9157 121.678 97.3637 120.81C97.8117 119.942 98.0217 118.948 97.9937 117.828C98.0217 116.708 97.8117 115.714 97.3637 114.846C96.9157 113.95 96.2997 113.25 95.5157 112.746C94.7317 112.242 93.8357 111.99 92.8277 111.99C91.8197 111.99 90.9097 112.242 90.0977 112.746C89.3137 113.25 88.6977 113.95 88.2497 114.846C87.8017 115.714 87.5917 116.708 87.6197 117.828C87.5917 118.948 87.8017 119.942 88.2497 120.81C88.6977 121.678 89.3137 122.364 90.0977 122.868C90.9097 123.372 91.8197 123.624 92.8277 123.624ZM119.44 138.66C117.62 138.66 115.8 138.394 113.98 137.862C112.188 137.33 110.732 136.644 109.612 135.804L111.964 131.1C112.552 131.492 113.196 131.828 113.896 132.108C114.624 132.416 115.38 132.654 116.164 132.822C116.948 132.99 117.746 133.074 118.558 133.074C119.986 133.074 121.148 132.864 122.044 132.444C122.94 132.024 123.612 131.38 124.06 130.512C124.508 129.672 124.732 128.608 124.732 127.32V123.582L126.034 123.792C125.838 124.716 125.348 125.556 124.564 126.312C123.808 127.068 122.87 127.684 121.75 128.16C120.63 128.608 119.44 128.832 118.18 128.832C116.164 128.832 114.358 128.37 112.762 127.446C111.194 126.494 109.948 125.192 109.024 123.54C108.128 121.86 107.68 119.928 107.68 117.744C107.68 115.504 108.128 113.53 109.024 111.822C109.92 110.086 111.152 108.728 112.72 107.748C114.288 106.74 116.052 106.236 118.012 106.236C118.852 106.236 119.65 106.334 120.406 106.53C121.19 106.726 121.904 106.992 122.548 107.328C123.22 107.636 123.808 108.014 124.312 108.462C124.844 108.882 125.264 109.344 125.572 109.848C125.908 110.352 126.132 110.87 126.244 111.402L124.858 111.738L125.11 106.698H131.494V127.194C131.494 129.014 131.214 130.624 130.654 132.024C130.122 133.452 129.324 134.656 128.26 135.636C127.224 136.644 125.964 137.4 124.48 137.904C122.996 138.408 121.316 138.66 119.44 138.66ZM119.608 123.624C120.7 123.624 121.638 123.386 122.422 122.91C123.234 122.406 123.85 121.72 124.27 120.852C124.718 119.984 124.942 118.962 124.942 117.786C124.942 116.61 124.718 115.588 124.27 114.72C123.85 113.824 123.234 113.138 122.422 112.662C121.638 112.158 120.7 111.906 119.608 111.906C118.544 111.906 117.62 112.158 116.836 112.662C116.052 113.138 115.436 113.824 114.988 114.72C114.568 115.588 114.358 116.61 114.358 117.786C114.358 118.962 114.568 119.984 114.988 120.852C115.436 121.72 116.052 122.406 116.836 122.91C117.62 123.386 118.544 123.624 119.608 123.624ZM147.83 129.42C145.506 129.42 143.434 128.916 141.614 127.908C139.822 126.9 138.394 125.528 137.33 123.792C136.294 122.056 135.776 120.068 135.776 117.828C135.776 115.588 136.294 113.6 137.33 111.864C138.394 110.128 139.822 108.756 141.614 107.748C143.434 106.74 145.506 106.236 147.83 106.236C150.154 106.236 152.212 106.74 154.004 107.748C155.824 108.756 157.252 110.128 158.288 111.864C159.324 113.6 159.842 115.588 159.842 117.828C159.842 120.068 159.324 122.056 158.288 123.792C157.252 125.528 155.824 126.9 154.004 127.908C152.212 128.916 150.154 129.42 147.83 129.42ZM147.83 123.624C148.838 123.624 149.734 123.372 150.518 122.868C151.302 122.364 151.918 121.678 152.366 120.81C152.814 119.942 153.024 118.948 152.996 117.828C153.024 116.708 152.814 115.714 152.366 114.846C151.918 113.95 151.302 113.25 150.518 112.746C149.734 112.242 148.838 111.99 147.83 111.99C146.822 111.99 145.912 112.242 145.1 112.746C144.316 113.25 143.7 113.95 143.252 114.846C142.804 115.714 142.594 116.708 142.622 117.828C142.594 118.948 142.804 119.942 143.252 120.81C143.7 121.678 144.316 122.364 145.1 122.868C145.912 123.372 146.822 123.624 147.83 123.624Z" fill="#222222"/>
<defs>
<linearGradient id="paint0_linear_7_68" x1="114" y1="0" x2="114" y2="228" gradientUnits="userSpaceOnUse">
<stop stop-color="#00A1C6"/>
<stop offset="1" stop-color="#00A1C6" stop-opacity="0"/>
</linearGradient>
<linearGradient id="paint1_linear_7_68" x1="18" y1="-20.5" x2="183.5" y2="253" gradientUnits="userSpaceOnUse">
<stop stop-color="#00A1C6" stop-opacity="0.5"/>
<stop offset="1" stop-color="#00A1C6" stop-opacity="0"/>
</linearGradient>
</defs>
</svg>
