<svg width="41" height="64" viewBox="0 0 41 64" fill="none" xmlns="http://www.w3.org/2000/svg">
<path d="M36.3945 -6.10352e-05H4.54937C2.04108 -6.10352e-05 6.10352e-05 2.04095 6.10352e-05 4.54925V59.141C6.10352e-05 61.6493 2.04108 63.6903 4.54937 63.6903H36.3945C38.9028 63.6903 40.9438 61.6493 40.9438 59.141V4.54925C40.9438 2.04095 38.9028 -6.10352e-05 36.3945 -6.10352e-05ZM38.6692 59.141C38.6692 60.3957 37.6493 61.4156 36.3945 61.4156H4.54937C3.29462 61.4156 2.27472 60.3957 2.27472 59.141V4.54925C2.27472 3.2945 3.29462 2.27459 4.54937 2.27459H36.3945C37.6493 2.27459 38.6692 3.2945 38.6692 4.54925V59.141Z" fill="black"/>
<path d="M34.1198 9.09866H6.82391C5.56916 9.09866 4.54926 10.1186 4.54926 11.3733V48.9051C4.54926 50.1599 5.56916 51.1798 6.82391 51.1798H34.1198C35.3745 51.1798 36.3944 50.1599 36.3944 48.9051V11.3733C36.3944 10.1186 35.3745 9.09866 34.1198 9.09866ZM6.82391 48.9051V11.3733H34.1198L34.1217 48.9051H6.82391Z" fill="black"/>
<path d="M14.7853 6.82379H26.1586C26.7869 6.82379 27.2959 6.31479 27.2959 5.68646C27.2959 5.05814 26.7869 4.54913 26.1586 4.54913H14.7853C14.157 4.54913 13.6479 5.05814 13.6479 5.68646C13.6479 6.31479 14.157 6.82379 14.7853 6.82379Z" fill="black"/>
<path d="M20.4721 52.3171C18.2774 52.3171 16.4914 54.1031 16.4914 56.2978C16.4914 58.4925 18.2774 60.2784 20.4721 60.2784C22.6668 60.2784 24.4527 58.4925 24.4527 56.2978C24.4527 54.1031 22.6668 52.3171 20.4721 52.3171ZM20.4721 58.0038C19.5315 58.0038 18.7661 57.2384 18.7661 56.2978C18.7661 55.3572 19.5315 54.5918 20.4721 54.5918C21.4127 54.5918 22.1781 55.3572 22.1781 56.2978C22.1781 57.2384 21.4127 58.0038 20.4721 58.0038Z" fill="black"/>
</svg>
