<svg width="79" height="79" viewBox="0 0 79 79" fill="none" xmlns="http://www.w3.org/2000/svg">
<path d="M40.7885 9.20556C40.7934 8.81629 40.6263 8.44509 40.3314 8.19116C40.0369 7.93724 39.645 7.82658 39.261 7.88874L23.461 10.5219C22.8169 10.6264 22.3465 11.1863 22.3549 11.8387V19.1594C21.5596 18.6807 20.6497 18.4259 19.7217 18.4219C18.3251 18.4219 16.9854 18.9769 15.9974 19.9644C15.0099 20.9524 14.4549 22.2921 14.4549 23.6887C14.4549 25.0853 15.0099 26.4251 15.9974 27.413C16.9854 28.4005 18.3251 28.9555 19.7217 28.9555C21.1183 28.9555 22.458 28.4005 23.446 27.413C24.4335 26.4251 24.9885 25.0853 24.9885 23.6887V12.958L38.1544 10.7591V17.1845C37.3592 16.7058 36.4493 16.451 35.5213 16.447C34.1247 16.447 32.7849 17.002 31.797 17.9895C30.8095 18.9775 30.2544 20.3172 30.2544 21.7138C30.2544 23.1104 30.8095 24.4501 31.797 25.4381C32.7849 26.4256 34.1247 26.9806 35.5213 26.9806C36.9179 26.9806 38.2576 26.4256 39.2455 25.4381C40.233 24.4502 40.7881 23.1104 40.7881 21.7138C40.8009 21.4947 40.8009 21.2747 40.7881 21.0556L40.7885 9.20556ZM19.7215 26.3215C19.0232 26.3215 18.3531 26.0442 17.8593 25.5504C17.3656 25.0567 17.0883 24.3867 17.0883 23.6883C17.0883 22.9899 17.3656 22.3199 17.8593 21.8261C18.3531 21.3324 19.0231 21.0551 19.7215 21.0551C20.4198 21.0551 21.0899 21.3324 21.5836 21.8261C22.0774 22.3199 22.3547 22.9899 22.3547 23.6883C22.3547 24.3867 22.0774 25.0567 21.5836 25.5504C21.0899 26.0442 20.4198 26.3215 19.7215 26.3215ZM35.5215 24.3465C34.8232 24.3465 34.1531 24.0692 33.6593 23.5754C33.1656 23.0817 32.8883 22.4117 32.8883 21.7133C32.8883 21.0149 33.1656 20.3449 33.6593 19.8511C34.1531 19.3574 34.8231 19.0801 35.5215 19.0801C36.2198 19.0801 36.8899 19.3574 37.3836 19.8511C37.8774 20.3449 38.1547 21.0149 38.1547 21.7133C38.1547 22.4117 37.8774 23.0817 37.3836 23.5754C36.8899 24.0692 36.2198 24.3465 35.5215 24.3465ZM67.1215 31.5883V13.1553C67.1215 12.4279 66.5321 11.8385 65.8047 11.8385C65.0777 11.8385 64.4883 12.4279 64.4883 13.1553V31.5883H11.9928C10.8999 31.5883 9.85157 32.0225 9.07883 32.7953C8.30602 33.5681 7.87183 34.6165 7.87183 35.7093V66.9809C7.87535 68.0715 8.31091 69.1163 9.08369 69.8865C9.85606 70.6562 10.9022 71.0886 11.9928 71.0886H66.9644C68.0537 71.0886 69.0985 70.6557 69.8691 69.8856C70.6393 69.115 71.0722 68.0702 71.0722 66.9809V35.7093C71.073 34.6455 70.6626 33.6223 69.9264 32.8543C69.1902 32.0859 68.1851 31.6323 67.1222 31.5882L67.1215 31.5883ZM68.4383 66.9668C68.4418 67.36 68.288 67.7387 68.0111 68.0177C67.7338 68.2972 67.3569 68.4546 66.9637 68.4546H11.9921C11.5988 68.4581 11.2202 68.3043 10.9411 68.0274C10.6616 67.7501 10.5042 67.3732 10.5042 66.98V35.7084C10.5007 35.3129 10.6563 34.9325 10.9362 34.6526C11.2162 34.3726 11.5966 34.217 11.9921 34.2205H66.9637C67.3569 34.2205 67.7338 34.3779 68.0111 34.6574C68.288 34.9365 68.4418 35.3151 68.4383 35.7084V66.9668ZM28.9383 36.8542C25.0968 36.8542 21.413 38.38 18.697 41.0961C15.981 43.8121 14.4547 47.4963 14.4547 51.3374C14.4547 55.1785 15.9808 58.8627 18.697 61.5787C21.4131 64.2947 25.0968 65.8206 28.9383 65.8206C32.7794 65.8206 36.4632 64.2947 39.1792 61.5787C41.8957 58.8627 43.4215 55.1785 43.4215 51.3374C43.4215 47.4963 41.8957 43.8121 39.1792 41.0961C36.4632 38.38 32.7794 36.8542 28.9383 36.8542V36.8542ZM28.9383 63.1872C25.7955 63.1872 22.7814 61.9387 20.5591 59.7164C18.3368 57.494 17.0883 54.48 17.0883 51.3372C17.0883 48.1943 18.3367 45.1802 20.5591 42.958C22.7815 40.7357 25.7955 39.4872 28.9383 39.4872C32.0812 39.4872 35.0952 40.7356 37.3175 42.958C39.5398 45.1802 40.7883 48.1943 40.7883 51.3372C40.7883 54.48 39.5399 57.4941 37.3175 59.7164C35.0952 61.9386 32.0812 63.1872 28.9383 63.1872ZM28.9383 44.7542C27.1921 44.7542 25.5177 45.4477 24.2829 46.6825C23.0485 47.9169 22.3547 49.5912 22.3547 51.3374C22.3547 53.0836 23.0486 54.758 24.2829 55.9923C25.5177 57.2271 27.1921 57.9206 28.9383 57.9206C30.6841 57.9206 32.3589 57.2271 33.5932 55.9923C34.828 54.7579 35.5215 53.0836 35.5215 51.3374C35.5215 49.5912 34.828 47.9168 33.5932 46.6825C32.3588 45.4477 30.6841 44.7542 28.9383 44.7542ZM28.9383 55.2874C27.8904 55.2874 26.8857 54.8712 26.1451 54.1306C25.4045 53.3895 24.9883 52.3848 24.9883 51.3374C24.9883 50.29 25.4045 49.2852 26.1451 48.5442C26.8857 47.8035 27.8904 47.3874 28.9383 47.3874C29.9858 47.3874 30.9905 47.8035 31.7311 48.5442C32.4721 49.2852 32.8883 50.29 32.8883 51.3374C32.8883 52.3848 32.4721 53.3896 31.7311 54.1306C30.9904 54.8712 29.9857 55.2874 28.9383 55.2874ZM64.4883 43.4374C64.4883 43.7865 64.3494 44.1216 64.1026 44.3685C63.8557 44.6153 63.5206 44.7542 63.1715 44.7542H52.6383C51.9109 44.7542 51.3215 44.1643 51.3215 43.4374C51.3215 42.7104 51.9109 42.1206 52.6383 42.1206H63.1715C63.5206 42.1206 63.8557 42.2594 64.1026 42.5063C64.3494 42.7532 64.4883 43.0882 64.4883 43.4374ZM64.4883 48.7042C64.4883 49.0534 64.3494 49.388 64.1026 49.6353C63.8557 49.8822 63.5206 50.0206 63.1715 50.0206H52.6383C51.9109 50.0206 51.3215 49.4312 51.3215 48.7042C51.3215 47.9768 51.9109 47.3874 52.6383 47.3874H63.1715C63.5206 47.3874 63.8557 47.5263 64.1026 47.7731C64.3494 48.02 64.4883 48.3551 64.4883 48.7042V48.7042ZM64.4883 53.971V53.9706C64.4883 54.3197 64.3494 54.6548 64.1026 54.9017C63.8557 55.1485 63.5206 55.2874 63.1715 55.2874H52.6383C51.9109 55.2874 51.3215 54.698 51.3215 53.9706C51.3215 53.2436 51.9109 52.6542 52.6383 52.6542H63.1715C63.5206 52.6542 63.8557 52.7926 64.1026 53.0395C64.3494 53.2868 64.4883 53.6214 64.4883 53.9706V53.971ZM64.4883 59.2378V59.2374C64.4883 59.5866 64.3494 59.9216 64.1026 60.1685C63.8557 60.4153 63.5206 60.5542 63.1715 60.5542H52.6383C51.9109 60.5542 51.3215 59.9644 51.3215 59.2374C51.3215 58.5104 51.9109 57.9206 52.6383 57.9206H63.1715C63.5206 57.9206 63.8557 58.0595 64.1026 58.3063C64.3494 58.5532 64.4883 58.8882 64.4883 59.2374V59.2378Z" fill="#222222"/>
</svg>
