<svg width="79" height="79" viewBox="0 0 79 79" fill="none" xmlns="http://www.w3.org/2000/svg">
<path d="M67.1271 61.9834H63.756L66.6792 54.2558C69.7342 53.0073 70.0085 48.5301 67.0707 46.9513L61.6764 40.7971L65.9407 36.5328C66.3265 36.147 66.3265 35.5224 65.9407 35.1362L65.1684 34.3638C69.1801 30.5438 63.1899 24.5686 59.3664 28.5627L59.2782 28.475V10.8907C59.2782 10.345 58.8365 9.90323 58.2907 9.90323H17.8032C17.2574 9.90323 16.8157 10.345 16.8157 10.8907V20.3795C13.8413 21.5786 11.8782 24.4102 11.8782 27.6782V31.6282H10.8907C10.3449 31.6282 9.9032 32.07 9.9032 32.6157V48.4157C9.9032 48.9615 10.3449 49.4032 10.8907 49.4032H13.9471L15.8331 68.2639C15.8833 68.7682 16.3083 69.1531 16.8157 69.1531H22.7407C23.2481 69.1531 23.6731 68.7682 23.7233 68.2639L24.3255 62.2406H46.441C46.9868 62.2406 47.4285 61.7989 47.4285 61.2531C47.4285 60.7074 46.9868 60.2656 46.441 60.2656H24.523C24.7633 57.8616 25.377 51.7264 25.6093 49.4031H28.6657C29.2115 49.4031 29.6532 48.9614 29.6532 48.4156V32.6156C29.6532 32.0698 29.2115 31.6281 28.6657 31.6281H27.6782V27.6781C27.7906 23.058 23.3579 19.1565 18.7907 19.8389V11.8781H57.3032V27.7199C57.1639 27.7551 45.5706 39.4627 45.4554 39.5417C45.071 39.9261 45.0701 40.5503 45.4537 40.936L46.3751 41.8587L44.5645 44.8732C44.3313 45.2621 44.393 45.7593 44.7131 46.0798L47.6535 49.0203C47.9749 49.343 48.4744 49.4003 48.8601 49.1688L51.8698 47.3613L52.7925 48.2853C53.1597 48.668 53.8214 48.668 54.1891 48.2853L57.3107 45.1637L61.0345 49.6944C60.8824 50.3605 60.9411 51.0817 61.1571 51.7306L56.5644 61.9835H51.5422C50.9965 61.9835 50.5547 62.4252 50.5547 62.971L50.5543 68.1664C50.5543 68.7121 50.996 69.1539 51.5418 69.1539H67.1262C67.672 69.1539 68.1137 68.7121 68.1137 68.1664V62.9714C68.1137 62.4257 67.672 61.9839 67.1262 61.9839L67.1271 61.9834ZM60.9138 29.809C62.9033 27.8939 65.9019 31.151 63.778 32.9623L60.7722 29.9504L60.9138 29.809ZM17.7098 67.1782L15.9323 49.4032H23.6242C23.1829 53.8192 22.2853 62.7949 21.8462 67.1782H17.7098ZM24.7157 47.4282H11.8782V33.6032H27.6782V37.5532H19.7782C19.2325 37.5532 18.7907 37.995 18.7907 38.5407C18.7907 39.0865 19.2325 39.5282 19.7782 39.5282H27.6782V47.4282H24.7157ZM23.9685 23.4879C25.0869 24.6076 25.7032 26.0954 25.7032 27.6781V31.6281H13.8532V27.6781C13.7589 22.4735 20.354 19.7645 23.9685 23.4879V23.4879ZM48.5048 47.0773L46.6563 45.2288L47.8105 43.3058L50.4277 45.9231L48.5048 47.0773ZM65.6083 52.5517C64.0375 53.0362 62.4068 51.3328 63.0567 49.781C63.7422 47.7857 66.6853 47.9876 67.1359 50.0569C67.3621 51.1392 66.7047 52.2542 65.6084 52.5517L65.6083 52.5517ZM53.4908 46.1899L47.5473 40.2406L57.8957 29.8846L63.8459 35.8348L53.4908 46.1899V46.1899ZM60.2768 42.1966L64.0645 46.5187C63.2749 46.7308 62.552 47.154 61.9978 47.7571L58.7131 43.7608L60.2768 42.1966ZM62.4497 53.6776C63.0299 54.1339 63.7168 54.4561 64.4507 54.5628L61.6443 61.9827H58.7289L62.4497 53.6776ZM66.1391 67.1776H52.5297V63.9576H66.1391V67.1776Z" fill="#222222"/>
<path d="M32.6154 51.3783H41.5029C42.7985 51.3575 42.803 49.4248 41.5029 49.4033H32.6154C31.3198 49.424 31.3152 51.3567 32.6154 51.3783Z" fill="#222222"/>
<path d="M32.6154 56.3158H42.4904C43.0361 56.3158 43.4779 55.874 43.4779 55.3283C43.4779 54.7825 43.0361 54.3408 42.4904 54.3408H32.6154C31.3201 54.3615 31.3149 56.2942 32.6154 56.3158Z" fill="#222222"/>
<path d="M49.4029 54.3408H46.4404C45.143 54.3619 45.1416 56.2942 46.4404 56.3158H49.4029C50.7003 56.2946 50.7016 54.3623 49.4029 54.3408Z" fill="#222222"/>
<path d="M47.4279 31.6283V23.7283C47.4279 23.1825 46.9861 22.7408 46.4404 22.7408H42.4904V15.8283C42.4904 15.2825 42.0486 14.8408 41.5029 14.8408H31.6279C31.0821 14.8408 30.6404 15.2825 30.6404 15.8283V23.7283C30.6404 24.274 31.0821 24.7158 31.6279 24.7158H35.5779V31.6283C35.5779 32.174 36.0196 32.6158 36.5654 32.6158H46.4404C46.9861 32.6158 47.4279 32.174 47.4279 31.6283ZM32.6154 16.8158H40.5154V22.7408H32.6154V16.8158ZM45.4529 30.6408H37.5529V24.7158H45.4529V30.6408Z" fill="#222222"/>
</svg>
