<svg width="270" height="240" viewBox="0 0 270 240" fill="none" xmlns="http://www.w3.org/2000/svg">
<path d="M92.2912 237V228.6H93.4552L98.5912 235.476L98.3992 235.584C98.3672 235.384 98.3392 235.168 98.3152 234.936C98.2912 234.696 98.2672 234.444 98.2432 234.18C98.2272 233.908 98.2112 233.624 98.1952 233.328C98.1872 233.024 98.1792 232.708 98.1712 232.38C98.1632 232.052 98.1592 231.712 98.1592 231.36V228.6H99.4552V237H98.2672L93.2152 230.376L93.3472 230.208C93.3872 230.696 93.4192 231.112 93.4432 231.456C93.4752 231.792 93.4992 232.08 93.5152 232.32C93.5392 232.552 93.5552 232.744 93.5632 232.896C93.5712 233.04 93.5752 233.16 93.5752 233.256C93.5832 233.352 93.5872 233.436 93.5872 233.508V237H92.2912ZM104.327 237.12C103.711 237.12 103.159 236.98 102.671 236.7C102.191 236.412 101.811 236.024 101.531 235.536C101.251 235.04 101.111 234.476 101.111 233.844C101.111 233.212 101.251 232.652 101.531 232.164C101.811 231.668 102.191 231.28 102.671 231C103.159 230.712 103.711 230.568 104.327 230.568C104.935 230.568 105.479 230.712 105.959 231C106.447 231.28 106.831 231.668 107.111 232.164C107.391 232.652 107.531 233.212 107.531 233.844C107.531 234.476 107.391 235.04 107.111 235.536C106.831 236.024 106.447 236.412 105.959 236.7C105.479 236.98 104.935 237.12 104.327 237.12ZM104.327 235.992C104.703 235.992 105.039 235.9 105.335 235.716C105.631 235.524 105.863 235.268 106.031 234.948C106.199 234.62 106.279 234.252 106.271 233.844C106.279 233.428 106.199 233.06 106.031 232.74C105.863 232.412 105.631 232.156 105.335 231.972C105.039 231.788 104.703 231.696 104.327 231.696C103.951 231.696 103.611 231.792 103.307 231.984C103.011 232.168 102.779 232.424 102.611 232.752C102.443 233.072 102.363 233.436 102.371 233.844C102.363 234.252 102.443 234.62 102.611 234.948C102.779 235.268 103.011 235.524 103.307 235.716C103.611 235.9 103.951 235.992 104.327 235.992ZM112.553 237V228.6H115.841C116.441 228.6 116.981 228.7 117.461 228.9C117.949 229.1 118.365 229.388 118.709 229.764C119.053 230.14 119.317 230.584 119.501 231.096C119.685 231.608 119.777 232.176 119.777 232.8C119.777 233.424 119.685 233.996 119.501 234.516C119.317 235.028 119.053 235.472 118.709 235.848C118.373 236.216 117.961 236.5 117.473 236.7C116.985 236.9 116.441 237 115.841 237H112.553ZM113.849 235.884L113.813 235.752H115.781C116.205 235.752 116.581 235.684 116.909 235.548C117.245 235.412 117.525 235.22 117.749 234.972C117.981 234.716 118.157 234.404 118.277 234.036C118.397 233.668 118.457 233.256 118.457 232.8C118.457 232.344 118.397 231.936 118.277 231.576C118.157 231.208 117.981 230.896 117.749 230.64C117.517 230.384 117.237 230.188 116.909 230.052C116.581 229.916 116.205 229.848 115.781 229.848H113.777L113.849 229.74V235.884ZM123.642 237.12C123.122 237.12 122.646 236.976 122.214 236.688C121.79 236.4 121.45 236.008 121.194 235.512C120.938 235.016 120.81 234.456 120.81 233.832C120.81 233.2 120.938 232.64 121.194 232.152C121.458 231.656 121.81 231.268 122.25 230.988C122.698 230.708 123.198 230.568 123.75 230.568C124.078 230.568 124.378 230.616 124.65 230.712C124.922 230.808 125.158 230.944 125.358 231.12C125.566 231.288 125.734 231.484 125.862 231.708C125.998 231.932 126.082 232.172 126.114 232.428L125.838 232.332V230.7H127.086V237H125.838V235.5L126.126 235.416C126.078 235.632 125.978 235.844 125.826 236.052C125.682 236.252 125.494 236.432 125.262 236.592C125.038 236.752 124.786 236.88 124.506 236.976C124.234 237.072 123.946 237.12 123.642 237.12ZM123.966 235.98C124.342 235.98 124.674 235.888 124.962 235.704C125.25 235.52 125.474 235.268 125.634 234.948C125.802 234.62 125.886 234.248 125.886 233.832C125.886 233.424 125.802 233.06 125.634 232.74C125.474 232.42 125.25 232.168 124.962 231.984C124.674 231.8 124.342 231.708 123.966 231.708C123.598 231.708 123.27 231.8 122.982 231.984C122.702 232.168 122.478 232.42 122.31 232.74C122.15 233.06 122.07 233.424 122.07 233.832C122.07 234.248 122.15 234.62 122.31 234.948C122.478 235.268 122.702 235.52 122.982 235.704C123.27 235.888 123.598 235.98 123.966 235.98ZM129.591 237V229.092H130.827V237H129.591ZM128.283 231.9V230.7H132.291V231.9H128.283ZM135.782 237.12C135.262 237.12 134.786 236.976 134.354 236.688C133.93 236.4 133.59 236.008 133.334 235.512C133.078 235.016 132.95 234.456 132.95 233.832C132.95 233.2 133.078 232.64 133.334 232.152C133.598 231.656 133.95 231.268 134.39 230.988C134.838 230.708 135.338 230.568 135.89 230.568C136.218 230.568 136.518 230.616 136.79 230.712C137.062 230.808 137.298 230.944 137.498 231.12C137.706 231.288 137.874 231.484 138.002 231.708C138.138 231.932 138.222 232.172 138.254 232.428L137.978 232.332V230.7H139.226V237H137.978V235.5L138.266 235.416C138.218 235.632 138.118 235.844 137.966 236.052C137.822 236.252 137.634 236.432 137.402 236.592C137.178 236.752 136.926 236.88 136.646 236.976C136.374 237.072 136.086 237.12 135.782 237.12ZM136.106 235.98C136.482 235.98 136.814 235.888 137.102 235.704C137.39 235.52 137.614 235.268 137.774 234.948C137.942 234.62 138.026 234.248 138.026 233.832C138.026 233.424 137.942 233.06 137.774 232.74C137.614 232.42 137.39 232.168 137.102 231.984C136.814 231.8 136.482 231.708 136.106 231.708C135.738 231.708 135.41 231.8 135.122 231.984C134.842 232.168 134.618 232.42 134.45 232.74C134.29 233.06 134.21 233.424 134.21 233.832C134.21 234.248 134.29 234.62 134.45 234.948C134.618 235.268 134.842 235.52 135.122 235.704C135.41 235.888 135.738 235.98 136.106 235.98ZM144.627 237V228.6H145.923V237H144.627ZM145.203 233.424V232.176H149.535V233.424H145.203ZM145.203 229.848V228.6H150.075V229.848H145.203ZM154.19 237.12C153.574 237.12 153.022 236.98 152.534 236.7C152.054 236.412 151.674 236.024 151.394 235.536C151.114 235.04 150.974 234.476 150.974 233.844C150.974 233.212 151.114 232.652 151.394 232.164C151.674 231.668 152.054 231.28 152.534 231C153.022 230.712 153.574 230.568 154.19 230.568C154.798 230.568 155.342 230.712 155.822 231C156.31 231.28 156.694 231.668 156.974 232.164C157.254 232.652 157.394 233.212 157.394 233.844C157.394 234.476 157.254 235.04 156.974 235.536C156.694 236.024 156.31 236.412 155.822 236.7C155.342 236.98 154.798 237.12 154.19 237.12ZM154.19 235.992C154.566 235.992 154.902 235.9 155.198 235.716C155.494 235.524 155.726 235.268 155.894 234.948C156.062 234.62 156.142 234.252 156.134 233.844C156.142 233.428 156.062 233.06 155.894 232.74C155.726 232.412 155.494 232.156 155.198 231.972C154.902 231.788 154.566 231.696 154.19 231.696C153.814 231.696 153.474 231.792 153.17 231.984C152.874 232.168 152.642 232.424 152.474 232.752C152.306 233.072 152.226 233.436 152.234 233.844C152.226 234.252 152.306 234.62 152.474 234.948C152.642 235.268 152.874 235.524 153.17 235.716C153.474 235.9 153.814 235.992 154.19 235.992ZM160.949 237.12C160.501 237.12 160.109 237.016 159.773 236.808C159.445 236.6 159.189 236.308 159.005 235.932C158.829 235.556 158.741 235.108 158.741 234.588V230.7H159.977V234.252C159.977 234.62 160.033 234.94 160.145 235.212C160.265 235.476 160.433 235.68 160.649 235.824C160.873 235.968 161.141 236.04 161.453 236.04C161.685 236.04 161.897 236.004 162.089 235.932C162.281 235.852 162.445 235.744 162.581 235.608C162.725 235.472 162.837 235.308 162.917 235.116C162.997 234.924 163.037 234.716 163.037 234.492V230.7H164.273V237H163.037V235.68L163.253 235.536C163.157 235.832 162.993 236.1 162.761 236.34C162.537 236.58 162.269 236.772 161.957 236.916C161.645 237.052 161.309 237.12 160.949 237.12ZM166.007 237V230.7H167.243V231.996L167.027 232.14C167.107 231.86 167.263 231.604 167.495 231.372C167.727 231.132 168.003 230.94 168.323 230.796C168.643 230.644 168.971 230.568 169.307 230.568C169.787 230.568 170.187 230.664 170.507 230.856C170.827 231.04 171.067 231.324 171.227 231.708C171.387 232.092 171.467 232.576 171.467 233.16V237H170.231V233.244C170.231 232.884 170.183 232.588 170.087 232.356C169.991 232.116 169.843 231.944 169.643 231.84C169.443 231.728 169.195 231.68 168.899 231.696C168.659 231.696 168.439 231.736 168.239 231.816C168.039 231.888 167.863 231.992 167.711 232.128C167.567 232.264 167.451 232.424 167.363 232.608C167.283 232.784 167.243 232.976 167.243 233.184V237H166.631C166.527 237 166.423 237 166.319 237C166.215 237 166.111 237 166.007 237ZM175.771 237.12C175.195 237.12 174.679 236.98 174.223 236.7C173.775 236.412 173.419 236.024 173.155 235.536C172.891 235.04 172.759 234.476 172.759 233.844C172.759 233.212 172.887 232.652 173.143 232.164C173.407 231.668 173.763 231.28 174.211 231C174.659 230.712 175.167 230.568 175.735 230.568C176.047 230.568 176.347 230.62 176.635 230.724C176.931 230.82 177.195 230.956 177.427 231.132C177.659 231.3 177.839 231.488 177.967 231.696C178.103 231.896 178.171 232.1 178.171 232.308L177.811 232.332V228.12H179.047V237H177.811V235.5H178.051C178.051 235.692 177.987 235.884 177.859 236.076C177.731 236.26 177.559 236.432 177.343 236.592C177.135 236.752 176.891 236.88 176.611 236.976C176.339 237.072 176.059 237.12 175.771 237.12ZM175.939 236.052C176.315 236.052 176.647 235.956 176.935 235.764C177.223 235.572 177.447 235.312 177.607 234.984C177.775 234.648 177.859 234.268 177.859 233.844C177.859 233.42 177.775 233.044 177.607 232.716C177.447 232.38 177.223 232.116 176.935 231.924C176.647 231.732 176.315 231.636 175.939 231.636C175.563 231.636 175.231 231.732 174.943 231.924C174.655 232.116 174.427 232.38 174.259 232.716C174.099 233.044 174.019 233.42 174.019 233.844C174.019 234.268 174.099 234.648 174.259 234.984C174.427 235.312 174.655 235.572 174.943 235.764C175.231 235.956 175.563 236.052 175.939 236.052Z" fill="#222222"/>
<ellipse cx="144" cy="184.5" rx="115" ry="21.5" fill="url(#paint0_linear_84_425)" fill-opacity="0.15"/>
<path d="M270 176.639H0V176.774H270V176.639Z" fill="#EBEBEB"/>
<path d="M242.946 185.319H225.061V185.453H242.946V185.319Z" fill="#EBEBEB"/>
<path d="M178.859 186.786H174.166V186.921H178.859V186.786Z" fill="#EBEBEB"/>
<path d="M224.521 180.313H214.159V180.447H224.521V180.313Z" fill="#EBEBEB"/>
<path d="M51.651 181.219H28.3284V181.354H51.651V181.219Z" fill="#EBEBEB"/>
<path d="M59.8806 181.219H56.4624V181.354H59.8806V181.219Z" fill="#EBEBEB"/>
<path d="M121.581 183.495H70.9938V183.63H121.581V183.495Z" fill="#EBEBEB"/>
<path d="M127.985 152.58H23.7168C22.0158 152.58 20.6334 151.199 20.6334 149.5V3.08019C20.6334 1.38096 22.0158 0 23.7168 0H127.991C129.692 0 131.074 1.38096 131.074 3.08019V149.5C131.069 151.199 129.686 152.58 127.985 152.58ZM23.7168 0.13486C22.0914 0.13486 20.7684 1.45648 20.7684 3.08019V149.5C20.7684 151.124 22.0914 152.445 23.7168 152.445H127.991C129.616 152.445 130.939 151.124 130.939 149.5V3.08019C130.939 1.45648 129.616 0.13486 127.991 0.13486H23.7168Z" fill="#EBEBEB"/>
<path d="M244.787 152.58H140.513C138.812 152.58 137.43 151.199 137.43 149.5V3.08019C137.43 1.38096 138.812 0 140.513 0H244.787C246.488 0 247.871 1.38096 247.871 3.08019V149.5C247.871 151.199 246.488 152.58 244.787 152.58ZM140.513 0.13486C138.888 0.13486 137.565 1.45648 137.565 3.08019V149.5C137.565 151.124 138.888 152.445 140.513 152.445H244.787C246.413 152.445 247.736 151.124 247.736 149.5V3.08019C247.736 1.45648 246.413 0.13486 244.787 0.13486H140.513Z" fill="#EBEBEB"/>
<g opacity="0.4">
<path d="M117.963 124.562H49.6962V129.373H117.963V124.562Z" fill="#EBEBEB"/>
<path d="M117.963 124.562H88.2792V129.373H117.963V124.562Z" fill="#E0E0E0"/>
<path d="M59.7834 129.379H49.6962V176.639H59.7834V129.379Z" fill="#EBEBEB"/>
<path d="M59.7834 134.255L49.6962 130.824V129.379H59.7834V134.255Z" fill="#E0E0E0"/>
<path d="M117.963 129.379H107.876V176.639H117.963V129.379Z" fill="#E0E0E0"/>
<path d="M98.3664 129.379H88.2792V176.639H98.3664V129.379Z" fill="#EBEBEB"/>
<path d="M98.361 134.255L88.2792 130.824V129.379H98.361V134.255Z" fill="#E0E0E0"/>
<path d="M79.3799 129.379H69.2927V176.639H79.3799V129.379Z" fill="#E0E0E0"/>
</g>
<g opacity="0.4">
<path d="M124.378 17.3752H38.34V90.5608H124.378V17.3752Z" fill="#EBEBEB"/>
<path d="M124.381 90.5632H125.342L125.342 17.3777H124.381L124.381 90.5632Z" fill="#E0E0E0"/>
<path d="M121.14 87.3245L121.14 20.6122L41.5821 20.6122L41.5821 87.3245L121.14 87.3245Z" fill="#F5F5F5" fill-opacity="0.4"/>
</g>
<g opacity="0.4">
<path d="M80.4006 77.1935C85.2498 60.9942 86.6106 37.1402 96.9516 40.4362C107.293 43.7268 93.744 79.0222 93.744 79.0222L80.4006 77.1935Z" fill="white"/>
<path d="M88.749 78.0027C83.8026 54.5479 85.05 23.4062 69.6816 24.1236C54.3132 24.8357 69.6816 79.0222 69.6816 79.0222L88.749 78.0027Z" fill="white"/>
<path d="M99.6084 75.3702H65.9664C64.4706 75.3702 63.3366 76.4653 63.2718 77.8517C62.586 93.3335 65.124 109.112 69.849 124.562H95.6124C100.337 109.112 102.875 93.3335 102.19 77.8517C102.13 76.4653 100.996 75.3702 99.6084 75.3702Z" fill="#EBEBEB"/>
</g>
<g opacity="0.4">
<path d="M176.148 25.5424H174.253V176.639H176.148V25.5424Z" fill="#E0E0E0"/>
<path d="M220.693 25.5424H218.797V176.639H220.693V25.5424Z" fill="#E0E0E0"/>
<path d="M162.707 25.5424H160.812V176.639H162.707V25.5424Z" fill="#EBEBEB"/>
<path d="M207.252 25.5424H205.357V176.639H207.252V25.5424Z" fill="#EBEBEB"/>
<path d="M220.693 24.5066H160.812V26.5726H220.693V24.5066Z" fill="#EBEBEB"/>
<path d="M220.693 61.5066H160.812V63.5726H220.693V61.5066Z" fill="#EBEBEB"/>
<path d="M220.693 98.5067H160.812V100.573H220.693V98.5067Z" fill="#EBEBEB"/>
<path d="M220.693 135.507H160.812V137.573H220.693V135.507Z" fill="#EBEBEB"/>
<path d="M220.693 172.507H160.812V174.573H220.693V172.507Z" fill="#EBEBEB"/>
<path d="M220.693 24.5066H207.252V26.5726H220.693V24.5066Z" fill="#E0E0E0"/>
<path d="M220.693 61.5066H207.252V63.5726H220.693V61.5066Z" fill="#E0E0E0"/>
<path d="M220.693 98.5067H207.252V100.573H220.693V98.5067Z" fill="#E0E0E0"/>
<path d="M220.693 135.507H207.252V137.573H220.693V135.507Z" fill="#E0E0E0"/>
<path d="M220.693 172.507H207.252V174.573H220.693V172.507Z" fill="#E0E0E0"/>
<path d="M184.966 37.0917V34.1787H177.768V37.0917C177.768 38.9959 176.224 40.5387 174.317 40.5387C172.411 40.5387 170.867 42.0815 170.867 43.9857V61.512H191.862V43.9803C191.862 42.0761 190.318 40.5333 188.411 40.5333C186.511 40.5333 184.966 38.9959 184.966 37.0917Z" fill="#F0F0F0"/>
<path d="M199.865 86.4718H168.318V98.5067H199.865V86.4718Z" fill="#F0F0F0"/>
<path d="M199.866 98.5076H205.358V86.4727H199.866V98.5076Z" fill="#E6E6E6"/>
<path d="M199.866 93.1509H205.358V91.8239H199.866V93.1509Z" fill="#EBEBEB"/>
<path d="M199.865 91.8284H168.318V93.1554H199.865V91.8284Z" fill="#F5F5F5"/>
<path d="M191.414 151.231H166.774V172.507H191.414V151.231Z" fill="#F0F0F0"/>
<path d="M191.412 172.507H195.7V151.231H191.412V172.507Z" fill="#E6E6E6"/>
<path d="M191.412 163.04H195.7V160.693H191.412V163.04Z" fill="#EBEBEB"/>
<path d="M191.414 160.698H166.774V163.045H191.414V160.698Z" fill="#F5F5F5"/>
<path d="M191.412 159.051H195.7V158.215H191.412V159.051Z" fill="#EBEBEB"/>
<path d="M191.414 158.217H166.774V159.053H191.414V158.217Z" fill="#F5F5F5"/>
<path d="M172.778 113.875H168.318V135.507H172.778V113.875Z" fill="#F0F0F0"/>
<path d="M172.778 121.584H168.318V127.798H172.778V121.584Z" fill="#FAFAFA"/>
<path d="M172.78 135.507H187.954V113.875H172.78V135.507Z" fill="#E6E6E6"/>
<path d="M179.669 111.081H174.631V135.507H179.669V111.081Z" fill="#EBEBEB"/>
<path d="M179.669 118.844H174.631V122.603H179.669V118.844Z" fill="#FAFAFA"/>
<path d="M179.669 125.123H174.631V128.882H179.669V125.123Z" fill="#FAFAFA"/>
<path d="M179.675 135.504H196.809V111.078H179.675V135.504Z" fill="#E0E0E0"/>
<path d="M185.279 113.875H182.563V135.507H185.279V113.875Z" fill="#F0F0F0"/>
<path d="M184.81 116.616H183.028V132.766H184.81V116.616Z" fill="#FAFAFA"/>
<path d="M185.273 135.507H194.502V113.875H185.273V135.507Z" fill="#E6E6E6"/>
<path d="M192.532 112.732H189.464V135.501H192.532V112.732Z" fill="#EBEBEB"/>
<path d="M192.532 119.971H189.464V123.477H192.532V119.971Z" fill="#FAFAFA"/>
<path d="M192.532 125.824H189.464V129.33H192.532V125.824Z" fill="#FAFAFA"/>
<path d="M192.529 135.509H202.951V112.739H192.529V135.509Z" fill="#E0E0E0"/>
<path d="M191.136 84.5117C193.759 81.891 193.759 77.6422 191.136 75.0215C188.512 72.4009 184.259 72.4009 181.636 75.0215C179.012 77.6422 179.012 81.891 181.636 84.5117C184.259 87.1323 188.512 87.1323 191.136 84.5117Z" fill="#F5F5F5"/>
<path d="M194.567 86.4093C197.104 85.9979 198.827 83.6093 198.416 81.0744C198.004 78.5394 195.613 76.8179 193.075 77.2293C190.538 77.6407 188.814 80.0292 189.226 82.5642C189.638 85.0992 192.029 86.8207 194.567 86.4093Z" fill="#EBEBEB"/>
</g>
<path d="M137.457 143.06H68.0992V178.846C68.0992 180.772 69.6652 182.337 71.593 182.337H133.963C135.891 182.337 137.457 180.772 137.457 178.846V143.06Z" fill="#00A1C6"/>
<path d="M68.0993 143.06H117.175L111.137 135.341C110.473 134.494 108.831 133.809 107.465 133.809H63.3311C61.9649 133.809 61.3979 134.494 62.0567 135.341L68.0993 143.06Z" fill="#00A1C6"/>
<path opacity="0.2" d="M68.0993 143.06H117.175L111.137 135.341C110.473 134.494 108.831 133.809 107.465 133.809H63.3311C61.9649 133.809 61.3979 134.494 62.0567 135.341L68.0993 143.06Z" fill="black"/>
<path d="M137.457 143.06H88.3817L94.4189 138.027C95.0831 137.477 96.7247 137.029 98.0909 137.029H142.225C143.591 137.029 144.158 137.477 143.5 138.027L137.457 143.06Z" fill="#00A1C6"/>
<path opacity="0.2" d="M137.457 143.06H88.3817V178.846C88.3817 180.772 89.9477 182.337 91.8755 182.337H133.963C135.891 182.337 137.457 180.772 137.457 178.846V143.06Z" fill="white"/>
<path d="M74.1906 143.06V167.594L75.8862 166.256L77.0796 167.594L78.1164 166.105L79.1802 167.594L80.6597 166.472L82.2906 167.594V143.06H74.1906Z" fill="#FFB201"/>
<path d="M85.1688 99.5424L76.4478 92.2277" stroke="#00A1C6" stroke-miterlimit="10"/>
<path d="M89.6885 103.329L87.0317 101.101" stroke="#00A1C6" stroke-miterlimit="10"/>
<path d="M115.814 118.644L144.585 82.7228L106.277 50.5992L80.8758 79.6911L77.1174 86.9682C76.329 87.8744 76.437 89.1421 77.3712 89.9297L111.937 118.919C113.06 119.847 114.874 119.717 115.814 118.644Z" fill="#00A1C6"/>
<path d="M96.0822 92.1522L91.9404 98.8143L93.609 99.1757L94.176 100.719L95.283 100.783L95.796 102.105L97.1514 102.499L98.1936 104.155L102.335 97.4873L96.0822 92.1522Z" fill="#FFB201"/>
<path opacity="0.1" d="M143.332 81.6655L117.531 110.423L80.8812 79.6858L106.277 50.5939L143.332 81.6655Z" fill="black"/>
<path d="M143.332 81.6655L117.531 110.423L128.212 111.211L153.614 82.1187L143.332 81.6655Z" fill="#00A1C6"/>
<path opacity="0.3" d="M143.332 81.6655L117.531 110.423L128.212 111.211L153.614 82.1187L143.332 81.6655Z" fill="black"/>
<path d="M96.0012 50.1407L70.1946 78.8928L80.8812 79.6858L106.277 50.5939L96.0012 50.1407Z" fill="#00A1C6"/>
<path opacity="0.4" d="M96.0012 50.1407L70.1946 78.8928L80.8812 79.6858L106.277 50.5939L96.0012 50.1407Z" fill="black"/>
<path opacity="0.1" d="M135.389 90.5231L143.332 81.6655L106.277 50.5939L101.536 62.0084L135.389 90.5231Z" fill="black"/>
<path opacity="0.2" d="M80.8812 79.6858L106.277 50.5939L101.536 62.0084L83.6514 82.0054L80.8812 79.6858Z" fill="black"/>
<path d="M164.29 29.8471C164.527 32.7061 165.235 37.9549 166.925 39.147C166.925 39.147 166.52 42.5832 160.466 43.4733C153.803 44.4551 156.794 40.6413 156.794 40.6413C160.299 39.2387 159.808 36.5577 158.803 34.1195L161.379 31.1741C162.34 30.0683 164.171 28.3852 164.29 29.8471Z" fill="#FFC3BD"/>
<path d="M169.101 40.5387C169.641 40.0478 168.55 38.0842 167.897 37.8145C166.158 37.0863 159.041 37.8037 156.368 40.1017C155.601 41.3155 156.157 42.6317 156.157 42.6317L169.101 40.5387Z" fill="white"/>
<path d="M191.749 184.736C191.306 184.871 190.858 184.936 190.625 184.768C190.528 184.698 190.426 184.558 190.48 184.283C190.512 184.137 190.593 184.024 190.728 183.948C191.311 183.609 192.753 184.056 192.812 184.078C192.85 184.089 192.883 184.126 192.888 184.17C192.893 184.213 192.872 184.25 192.834 184.272C192.629 184.391 192.191 184.596 191.749 184.736ZM190.96 184.078C190.917 184.094 190.874 184.11 190.841 184.132C190.76 184.18 190.712 184.245 190.696 184.326C190.652 184.52 190.733 184.574 190.755 184.596C191.014 184.779 191.894 184.515 192.505 184.207C192.062 184.094 191.349 183.959 190.96 184.078Z" fill="#FFB201"/>
<path d="M192.812 184.277C192.796 184.283 192.78 184.283 192.758 184.277C192.24 184.169 191.09 183.495 191.03 182.988C191.02 182.896 191.036 182.724 191.273 182.621C191.425 182.551 191.587 182.551 191.749 182.621C192.375 182.875 192.861 184.089 192.877 184.137C192.893 184.175 192.883 184.213 192.861 184.245C192.85 184.261 192.834 184.272 192.812 184.277ZM191.408 182.799C191.392 182.805 191.376 182.81 191.365 182.816C191.236 182.875 191.246 182.934 191.246 182.967C191.279 183.269 192.046 183.808 192.591 184.013C192.429 183.668 192.067 182.983 191.668 182.821C191.576 182.783 191.489 182.772 191.408 182.799Z" fill="#FFB201"/>
<path d="M160.099 190.53C159.521 190.53 158.965 190.449 158.776 190.19C158.711 190.098 158.657 189.942 158.787 189.726C158.857 189.602 158.971 189.521 159.127 189.478C159.878 189.273 161.449 190.168 161.519 190.206C161.557 190.227 161.579 190.271 161.573 190.314C161.568 190.357 161.53 190.395 161.487 190.4C161.195 190.459 160.639 190.53 160.099 190.53ZM159.386 189.656C159.311 189.656 159.241 189.661 159.181 189.683C159.084 189.71 159.014 189.758 158.971 189.834C158.895 189.968 158.922 190.033 158.949 190.071C159.16 190.362 160.299 190.368 161.136 190.249C160.72 190.028 159.91 189.656 159.386 189.656Z" fill="#FFB201"/>
<path d="M161.46 190.405C161.444 190.405 161.433 190.4 161.417 190.395C160.871 190.152 159.797 189.175 159.878 188.668C159.899 188.55 159.98 188.399 160.277 188.372C160.499 188.35 160.693 188.409 160.871 188.555C161.444 189.024 161.568 190.238 161.573 190.287C161.579 190.324 161.563 190.362 161.53 190.384C161.503 190.395 161.482 190.405 161.46 190.405ZM160.364 188.577C160.342 188.577 160.321 188.577 160.299 188.582C160.105 188.604 160.094 188.679 160.088 188.701C160.04 189.008 160.769 189.769 161.325 190.103C161.266 189.747 161.109 189.024 160.731 188.717C160.618 188.625 160.499 188.577 160.364 188.577Z" fill="#FFB201"/>
<path d="M166.417 190.298H161.908L161.46 179.876H165.964L166.417 190.298Z" fill="#FFC3BD"/>
<path d="M198.088 183.182L193.936 184.612L189.626 174.783L193.779 173.354L198.088 183.182Z" fill="#FFC3BD"/>
<path d="M192.947 183.582L197.786 182.098C197.964 182.044 198.153 182.12 198.245 182.281L200.27 185.847C200.48 186.219 200.28 186.689 199.875 186.807C198.18 187.298 197.327 187.449 195.199 188.102C193.892 188.501 190.587 189.753 188.735 190.125C186.921 190.492 186.273 188.717 186.996 188.399C190.247 186.969 191.565 185.345 192.337 184.067C192.472 183.83 192.693 183.657 192.947 183.582Z" fill="#263238"/>
<path d="M161.941 189.774H166.86C167.044 189.774 167.206 189.904 167.243 190.082L168.134 194.079C168.226 194.494 167.913 194.888 167.486 194.877C165.71 194.845 163.145 194.743 160.915 194.743C158.306 194.743 157.205 194.883 154.148 194.883C152.302 194.883 151.783 193.016 152.561 192.844C156.087 192.072 157.81 191.991 160.855 190.114C161.185 189.92 161.552 189.774 161.941 189.774Z" fill="#263238"/>
<path d="M175.036 42.0167C176.348 43.2197 177.482 44.4226 178.659 45.6795C179.809 46.9418 180.927 48.2364 181.985 49.6228C183.055 50.9984 184.064 52.4441 184.988 54.0732C185.447 54.8931 185.884 55.7508 186.251 56.738C186.343 56.9915 186.435 57.2289 186.511 57.5094C186.592 57.7791 186.673 58.0434 186.732 58.3509L186.824 58.7986L186.889 59.2949C186.926 59.5323 186.964 60.1904 186.889 60.6705C186.748 61.6846 186.354 62.4614 185.96 63.0656C185.56 63.6644 185.134 64.1067 184.718 64.4951C183.881 65.2611 183.065 65.8059 182.25 66.2914C180.625 67.2462 179.015 67.9313 177.401 68.5463C174.161 69.76 170.937 70.6069 167.584 71.2435L166.639 68.0015C169.571 66.7338 172.541 65.3636 175.295 63.8963C176.666 63.1627 178 62.3697 179.134 61.5336C179.696 61.1236 180.203 60.6813 180.533 60.2983C180.7 60.1095 180.808 59.9315 180.851 59.8344C180.889 59.7427 180.835 59.7534 180.792 59.9476C180.754 60.3091 180.765 60.0286 180.673 59.8344C180.652 59.7427 180.598 59.6186 180.549 59.4999C180.511 59.3866 180.441 59.2518 180.382 59.1169C180.128 58.5883 179.788 57.9949 179.404 57.4069C178.627 56.2201 177.687 55.0226 176.704 53.8412C175.711 52.6652 174.663 51.4947 173.588 50.3456C172.535 49.1913 171.385 48.0422 170.327 46.9688L175.036 42.0167Z" fill="#FFC3BD"/>
<path d="M167.87 67.4944L163.593 68.7782L166.325 73.2664C166.325 73.2664 168.842 72.2253 169.392 70.0945L167.87 67.4944Z" fill="#FFC3BD"/>
<path d="M161.903 70.3641L163.577 74.0701L166.325 73.2663L163.593 68.7782L161.903 70.3641Z" fill="#FFC3BD"/>
<path d="M165.078 43.2359C164.673 47.546 173.81 54.2242 173.81 54.2242L182.606 48.2095C182.606 48.2095 180.797 44.3363 176.115 41.3316C171.083 38.1058 165.585 37.8738 165.078 43.2359Z" fill="#FFB201"/>
<g opacity="0.3">
<path d="M165.078 43.2359C164.673 47.546 173.81 54.2242 173.81 54.2242L182.606 48.2095C182.606 48.2095 180.797 44.3363 176.115 41.3316C171.083 38.1058 165.585 37.8738 165.078 43.2359Z" fill="white"/>
</g>
<path d="M150.12 42.8906C150.12 42.8906 146.167 48.9431 155.547 81.4065L179.383 77.8894C179.048 74.5988 175.057 60.2443 174.928 44.5521C174.901 41.364 172.222 38.834 169.036 38.9959C168.34 39.0336 167.627 39.0822 166.925 39.1523C163.858 39.4544 159.435 40.01 156.794 40.6466C153.311 41.4827 150.12 42.8906 150.12 42.8906Z" fill="#FFB201"/>
<g opacity="0.3">
<path d="M150.12 42.8906C150.12 42.8906 146.167 48.9431 155.547 81.4065L179.383 77.8894C179.048 74.5988 175.057 60.2443 174.928 44.5521C174.901 41.364 172.222 38.834 169.036 38.9959C168.34 39.0336 167.627 39.0822 166.925 39.1523C163.858 39.4544 159.435 40.01 156.794 40.6466C153.311 41.4827 150.12 42.8906 150.12 42.8906Z" fill="white"/>
</g>
<path opacity="0.2" d="M149.537 53.318L149.618 53.2263L155.228 53.7226C156.076 57.3368 152.96 62.2673 151.313 64.5545C150.352 59.9261 149.812 56.2418 149.537 53.318Z" fill="black"/>
<path opacity="0.2" d="M161.46 179.876L161.692 185.248H166.201L165.969 179.876H161.46Z" fill="black"/>
<path opacity="0.2" d="M193.779 173.359L189.626 174.789L191.851 179.854L196.004 178.424L193.779 173.359Z" fill="black"/>
<path d="M163.701 23.3954C164.695 27.7487 165.499 30.2463 163.982 33.0783C161.698 37.3345 155.839 36.9245 153.56 32.9542C151.513 29.3832 150.228 22.8614 153.922 19.9268C157.556 17.0408 162.707 19.0367 163.701 23.3954Z" fill="#FFC3BD"/>
<path d="M154.948 27.6624L153.29 28.6765L153.446 23.0124C153.446 23.0124 151.708 23.1311 150.444 22.1439C151.043 21.5721 160.375 18.3085 163.285 18.8749C163.588 18.7455 163.955 18.1844 163.955 18.1844C163.955 18.1844 164.068 18.8911 163.571 19.1608C163.933 19.0907 164.819 19.2633 165.067 19.7866C164.284 19.6194 163.831 19.8567 163.831 19.8567C163.831 19.8567 167.092 20.3476 165.926 24.8357C164.635 29.7824 165.062 32.6252 165.062 32.6252C165.062 32.6252 162.653 34.4809 160.553 34.141C158.323 31.6866 155.093 28.7305 154.948 27.6624Z" fill="#263238"/>
<path d="M151.772 21.6908C149.137 21.7124 148.192 20.4069 147.517 19.328C149.407 19.1231 153.344 17.9093 156.271 17.7097C159.197 17.5047 162.389 18.0496 161.422 19.3065C160.455 20.5688 151.772 21.6908 151.772 21.6908Z" fill="#263238"/>
<path d="M152.35 20.5256C150.206 20.2289 148.079 18.1898 149.699 16.2424C150.298 17.6773 154.348 17.5101 157.216 16.9113C160.979 16.1238 163.615 17.3968 162.275 19.9699C161.546 21.3725 152.35 20.5256 152.35 20.5256Z" fill="#263238"/>
<path d="M157.28 26.3731C157.621 27.4898 157.496 28.7089 157.135 29.6098C156.589 30.9638 155.396 30.6886 154.775 29.5181C154.213 28.4608 153.819 26.4864 154.737 25.51C155.644 24.5498 156.892 25.0947 157.28 26.3731Z" fill="#FFC3BD"/>
<path d="M164.003 80.1604C164.003 80.1604 167.87 113.039 170.678 125.921C173.75 140.027 188.908 178.505 188.908 178.505L196.49 175.894C196.49 175.894 186.77 146.927 184.194 127.205C182.212 112.052 179.388 77.8948 179.388 77.8948L164.003 80.1604Z" fill="#263238"/>
<path d="M186.975 176.089C186.943 176.099 188.525 179.32 188.525 179.32L197.354 176.455L196.317 173.823L186.975 176.089Z" fill="#FFB201"/>
<path opacity="0.3" d="M166.136 97.0287C167.346 106.161 168.896 116.966 170.262 123.898C172.233 113.287 172.73 99.9363 166.136 97.0287Z" fill="black"/>
<path d="M155.547 81.4065C155.547 81.4065 152.339 112.295 152.831 126.018C153.338 140.292 160.018 184.213 160.018 184.213H167.648C167.648 184.213 166.244 141.128 166.585 127.108C166.957 111.825 172.692 78.882 172.692 78.882L155.547 81.4065Z" fill="#263238"/>
<path d="M158.544 181.176C158.506 181.176 158.976 184.342 158.976 184.342H168.259L168.507 181.516L158.544 181.176Z" fill="#FFB201"/>
<path d="M154.067 50.4752C153.225 51.813 152.372 53.0159 151.481 54.2566C150.601 55.4865 149.672 56.6841 148.721 57.8708C146.81 60.2336 144.763 62.5208 142.474 64.6786C141.869 65.2018 141.307 65.7412 140.659 66.2483L140.184 66.6313L139.946 66.8201C139.86 66.8903 139.822 66.928 139.644 67.0521C139.045 67.489 138.451 67.7587 137.9 67.9529C136.787 68.3306 135.826 68.4223 134.914 68.46C134.006 68.4978 133.159 68.4384 132.338 68.3467C129.06 67.9422 126.176 67.0305 123.293 65.7952L124.222 62.5478C127.019 62.8283 129.946 63.0656 132.554 62.947C133.202 62.9092 133.828 62.8445 134.384 62.7474C134.935 62.6503 135.437 62.4938 135.702 62.3374C135.837 62.2673 135.907 62.1971 135.886 62.181C135.853 62.2025 135.956 62.1108 136.004 62.0623L136.183 61.8951L136.544 61.5552C137.03 61.1237 137.495 60.6004 137.965 60.1257C138.899 59.1223 139.822 58.092 140.708 56.9916C141.61 55.9181 142.479 54.796 143.338 53.6686C144.202 52.5412 145.039 51.3814 145.886 50.2324C146.718 49.0834 147.55 47.8805 148.327 46.7584L154.067 50.4752Z" fill="#FFC3BD"/>
<path d="M157.205 49.0457C159.019 54.9741 148.489 61.5606 148.489 61.5606L141.642 52.8433C141.642 52.8433 143.543 49.0187 147.312 44.919C151.967 39.8537 155.822 44.5306 157.205 49.0457Z" fill="#FFB201"/>
<g opacity="0.3">
<path d="M157.205 49.0457C159.019 54.9741 148.489 61.5606 148.489 61.5606L141.642 52.8433C141.642 52.8433 143.543 49.0187 147.312 44.919C151.967 39.8537 155.822 44.5306 157.205 49.0457Z" fill="white"/>
</g>
<path d="M125.809 62.7798L120.269 61.7656L120.852 66.5612C120.852 66.5612 123.73 68.1741 125.825 65.6496L125.809 62.7798Z" fill="#FFC3BD"/>
<path d="M118.136 62.8445L119.335 66.3023L120.847 66.5559L120.263 61.7603L118.136 62.8445Z" fill="#FFC3BD"/>
<defs>
<linearGradient id="paint0_linear_84_425" x1="162.368" y1="218.17" x2="161.132" y2="165.435" gradientUnits="userSpaceOnUse">
<stop stop-color="#00A1C6"/>
<stop offset="1" stop-color="#00A1C6" stop-opacity="0"/>
</linearGradient>
</defs>
</svg>
