<svg width="79" height="79" viewBox="0 0 79 79" fill="none" xmlns="http://www.w3.org/2000/svg">
<path d="M66.7787 12.1039H33.8785C32.5127 12.1039 31.3983 13.2413 31.3983 14.5961V22.7051H15.7055C13.8773 22.7051 12.3903 24.1921 12.3903 26.0198V57.0002H12.1157C10.7556 57.0002 9.64917 58.1063 9.64917 59.4667C9.64917 63.5943 13.0071 66.9523 17.1339 66.9523H57.7252C61.8326 66.9523 65.2108 63.6473 65.2108 59.4667C65.2108 58.1067 64.1047 57.0002 62.7443 57.0002H62.4613V35.87H66.778C68.1522 35.87 69.2702 34.752 69.2702 33.3774V14.5968C69.2702 13.2509 68.1597 12.1047 66.7785 12.1047L66.7787 12.1039ZM62.8261 59.4667C62.8261 62.0867 60.8171 64.5673 57.6042 64.5673H17.8254C15.3139 64.5673 12.9999 62.896 12.4934 60.4365C12.4241 60.1006 12.3884 59.7558 12.3937 59.404C12.3986 59.3992 12.4017 59.3961 12.4065 59.3912L62.8261 59.4667ZM64.5215 14.5146L51.0125 24.0629C50.6047 24.3503 50.0356 24.3498 49.63 24.0633L36.0951 14.4996L64.5215 14.5146ZM35.0827 41.5224C35.204 41.455 35.3203 41.3765 35.4305 41.2879L42.2853 35.8698H46.081C47.0791 37.4242 47.6037 39.1938 47.6037 41.0212C47.6037 46.4194 43.0404 50.8111 37.4315 50.8111C31.8169 50.8111 27.2484 46.4194 27.2484 41.0212C27.2484 37.8956 28.8298 34.9662 31.3977 33.1358V39.3399C31.3982 41.1668 33.4023 42.4606 35.0827 41.5225V41.5224ZM60.0772 56.9647H14.7752V26.0204C14.7752 25.5072 15.1927 25.0906 15.7058 25.0906H31.3986V30.3724C27.416 32.5057 24.8644 36.5884 24.8644 41.0215C24.8644 47.7347 30.5024 53.1966 37.4322 53.1966C44.3565 53.1966 49.9887 47.7348 49.9887 41.0215C49.9887 39.2246 49.5774 37.478 48.8011 35.8702H60.0771L60.0772 56.9647ZM66.779 33.4859H42.2856C41.709 33.4859 41.1526 33.6869 40.7449 34.0299L33.8893 39.4475C33.8677 39.4475 33.8461 39.4338 33.8271 39.4175C33.8055 39.4021 33.783 39.3835 33.783 39.3403V31.077V15.7872L48.2547 26.0126C48.8626 26.4411 49.5768 26.6681 50.3205 26.6681C51.0643 26.6681 51.7784 26.4411 52.3876 26.0113L66.8853 15.7637V33.3773C66.8848 33.4351 66.835 33.4853 66.7781 33.4853L66.779 33.4859Z" fill="#222222"/>
</svg>
