<svg width="64" height="64" viewBox="0 0 64 64" fill="none" xmlns="http://www.w3.org/2000/svg">
<g filter="url(#filter0_d_120_206)">
<rect x="20" y="16" width="24" height="24" rx="2" fill="white"/>
</g>
<path d="M36.4034 22.2941C36.4519 22.3143 36.496 22.3438 36.5332 22.381L36.4034 22.2941ZM36.4034 22.2941C36.3548 22.274 36.3027 22.2636 36.2501 22.2636M36.4034 22.2941L36.2501 22.2636M36.2501 22.2636C36.1975 22.2636 36.1454 22.274 36.0968 22.2941M36.2501 22.2636L36.0968 22.2941M36.0968 22.2941C36.0482 22.3143 36.0041 22.3438 35.967 22.381L36.0968 22.2941ZM26.5092 30.142L34.8631 21.7882V21.789L35.1191 21.5331C35.4191 21.2333 35.8259 21.0649 36.2501 21.0649C36.6742 21.0649 37.081 21.2333 37.3811 21.5331L38.467 22.6191C38.467 22.6191 38.467 22.6191 38.467 22.6191C38.7668 22.9191 38.9352 23.3259 38.9352 23.75C38.9352 24.1742 38.7668 24.581 38.467 24.881C38.467 24.881 38.467 24.881 38.467 24.881L29.857 33.491C29.6648 33.6832 29.4272 33.8238 29.1662 33.8977L29.1658 33.8978L25.9149 34.8278C25.9149 34.8278 25.9149 34.8278 25.9148 34.8278C25.8119 34.8572 25.703 34.8586 25.5994 34.8317C25.4957 34.8048 25.4012 34.7507 25.3255 34.675C25.2498 34.5992 25.1958 34.5046 25.1691 34.4009C25.1423 34.2973 25.1437 34.1883 25.1733 34.0854L25.1733 34.0853L26.1023 30.8353L26.1024 30.8351C26.1768 30.5732 26.3169 30.3347 26.5092 30.142ZM36.3562 25.2961L37.619 24.0332L35.9669 22.3811L34.705 23.644L34.599 23.75L34.705 23.8561L36.144 25.2961L36.2501 25.4022L36.3562 25.2961ZM35.2952 26.3561L35.4012 26.2501L35.2952 26.144L33.8562 24.704L33.7501 24.5979L33.644 24.704L27.3584 30.9906C27.3584 30.9906 27.3583 30.9907 27.3583 30.9907C27.3101 31.0386 27.2749 31.0981 27.256 31.1634L27.2559 31.1638L26.6979 33.1168L26.6237 33.3764L26.8833 33.3023L28.8363 32.7443L28.8366 32.7442C28.902 32.7254 28.9614 32.6902 29.0094 32.6419C29.0095 32.6418 29.0095 32.6417 29.0096 32.6416L35.2952 26.3561Z" fill="#222222" stroke="white" stroke-width="0.3"/>
<defs>
<filter id="filter0_d_120_206" x="0" y="0" width="64" height="64" filterUnits="userSpaceOnUse" color-interpolation-filters="sRGB">
<feFlood flood-opacity="0" result="BackgroundImageFix"/>
<feColorMatrix in="SourceAlpha" type="matrix" values="0 0 0 0 0 0 0 0 0 0 0 0 0 0 0 0 0 0 127 0" result="hardAlpha"/>
<feOffset dy="4"/>
<feGaussianBlur stdDeviation="10"/>
<feComposite in2="hardAlpha" operator="out"/>
<feColorMatrix type="matrix" values="0 0 0 0 0 0 0 0 0 0 0 0 0 0 0 0 0 0 0.08 0"/>
<feBlend mode="normal" in2="BackgroundImageFix" result="effect1_dropShadow_120_206"/>
<feBlend mode="normal" in="SourceGraphic" in2="effect1_dropShadow_120_206" result="shape"/>
</filter>
</defs>
</svg>
