<svg width="79" height="79" viewBox="0 0 79 79" fill="none" xmlns="http://www.w3.org/2000/svg">
<path d="M66.1333 41.4785C65.3305 40.6757 64.4179 39.9999 63.4269 39.4678C64.8412 38.0638 65.718 36.1191 65.718 33.9735C65.718 29.7021 62.2428 26.2273 57.9719 26.2273C53.7 26.2273 50.2248 29.7021 50.2248 33.9735C50.2248 36.1196 51.1021 38.0641 52.5168 39.4683C51.5342 39.996 50.6322 40.6639 49.8387 41.4521C49.4525 40.9262 49.0236 40.4258 48.5536 39.9558C47.6031 39.0058 46.5155 38.2167 45.3332 37.611C46.9944 36.053 48.0335 33.8395 48.0335 31.3875C48.0335 26.6819 44.2051 22.8536 39.5 22.8536C34.7944 22.8536 30.9665 26.6819 30.9665 31.3875C30.9665 33.8373 32.0043 36.0491 33.6628 37.6069C31.8593 38.5261 30.3233 39.8491 29.1559 41.4467C28.3637 40.6607 27.4635 39.9945 26.4835 39.4682C27.8982 38.0641 28.7755 36.119 28.7755 33.9734C28.7755 29.702 25.3003 26.2272 21.0284 26.2272C16.757 26.2272 13.2823 29.702 13.2823 33.9734C13.2823 36.119 14.1591 38.0636 15.5734 39.4677C14.5823 39.9998 13.6689 40.6765 12.8652 41.4802C10.6817 43.6708 9.47998 46.5703 9.47998 49.6447V51.5448C9.47998 54.0845 11.5463 56.1512 14.0864 56.1512H64.9138C67.454 56.1512 69.5202 54.0849 69.5202 51.5448V49.6447C69.5198 46.5703 68.3181 43.6708 66.1331 41.4785H66.1333ZM21.0276 29.0868C23.723 29.0868 25.9157 31.2792 25.9157 33.9741C25.9157 36.669 23.7229 38.8618 21.0276 38.8618C18.3332 38.8618 16.1404 36.669 16.1404 33.9741C16.1404 31.2792 18.3327 29.0868 21.0276 29.0868V29.0868ZM26.6934 49.014V53.2924H14.0861C13.1224 53.2924 12.3391 52.5086 12.3391 51.5454V49.6453C12.3391 47.3326 13.245 45.15 14.8881 43.5008C15.9113 42.4776 17.1716 41.7277 18.5537 41.3151C19.3309 41.5778 20.1633 41.7207 21.0282 41.7207C21.8927 41.7207 22.7246 41.5783 23.5018 41.3155C25.1369 41.8031 26.5878 42.7589 27.6815 44.0634C27.0422 45.594 26.6935 47.2688 26.6935 49.0141L26.6934 49.014ZM39.4993 25.7135C42.6285 25.7135 45.1739 28.2594 45.1739 31.3881C45.1739 34.5173 42.6279 37.0631 39.4993 37.0631C36.3701 37.0631 33.8247 34.5171 33.8247 31.3881C33.8247 28.2593 36.3702 25.7135 39.4993 25.7135ZM49.4466 53.2935H29.5522V49.0151C29.5522 44.5568 32.4798 40.687 36.7239 39.4597C37.5946 39.7599 38.5283 39.9231 39.4995 39.9231C40.4703 39.9231 41.4035 39.7599 42.2738 39.4602C43.8776 39.9257 45.3425 40.7906 46.5315 41.9796C48.4113 43.8589 49.4464 46.3576 49.4464 49.0151L49.4466 53.2935ZM57.9713 29.0879C60.6658 29.0879 62.8586 31.2803 62.8586 33.9752C62.8586 36.6701 60.6658 38.8629 57.9713 38.8629C55.2759 38.8629 53.0832 36.6701 53.0832 33.9752C53.0837 31.2803 55.2765 29.0879 57.9713 29.0879ZM66.6604 51.5465C66.6604 52.5098 65.8766 53.2935 64.9134 53.2935L52.3061 53.294V49.0155C52.3061 47.2878 51.9662 45.6122 51.3182 44.0653C52.4119 42.7608 53.8637 41.8047 55.4987 41.3167C56.2759 41.579 57.1079 41.7218 57.9723 41.7218C58.8373 41.7218 59.6696 41.5794 60.4468 41.3162C61.8289 41.7288 63.0888 42.4787 64.1103 43.5002C65.7551 45.1508 66.6611 47.3339 66.6611 49.6465L66.6604 51.5465Z" fill="#222222"/>
</svg>
