<svg width="288" height="192" viewBox="0 0 288 192" fill="none" xmlns="http://www.w3.org/2000/svg">
<ellipse cx="144" cy="165.5" rx="144" ry="26.5" fill="url(#paint0_linear_9_336)" fill-opacity="0.15"/>
<g clip-path="url(#clip0_9_336)">
<path d="M136.24 41.5632H183.605C184.602 41.5632 185.41 40.7496 185.41 39.7467V12.7054C185.41 11.7025 184.602 10.8889 183.605 10.8889H136.24C135.243 10.8889 134.435 11.7025 134.435 12.7054V39.7467C134.435 40.7507 135.243 41.5632 136.24 41.5632Z" fill="#96D9E8"/>
<path d="M134.434 21.9747L185.411 21.9747L185.411 16.6814L134.434 16.6814L134.434 21.9747Z" fill="#FFB201"/>
<path d="M173.734 35.6787H181.23C181.706 35.6787 182.092 36.0672 182.092 36.5465C182.092 37.0258 181.706 37.4144 181.23 37.4144H173.734C173.258 37.4144 172.872 37.0258 172.872 36.5465C172.872 36.0672 173.258 35.6787 173.734 35.6787Z" fill="#D1F5FF"/>
<path d="M162.208 35.6787H169.704C170.18 35.6787 170.566 36.0672 170.566 36.5465C170.566 37.0258 170.18 37.4144 169.704 37.4144H162.208C161.732 37.4144 161.346 37.0258 161.346 36.5465C161.346 36.0672 161.732 35.6787 162.208 35.6787Z" fill="#D1F5FF"/>
<path d="M150.682 35.6787H158.177C158.654 35.6787 159.04 36.0672 159.04 36.5465C159.04 37.0258 158.654 37.4144 158.177 37.4144H150.682C150.206 37.4144 149.82 37.0258 149.82 36.5465C149.82 36.0672 150.206 35.6787 150.682 35.6787Z" fill="#D1F5FF"/>
<path d="M139.156 35.6787H146.651C147.128 35.6787 147.514 36.0672 147.514 36.5465C147.514 37.0258 147.128 37.4144 146.651 37.4144H139.156C138.68 37.4144 138.294 37.0258 138.294 36.5465C138.294 36.0672 138.68 35.6787 139.156 35.6787Z" fill="#D1F5FF"/>
<path d="M181.575 12.4464C182.101 12.4464 182.527 12.8748 182.527 13.4039V13.7404C182.527 14.2695 182.101 14.6979 181.575 14.6979C181.049 14.6979 180.623 14.2695 180.623 13.7404V13.4039C180.623 12.8748 181.049 12.4464 181.575 12.4464Z" fill="#D1F5FF"/>
<path d="M179.523 13.5722C179.523 14.1943 179.022 14.6979 178.404 14.6979H174.437C173.819 14.6979 173.319 14.1932 173.319 13.5722C173.319 12.9501 173.82 12.4464 174.437 12.4464H178.404C179.023 12.4464 179.523 12.9501 179.523 13.5722Z" fill="#D1F5FF"/>
<path d="M180.044 24.823H174.919C174.097 24.823 173.432 25.4927 173.432 26.3196V30.765C173.432 31.5919 174.097 32.2616 174.919 32.2616H180.044C180.864 32.2616 181.531 31.5919 181.531 30.765V26.3196C181.531 25.4927 180.865 24.823 180.044 24.823Z" fill="#00A1C6"/>
<path d="M49.8639 57.4488C48.799 58.7948 48.0465 60.2892 47.5987 61.8444L48.9343 62.2363C48.5096 63.7019 48.3886 65.2272 48.5525 66.716L47.173 66.8732C47.3578 68.5148 47.854 70.121 48.6582 71.5932L48.931 71.4449L49.8782 70.9213C50.579 72.2098 51.5449 73.3842 52.7583 74.3561L51.8903 75.4531C53.2281 76.5246 54.7133 77.2817 56.2623 77.7278L56.6517 76.384C58.105 76.8157 59.621 76.9375 61.1006 76.7725L61.2569 78.1606C62.8884 77.9747 64.488 77.471 65.9511 76.6618L65.9467 76.6585L65.7564 76.3021L65.2833 75.4342C66.5639 74.7291 67.7278 73.7617 68.6938 72.5407L69.784 73.4141C70.8489 72.0681 71.6047 70.5693 72.0481 69.0107L70.7125 68.6189C71.1416 67.1566 71.2593 65.6357 71.0953 64.1468L72.4749 63.9897C72.2901 62.3481 71.7895 60.7386 70.9853 59.2664L69.7653 59.9383C69.0645 58.6498 68.103 57.4787 66.8895 56.5068L67.7575 55.4109C66.4198 54.3394 64.9302 53.579 63.3812 53.1329L62.9918 54.4767C61.5385 54.045 60.0269 53.9265 58.5472 54.0915L58.391 52.7034C56.7551 52.886 55.1599 53.393 53.6968 54.2022L53.7023 54.2132L54.1423 55.0213L54.3645 55.4309C53.084 56.136 51.9167 57.1079 50.9541 58.3244L49.8639 57.4488ZM55.0114 61.5732C57.1292 58.8989 60.9994 58.4572 63.6574 60.5881C66.3197 62.7222 66.7586 66.6164 64.6409 69.2919C62.5198 71.9707 58.6496 72.4123 55.9872 70.2782C53.3293 68.1473 52.8904 64.252 55.0114 61.5732Z" stroke="#94D8E8" stroke-width="4.435" stroke-miterlimit="10"/>
<path d="M148.023 121.206C146.794 122.759 145.926 124.484 145.409 126.279L146.951 126.731C146.461 128.422 146.32 130.182 146.509 131.9L144.918 132.081C145.131 133.975 145.703 135.828 146.632 137.529L146.946 137.357L148.04 136.753C148.848 138.239 149.963 139.594 151.363 140.717L150.362 141.982C151.906 143.218 153.62 144.092 155.407 144.608L155.857 143.057C157.534 143.555 159.283 143.695 160.99 143.505L161.171 145.107C163.053 144.892 164.899 144.311 166.588 143.378L166.584 143.374L166.364 142.964L165.818 141.962C167.295 141.148 168.639 140.031 169.754 138.622L171.012 139.63C172.24 138.077 173.112 136.347 173.624 134.549L172.083 134.097C172.578 132.41 172.713 130.655 172.524 128.937L174.116 128.755C173.903 126.861 173.325 125.004 172.398 123.305L170.99 124.079C170.181 122.593 169.071 121.241 167.67 120.119L168.672 118.854C167.128 117.617 165.409 116.74 163.622 116.225L163.172 117.775C161.495 117.277 159.751 117.141 158.043 117.33L157.863 115.729C155.975 115.939 154.134 116.525 152.446 117.458L152.451 117.47L152.96 118.402L153.217 118.875C151.739 119.688 150.393 120.81 149.281 122.214L148.023 121.206ZM153.963 125.966C156.406 122.88 160.873 122.37 163.941 124.829C167.014 127.291 167.52 131.786 165.076 134.872C162.63 137.964 158.162 138.473 155.089 136.01C152.022 133.553 151.516 129.057 153.963 125.966Z" stroke="#FFB201" stroke-width="3.8256" stroke-miterlimit="10"/>
<path d="M133.243 12.3512C133.243 11.0051 134.328 9.9137 135.665 9.9137H144.615C144.634 9.76758 144.66 9.62257 144.66 9.47203C144.66 7.6157 143.218 6.08481 141.405 5.94977C141.436 5.71731 141.458 5.48264 141.458 5.24133C141.458 2.3467 139.125 0 136.248 0C134.09 0 132.238 1.32057 131.449 3.20236C130.805 2.62565 129.96 2.27253 129.032 2.27253C127.022 2.27253 125.391 3.9119 125.391 5.93427H124.712C122.78 5.93427 121.198 7.52604 121.198 9.46982C121.198 11.4147 122.778 13.0054 124.712 13.0054H133.242V12.3512H133.243Z" fill="#A1DDEB"/>
<path d="M82.0098 29.171C83.2562 21.7424 94.6261 18.3884 94.4039 23.2368L146.528 23.5445C150.139 23.5655 153.066 26.8332 153.068 30.8469L153.176 168.78C153.18 172.937 150.201 176.337 146.522 176.369L93.3114 176.828C92.9814 177.526 92.3631 178.161 91.3895 178.691C85.2871 178.822 82.3607 175.79 81.2914 172.362C80.9426 171.442 80.7534 170.425 80.7622 169.353C80.9746 167.558 81.6236 30.9134 82.0098 29.171Z" fill="#87D3E5"/>
<path d="M91.9583 178.713L153.035 178.317C156.846 178.293 159.93 174.8 159.922 170.522L159.693 28.6707C159.687 24.5452 156.653 21.1945 152.916 21.1823L93.0243 20.9864C89.2575 20.9742 86.176 24.3204 86.1452 28.4648L85.0593 170.973C85.0263 175.271 88.1155 178.739 91.9583 178.713Z" fill="white"/>
<path d="M91.1145 177.682C91.3686 177.716 91.6282 177.733 91.8857 177.73L152.944 177.265C156.219 177.24 158.896 174.179 158.89 170.446L158.679 28.7492C158.674 25.1473 156.039 22.2084 152.826 22.194L92.9396 21.9316C92.8461 21.9316 92.7515 21.9327 92.658 21.9372C91.1508 22.008 89.7426 22.6987 88.6898 23.8798C87.6138 25.0886 87.0154 26.6892 87.0022 28.3906L85.9306 171.042C85.9086 174.426 88.1276 177.279 91.1145 177.682Z" fill="#231F20"/>
<path d="M89.1045 29.1101L88.0748 171.265L156.861 170.851L156.685 29.1101H89.1045Z" fill="white"/>
<path d="M112.82 101.845H129.822C131.261 101.845 132.437 100.66 132.437 99.2135C132.437 97.7656 131.259 96.5823 129.822 96.5823H112.82C111.381 96.5823 110.205 97.7667 110.205 99.2135C110.204 100.66 111.381 101.845 112.82 101.845Z" fill="#FFB201"/>
<path d="M99.8869 82.3083H143.847C145.286 82.3083 146.462 81.1238 146.462 79.6771C146.462 78.2292 145.285 77.0459 143.847 77.0459H99.8869C98.448 77.0459 97.2719 78.2303 97.2719 79.6771C97.2708 81.1238 98.448 82.3083 99.8869 82.3083Z" fill="#DEDEDE"/>
<path d="M99.8869 90.7841H143.847C145.286 90.7841 146.462 89.5997 146.462 88.1529C146.462 86.705 145.285 85.5217 143.847 85.5217H99.8869C98.448 85.5217 97.2719 86.7061 97.2719 88.1529C97.2708 89.5997 98.448 90.7841 99.8869 90.7841Z" fill="#DEDEDE"/>
<path d="M136.559 89.3119C137.067 89.3119 137.48 88.8971 137.48 88.3854C137.48 87.8737 137.067 87.4589 136.559 87.4589C136.05 87.4589 135.638 87.8737 135.638 88.3854C135.638 88.8971 136.05 89.3119 136.559 89.3119Z" fill="#94D8E8"/>
<path d="M133.401 89.3119C133.91 89.3119 134.322 88.8971 134.322 88.3854C134.322 87.8737 133.91 87.4589 133.401 87.4589C132.893 87.4589 132.481 87.8737 132.481 88.3854C132.481 88.8971 132.893 89.3119 133.401 89.3119Z" fill="#94D8E8"/>
<path d="M130.245 89.3119C130.754 89.3119 131.166 88.8971 131.166 88.3854C131.166 87.8737 130.754 87.4589 130.245 87.4589C129.737 87.4589 129.324 87.8737 129.324 88.3854C129.324 88.8971 129.737 89.3119 130.245 89.3119Z" fill="#94D8E8"/>
<path d="M127.088 89.3119C127.596 89.3119 128.008 88.8971 128.008 88.3854C128.008 87.8737 127.596 87.4589 127.088 87.4589C126.579 87.4589 126.167 87.8737 126.167 88.3854C126.167 88.8971 126.579 89.3119 127.088 89.3119Z" fill="#94D8E8"/>
<path d="M123.93 89.3119C124.439 89.3119 124.851 88.8971 124.851 88.3854C124.851 87.8737 124.439 87.4589 123.93 87.4589C123.422 87.4589 123.01 87.8737 123.01 88.3854C123.01 88.8971 123.422 89.3119 123.93 89.3119Z" fill="#94D8E8"/>
<path d="M120.773 89.3119C121.281 89.3119 121.694 88.8971 121.694 88.3854C121.694 87.8737 121.281 87.4589 120.773 87.4589C120.264 87.4589 119.852 87.8737 119.852 88.3854C119.852 88.8971 120.264 89.3119 120.773 89.3119Z" fill="#94D8E8"/>
<path d="M117.616 89.3119C118.124 89.3119 118.536 88.8971 118.536 88.3854C118.536 87.8737 118.124 87.4589 117.616 87.4589C117.107 87.4589 116.695 87.8737 116.695 88.3854C116.695 88.8971 117.107 89.3119 117.616 89.3119Z" fill="#94D8E8"/>
<path d="M114.459 89.3119C114.968 89.3119 115.38 88.8971 115.38 88.3854C115.38 87.8737 114.968 87.4589 114.459 87.4589C113.951 87.4589 113.538 87.8737 113.538 88.3854C113.538 88.8971 113.951 89.3119 114.459 89.3119Z" fill="#94D8E8"/>
<path d="M111.302 89.3119C111.81 89.3119 112.223 88.8971 112.223 88.3854C112.223 87.8737 111.81 87.4589 111.302 87.4589C110.793 87.4589 110.381 87.8737 110.381 88.3854C110.381 88.8971 110.793 89.3119 111.302 89.3119Z" fill="#94D8E8"/>
<path d="M128.997 66.7031C132.944 62.7321 132.944 56.294 128.997 52.3231C125.051 48.3521 118.652 48.3521 114.705 52.3231C110.759 56.294 110.759 62.7321 114.705 66.7031C118.652 70.674 125.051 70.674 128.997 66.7031Z" fill="white"/>
<path d="M121.837 59.1037C120.85 59.1037 119.939 58.6199 119.357 57.8816C118.927 57.347 118.674 56.6595 118.674 55.8958C118.674 54.1391 120.091 52.6879 121.836 52.6879C123.607 52.6879 125.024 54.1391 125.024 55.8958C125.024 56.6595 124.771 57.347 124.341 57.8816C123.76 58.6199 122.85 59.1037 121.837 59.1037Z" fill="#00A1C6"/>
<path d="M116.236 64.8188C116.236 66.8433 127.469 66.8433 127.469 64.8188L127.466 62.4599C127.023 59.2354 117.149 59.1003 116.234 62.4599L116.236 64.8188Z" fill="#00A1C6"/>
<path d="M141.504 87.667V89.5333C141.504 89.8554 143.881 89.8554 143.881 89.5333V87.667H143.725V87.5264C143.725 86.9553 143.263 86.4915 142.696 86.4915C142.13 86.4915 141.668 86.9564 141.668 87.5264V87.667H141.504ZM143.358 87.667H142.026V87.5264C142.026 87.1479 142.253 86.8424 142.695 86.8424C143.138 86.8424 143.358 87.1678 143.358 87.5264V87.667ZM142.37 88.3312C142.37 88.1519 142.52 87.9991 142.7 87.9991C142.878 87.9991 143.03 88.1507 143.03 88.3312C143.03 88.4552 142.96 88.5526 142.865 88.6079V89.147C142.865 89.2444 142.797 89.313 142.7 89.313C142.603 89.313 142.52 89.2444 142.52 89.147V88.6079C142.438 88.5526 142.37 88.4552 142.37 88.3312Z" fill="#999999"/>
<path d="M142.693 79.4856C142.485 79.4856 142.293 79.3838 142.169 79.2277C142.079 79.1148 142.025 78.9698 142.025 78.8082C142.025 78.4373 142.325 78.1318 142.693 78.1318C143.067 78.1318 143.365 78.4385 143.365 78.8082C143.365 78.9698 143.312 79.1148 143.221 79.2277C143.099 79.3838 142.906 79.4856 142.693 79.4856Z" fill="#999999"/>
<path d="M141.512 80.6911C141.512 81.1183 143.894 81.1183 143.894 80.6911L143.881 80.1929C143.788 79.5122 141.704 79.4834 141.512 80.1929V80.6911Z" fill="#999999"/>
<path d="M127.295 80.4486H136.928C137.351 80.4486 137.696 80.101 137.696 79.676C137.696 79.2509 137.351 78.9033 136.928 78.9033H127.295C126.872 78.9033 126.527 79.2509 126.527 79.676C126.528 80.101 126.873 80.4486 127.295 80.4486Z" fill="#94D8E8"/>
<path d="M114.589 80.4486H124.223C124.645 80.4486 124.991 80.101 124.991 79.676C124.991 79.2509 124.645 78.9033 124.223 78.9033H114.589C114.167 78.9033 113.821 79.2509 113.821 79.676C113.821 80.101 114.167 80.4486 114.589 80.4486Z" fill="#94D8E8"/>
<path d="M134.895 130.358V149.986C134.895 152.168 106.582 152.168 106.582 149.986V130.358H134.895Z" fill="white"/>
<path d="M120.739 141.068C122.669 141.068 124.234 139.592 124.234 137.772C124.234 135.952 122.669 134.477 120.739 134.477C118.809 134.477 117.244 135.952 117.244 137.772C117.244 139.592 118.809 141.068 120.739 141.068Z" fill="#00A1C6"/>
<path d="M120.693 147.695H120.785C121.551 147.695 122.172 147.071 122.172 146.299V138.786H119.306V146.299C119.306 147.071 119.927 147.695 120.693 147.695Z" fill="#00A1C6"/>
<path d="M109.064 128.96H111.93V127.638C111.93 123.059 115.882 119.334 120.739 119.334C125.597 119.334 129.549 123.06 129.549 127.638V128.96H132.415V127.638C132.415 121.57 127.177 116.633 120.739 116.633C114.302 116.633 109.064 121.57 109.064 127.638V128.96Z" fill="white"/>
<path d="M34 105.005C34 104.894 34.0011 104.847 34.0011 104.834C34.0011 104.854 34 105.005 34 105.005Z" fill="#D9FFFF"/>
<path d="M34 105.005C34 104.894 34.0011 104.847 34.0011 104.834C34.0011 104.854 34 105.005 34 105.005Z" fill="#D9FFFF"/>
<path d="M99.3643 105.298C99.3643 105.298 99.3654 105.149 99.3654 105.128C99.3654 105.14 99.3654 105.189 99.3643 105.298Z" fill="#D9FFFF"/>
<path d="M99.3643 105.298C99.3643 105.298 99.3654 105.149 99.3654 105.128C99.3654 105.14 99.3654 105.189 99.3643 105.298Z" fill="#D9FFFF"/>
<path d="M66.8037 89.5498C59.5682 97.3482 48.0223 103.74 35.6678 106.463C35.6645 107.293 35.6436 111.893 35.549 133.094C35.4236 161.378 62.1744 175.198 66.3274 177.32C70.3517 175.456 97.4402 161.657 97.5656 133.373C97.6603 112.171 97.6801 107.572 97.6845 106.742C85.3542 103.908 73.9689 97.4135 66.8037 89.5498Z" fill="#F5F5F5"/>
<path d="M66.7388 92.6171C59.2799 99.5022 48.9453 104.913 37.582 107.863L37.4698 133.09C37.4181 144.633 41.976 155.075 51.0158 164.128C56.9554 170.076 63.2008 173.765 66.3703 175.425C66.5067 175.355 66.6563 175.276 66.8038 175.2V92.6757C66.7817 92.6558 66.7597 92.637 66.7388 92.6171Z" fill="#94D8E8"/>
<path d="M66.8037 92.6758V175.199C70.0986 173.474 76.0889 169.909 81.8249 164.267C90.945 155.296 95.5953 144.894 95.6459 133.352L95.7581 108.125C84.4532 105.081 74.1955 99.5997 66.8037 92.6758Z" fill="#00A1C6"/>
<path d="M89.571 117.961C80.9195 119.304 69.1393 127.243 61.7079 136.789C60.6661 132.288 55.9861 128.18 53.5372 127.281L46.1201 134.782C50.7517 136.882 55.8123 142.833 56.4834 148.925L63.8928 150.08C67.0172 143.871 75.0855 129.019 91.1365 121.032C90.8284 119.816 89.6953 118.134 89.571 117.961Z" fill="#FFB201"/>
<path d="M191.644 70.0479L212.625 69.9073L230.67 69.7191L230.748 72.4743C224.476 74.9117 219.553 75.6479 213.307 76.1161C206.979 78.2303 198.6 79.6284 192.118 80.0867C186.42 80.359 185.946 70.3202 191.644 70.0479Z" fill="#F7A594"/>
<path d="M200.947 69.4491C198.427 69.4004 190.974 68.6067 186.329 69.1569C182.126 70.8936 183.168 78.2702 185.094 79.4303C185.088 79.6384 193.248 81.9298 201.504 79.4923C202.748 78.0289 202.326 70.9091 200.947 69.4491Z" fill="#00A1C6"/>
<path d="M202.618 79.7834C201.31 80.2516 200.08 80.5494 199.161 80.1708C198.617 80.1974 198.009 69.1469 198.555 69.1214L201.988 68.9565C203.079 68.9034 203.708 79.7303 202.618 79.7834Z" fill="#231F20"/>
<path d="M228.585 69.7701C229.196 66.9264 230.172 62.8828 231.358 62.8252C231.613 62.813 231.65 62.9791 231.638 63.7362C231.048 68.7916 232.405 70.1619 231.749 71.591C231.029 72.9758 229.043 72.9481 229.043 72.9481C227.931 72.4467 227.839 70.5748 228.585 69.7701Z" fill="#F7A594"/>
<path d="M230 69.1568L231.237 65.4851C231.237 65.4851 232.043 65.6268 231.874 66.5976C231.704 67.5684 231.498 68.6133 231.498 68.6133C231.498 68.6133 232.464 70.7143 231.695 71.5843C230.925 72.4544 229.6 71.6053 230 69.1568Z" fill="#F7A594"/>
<path d="M231.865 71.4305L231.771 71.4006C232.193 70.0745 231.462 68.6521 231.454 68.6377L231.447 68.6222L231.45 68.6045C231.452 68.5945 231.658 67.5496 231.825 66.5899C231.892 66.2058 231.812 65.9113 231.586 65.7154C231.465 65.6102 231.333 65.5626 231.268 65.5438L230.046 69.1724L229.953 69.1403L231.202 65.4287L231.244 65.4365C231.253 65.4376 231.462 65.4763 231.65 65.6401C231.824 65.7918 232.013 66.0818 231.922 66.6065C231.766 67.4998 231.576 68.4672 231.549 68.6056C231.629 68.7694 232.274 70.142 231.865 71.4305Z" fill="#D97B69"/>
<path d="M229.458 67.4068L229.362 67.3824C229.406 67.2075 230.447 63.0975 231.341 62.7787L231.374 62.8728C230.529 63.1739 229.469 67.3647 229.458 67.4068Z" fill="#D97B69"/>
<path d="M165.515 178.869H175.167C175.361 178.755 175.502 178.626 175.581 178.48C175.735 171.256 176.285 167.778 176.285 167.778L169.549 167.502L168.283 172.876C166.104 174.425 163.577 177.748 165.515 178.869Z" fill="#231F20"/>
<path d="M175.905 179H164.462C164.171 179 164.193 177.398 164.483 177.398L175.861 177.463C176.159 177.463 176.203 179 175.905 179Z" fill="#231F20"/>
<path d="M174.72 103.075C174.037 108.423 171.116 121.632 171.431 136.157C168.268 154.67 167.919 158.747 167.537 170.165L177.185 170.528C178.729 162.554 181.899 149.969 183.333 137.689C186.451 128.014 188.495 114.223 189.499 103.275C190.512 93.837 177.253 90.0225 174.72 103.075Z" fill="#00A1C6"/>
<path d="M172.253 170.615L172.056 170.613C172.074 169.297 175.994 124.776 179.977 106.727L180.169 106.77C176.189 124.808 172.27 169.3 172.253 170.615Z" fill="#231F20"/>
<path d="M184.416 103.727C185.776 122.146 189.782 137.79 189.782 137.79C188.998 150.356 191.213 162.421 192.788 170.675L201.966 170.592C202.498 162.511 201.362 118.772 198.987 103.938C197.856 90.8206 182.779 90.1188 184.416 103.727Z" fill="#00A1C6"/>
<path d="M194.526 170.674C194.116 173.65 193.83 175.973 194.19 178.666L209.201 178.959C209.201 178.959 210.616 177.505 208.646 175.323C206.676 173.141 203.192 174.403 200.716 170.591L194.526 170.674Z" fill="#231F20"/>
<path d="M209.883 179H193.95C193.659 179 193.659 177.398 193.95 177.398L209.819 177.463C210.117 177.463 210.182 179 209.883 179Z" fill="#231F20"/>
<path d="M196.797 106.879L196.601 106.889L199.746 170.496L199.943 170.486L196.797 106.879Z" fill="#231F20"/>
<path d="M198.955 101.634L175.096 103.463C175.312 88.4318 168.566 78.0521 169.971 74.1812C171.901 68.8635 185.964 68.8258 191.319 70.8991C193.446 71.7227 196.905 76.4847 197.313 82.4754C197.427 85.2627 197.455 87.1744 197.185 89.4037C196.916 91.6331 198.955 101.634 198.955 101.634Z" fill="#00A1C6"/>
<path d="M184.694 73.8934C183.585 73.0068 179.161 71.6397 177.985 70.67L178.25 62.9425L182.6 62.5164C183.862 62.6215 185.123 62.9259 186.208 63.3565L187.187 68.4451L187.403 69.5487C187.897 70.6346 186.92 71.9441 184.694 73.8934Z" fill="#F7A594"/>
<path d="M179.714 64.6926C180.396 65.7497 183.253 68.4551 187.187 68.4462L186.34 64.0439L179.714 64.6926Z" fill="#E6836F"/>
<path d="M189.342 54.5121C189.683 56.0341 190.386 59.377 190.271 60.9157C190.096 63.2591 187.921 65.8581 186.023 66.2002C183.827 66.4249 180.867 65.7674 179.259 64.3782C178.364 63.3233 176.633 60.8205 175.836 58.6299C174.174 54.0604 177.383 50.0545 181.453 49.1291C185.525 48.2037 188.279 49.7666 189.342 54.5121Z" fill="#F7A594"/>
<path d="M177.2 61.6485C176.351 60.1452 177.48 59.5364 178.716 60.7031C178.505 59.5685 177.219 56.2444 178.358 55.143C179.644 53.8645 185.303 54.4202 188.342 51.2311C188.342 51.2311 186.076 46.2322 178.639 49.1844C170.24 53.6664 177.2 61.6485 177.2 61.6485Z" fill="#4D261C"/>
<path d="M178.316 62.5402C178.921 62.0342 178.887 60.989 178.24 60.2057C177.593 59.4224 176.578 59.1975 175.973 59.7035C175.368 60.2095 175.402 61.2546 176.049 62.038C176.696 62.8213 177.711 63.0461 178.316 62.5402Z" fill="#F7A594"/>
<path d="M188.412 51.4382C187.467 51.1471 176.211 55.6479 176.506 56.4891C176.506 56.4891 184.656 56.5268 190.259 53.9598C193.318 52.5595 188.412 51.4382 188.412 51.4382Z" fill="#00A1C6"/>
<path d="M174.81 57.213L188.482 51.4149L188.015 49.4667L173.53 55.4795C173.817 56.1481 174.312 56.8754 174.81 57.213Z" fill="#231F20"/>
<path d="M173.136 55.9124C171.64 56.4858 170.839 55.567 172.35 53.8181C174.68 51.1205 176.272 44.2187 179.733 42.9679C182.118 42.1056 183.923 44.9161 187.089 46.6617C188.525 47.4532 189.329 48.2812 188.791 49.2542C187.154 50.4862 174.702 55.3124 173.136 55.9124Z" fill="#00A1C6"/>
<path d="M182.629 45.5681C182.613 45.5239 182.604 45.5017 182.601 45.4906C182.262 45.5382 181.915 45.536 181.59 45.4895C181.264 45.4431 180.959 45.3523 180.703 45.2239C180.703 45.225 180.702 45.2261 180.701 45.2272C180.646 45.36 180.577 45.494 180.494 45.6257C180.384 45.8006 180.25 45.9711 180.098 46.1316C180.022 46.2124 179.943 46.2921 179.858 46.3662C179.732 46.478 179.595 46.5821 179.452 46.6762C179.462 46.7027 179.5 46.8024 179.624 47.1356C179.649 47.202 179.677 47.2783 179.71 47.3647C179.726 47.4079 179.743 47.4532 179.761 47.5019C179.816 47.6481 179.88 47.8196 179.955 48.02C180.055 48.2879 180.194 48.5115 180.354 48.6997C180.408 48.7616 180.464 48.8203 180.522 48.8757C180.695 49.0395 180.886 49.169 181.077 49.2719C181.269 49.3749 181.459 49.4502 181.635 49.5055C181.868 49.5797 182.073 49.6173 182.21 49.6361C182.278 49.6461 182.33 49.6505 182.361 49.6527C182.415 49.5952 182.559 49.4369 182.716 49.2044C182.779 49.1114 182.844 49.0063 182.906 48.89C182.936 48.8325 182.967 48.7716 182.996 48.7085C183.226 48.206 183.369 47.5473 183.101 46.8334C182.803 46.033 182.679 45.701 182.629 45.5681Z" fill="#FFB201"/>
<path d="M182.555 47.0581C182.764 47.6248 182.473 48.2547 181.908 48.465C181.342 48.6753 180.714 48.3864 180.505 47.8196C180.296 47.2529 180.586 46.623 181.152 46.4127C181.718 46.2035 182.347 46.4913 182.555 47.0581Z" fill="white"/>
<path d="M184.595 71.7571L185.315 73.2736L185.425 71.663L186.394 74.2521C186.152 73.8226 185.33 73.4451 185.33 73.4451C185.33 73.4451 184.435 73.8591 184.001 74.8421L184.595 71.7571Z" fill="#231F20"/>
<path d="M178.037 68.8115C179.111 70.2052 182.604 71.1593 184.595 71.7571L184.002 74.8421C181.61 74.0296 178.517 73.1064 177.13 70.2262C176.816 69.4425 177.19 69.0063 178.037 68.8115Z" fill="#231F20"/>
<path d="M187.203 68.3245C187.096 68.8314 187.014 70.8206 185.425 71.6619L186.394 74.251C188.585 72.9891 188.701 71.8202 188.363 69.9871C188.226 69.2587 187.984 68.4772 187.203 68.3245Z" fill="#231F20"/>
<path d="M189.1 103.011C189.051 103.011 189.008 102.974 189.002 102.923C188.757 100.633 188.558 97.9006 188.348 95.0082C187.775 87.1291 187.124 78.1972 185.239 73.4817C185.218 73.4308 185.243 73.3732 185.294 73.3522C185.344 73.3322 185.402 73.3566 185.423 73.4075C187.319 78.1518 187.97 87.0992 188.545 94.9927C188.755 97.8829 188.954 100.614 189.198 102.901C189.204 102.955 189.165 103.004 189.11 103.01C189.108 103.011 189.104 103.011 189.1 103.011Z" fill="#231F20"/>
<path d="M175.101 101.002C179.766 102.26 198.052 101.779 198.78 101.218C199.893 100.967 200.143 104.992 199.498 105.961C198.511 107.443 175.019 107.208 174.276 106.141C173.533 105.073 173.783 100.647 175.101 101.002Z" fill="#231F20"/>
<path d="M193.166 79.2322C193.161 79.1868 193.159 79.1635 193.158 79.1525C192.826 79.1181 192.5 79.034 192.204 78.9134C191.908 78.7927 191.641 78.6355 191.428 78.454C191.427 78.4551 191.426 78.4562 191.426 78.4573C191.344 78.5702 191.247 78.6798 191.138 78.785C190.994 78.9244 190.826 79.0539 190.646 79.1702C190.556 79.2288 190.462 79.2853 190.364 79.3362C190.219 79.4126 190.066 79.479 189.909 79.5332C189.912 79.5598 189.924 79.6639 189.964 80.0081C189.972 80.0767 189.98 80.1553 189.991 80.245C189.997 80.2893 190.002 80.3369 190.008 80.3867C190.026 80.5372 190.045 80.7143 190.07 80.9213C190.101 81.1981 190.181 81.4416 190.288 81.6574C190.325 81.7294 190.364 81.7969 190.406 81.8622C190.533 82.0582 190.682 82.2253 190.839 82.367C190.995 82.5087 191.158 82.6249 191.311 82.7179C191.514 82.843 191.699 82.9271 191.823 82.9769C191.886 83.0024 191.933 83.019 191.961 83.0278C192.024 82.9858 192.198 82.8706 192.401 82.688C192.482 82.6149 192.568 82.5308 192.653 82.4356C192.696 82.388 192.737 82.3382 192.779 82.2862C193.114 81.8655 193.402 81.2778 193.316 80.5405C193.221 79.7115 193.182 79.3694 193.166 79.2322Z" fill="#FFB201"/>
<path d="M194.314 83.7626L189.717 84.213L189.799 85.0613L194.396 84.6109L194.314 83.7626Z" fill="#231F20"/>
<path d="M189.237 116.612H187.825L187.854 116.49C188.488 113.793 188.575 107.231 188.576 107.166L188.773 107.168C188.771 107.233 188.687 113.626 188.074 116.414H189.076C189.206 115.753 190.085 111.105 189.863 107.334L190.06 107.322C190.3 111.397 189.264 116.483 189.253 116.534L189.237 116.612Z" fill="#231F20"/>
<path d="M166.192 86.1594C166.192 86.1594 164.335 96.734 166.227 100.463C168.184 104.318 186.244 105.156 186.244 105.156L186.892 99.6862L174.447 96.5093L177.15 88.4109L166.192 86.1594Z" fill="#F7A594"/>
<path d="M170.874 72.5596C170.874 72.5596 165.628 79.0008 165.417 88.2271C172.255 93.2438 176.761 89.6296 176.761 89.6296C176.761 89.6296 180.229 80.4078 179.46 75.9202C178.691 71.4338 172.428 70.9302 170.874 72.5596Z" fill="#00A1C6"/>
<path d="M165.65 85.4631C166.576 86.5966 177.204 88.8094 177.424 87.5641C177.719 88.754 177.656 89.913 176.703 90.9956C176.432 92.7246 164.91 90.9037 165.18 89.1747C164.51 88.1043 164.667 86.8667 165.65 85.4631Z" fill="#231F20"/>
<path d="M177.424 87.6637C177.407 87.6637 177.389 87.6592 177.374 87.6504C177.327 87.6227 177.311 87.5618 177.339 87.5142C178.106 86.2069 178.749 84.4403 179.105 82.6681C179.116 82.6138 179.167 82.5795 179.221 82.5906C179.275 82.6016 179.309 82.6537 179.298 82.7079C178.94 84.5011 178.287 86.2911 177.509 87.6161C177.49 87.6459 177.457 87.6637 177.424 87.6637Z" fill="#231F20"/>
<path d="M178.699 86.8568C178.7 86.7937 178.7 86.766 178.7 86.7594C178.7 86.7716 178.699 86.8568 178.699 86.8568Z" fill="#D9FFFF"/>
<path d="M178.699 86.8568C178.7 86.7937 178.7 86.766 178.7 86.7594C178.7 86.7716 178.699 86.8568 178.699 86.8568Z" fill="#D9FFFF"/>
<path d="M216.187 87.2718C216.187 87.2718 216.188 87.1866 216.188 87.1744C216.188 87.1811 216.188 87.2087 216.187 87.2718Z" fill="#D9FFFF"/>
<path d="M216.187 87.2718C216.187 87.2718 216.188 87.1866 216.188 87.1744C216.188 87.1811 216.188 87.2087 216.187 87.2718Z" fill="#D9FFFF"/>
<path d="M197.587 76.8368C193.187 81.4948 186.191 85.2904 178.721 86.8778C178.715 87.377 178.684 90.141 178.544 102.883C178.355 119.881 194.453 128.294 196.952 129.584C199.389 128.481 215.799 120.295 215.987 103.297C216.127 90.555 216.158 87.791 216.164 87.2918C208.731 85.5395 201.883 81.5911 197.587 76.8368Z" fill="white"/>
<path d="M197.94 80.0001C193.637 83.9021 187.689 86.9528 181.161 88.5932L181.001 102.994C180.929 109.584 183.503 115.563 188.654 120.765C192.038 124.183 195.607 126.313 197.418 127.272C197.496 127.233 197.582 127.189 197.667 127.144L197.978 80.0322C197.966 80.0234 197.952 80.0123 197.94 80.0001Z" fill="#94D8E8"/>
<path d="M197.559 79.9429L197.249 127.055C199.146 126.083 202.595 124.07 205.905 120.871C211.169 115.783 213.875 109.863 213.948 103.274L214.108 88.8725C207.635 87.0926 201.773 83.9234 197.559 79.9429Z" fill="#00A1C6"/>
<path d="M189.85 100.651L189.776 111.808C189.768 113.05 204.913 113.15 204.921 111.908L204.995 100.751L189.85 100.651ZM198.15 106.631L198.129 109.794C198.126 110.215 197.782 110.562 197.361 110.56C196.933 110.556 196.595 110.204 196.597 109.784L196.618 106.614C195.971 106.318 195.519 105.658 195.524 104.901C195.531 103.866 196.378 103.036 197.411 103.043C198.444 103.05 199.272 103.891 199.266 104.926C199.26 105.689 198.807 106.342 198.15 106.631Z" fill="#FFB201"/>
<path d="M203.675 99.9474L202.141 99.9374L202.146 99.1858C202.163 96.5823 200.062 94.4504 197.464 94.4338C194.864 94.4161 192.736 96.5203 192.719 99.1238L192.714 99.8755L191.181 99.8655L191.185 99.1139C191.208 95.6636 194.029 92.8763 197.473 92.8984C200.918 92.9217 203.701 95.7466 203.678 99.1958L203.675 99.9474Z" fill="#FFB201"/>
</g>
<defs>
<linearGradient id="paint0_linear_9_336" x1="167" y1="207" x2="165.5" y2="142" gradientUnits="userSpaceOnUse">
<stop stop-color="#00A1C6"/>
<stop offset="1" stop-color="#00A1C6" stop-opacity="0"/>
</linearGradient>
<clipPath id="clip0_9_336">
<rect width="218" height="179" fill="white" transform="translate(34)"/>
</clipPath>
</defs>
</svg>
