<svg width="79" height="79" viewBox="0 0 79 79" fill="none" xmlns="http://www.w3.org/2000/svg">
<path d="M40.2701 37.7982C41.1055 37.755 41.9373 37.9375 42.678 38.3272C43.4186 38.7165 44.0406 39.2984 44.4788 40.0113C45.0652 40.9428 45.6475 41.9176 46.211 42.8596C46.6117 43.5301 47.0266 44.2236 47.4454 44.9074C49.6038 48.4346 52.2308 51.6528 55.2546 54.4734C56.4611 55.5266 57.4377 56.817 58.1232 58.2642C59.0384 60.3243 59.0459 62.1005 58.147 63.8537V63.8542C57.9076 64.3858 57.5157 64.835 57.0215 65.1446C56.5273 65.454 55.952 65.6101 55.3691 65.5934C55.1985 65.6022 55.0209 65.6066 54.8414 65.6066C53.4426 65.5607 52.0505 65.3976 50.6789 65.1199L50.649 65.1146C47.4767 64.5706 44.6248 64.091 41.9307 63.6497C41.273 63.5417 40.6298 63.465 40.0078 63.3909C39.7397 63.3587 39.4717 63.327 39.2045 63.2926L38.9674 63.2622L38.7289 63.2732H38.7284C36.4325 63.4214 34.1515 63.7441 31.9045 64.2396L31.1449 64.3925C29.5001 64.7241 27.7993 65.0666 26.1422 65.3329V65.3324C25.439 65.4554 24.7275 65.5216 24.0138 65.5304C23.4923 65.5357 22.9721 65.4792 22.4638 65.3633C21.4957 65.1358 20.641 64.5689 20.0546 63.7657C19.4682 62.9629 19.1887 61.9763 19.2672 60.9848C19.4374 59.5291 19.9571 58.1365 20.782 56.9254C21.6659 55.5302 22.7649 54.2839 24.0385 53.2324C24.2254 53.0701 24.4132 52.9088 24.601 52.7474H24.6014C26.1343 51.5056 27.548 50.1235 28.8243 48.6194C29.7788 47.4325 30.6693 46.2052 31.5303 45.0185C31.7997 44.6469 32.0699 44.2761 32.3406 43.9054C32.5434 43.6285 32.7448 43.3508 32.9445 43.0713L32.945 43.0718C33.6358 42.0582 34.398 41.0954 35.2264 40.1904C36.4555 38.6668 38.3124 37.786 40.2701 37.7984M40.2701 35.0713V35.0709C37.5743 35.059 35.0107 36.2387 33.2667 38.294C32.1351 39.5543 31.0907 40.8906 30.1416 42.2934C29.0064 43.8417 27.9016 45.4159 26.6995 46.9108C25.3478 48.4613 23.86 49.8874 22.2531 51.1716C20.7661 52.41 19.4833 53.8744 18.4509 55.5109C17.4021 57.0904 16.7492 58.8992 16.5473 60.7844C16.4212 62.4226 16.885 64.0515 17.8544 65.378C18.8238 66.704 20.2359 67.64 21.8349 68.0169C22.5495 68.1818 23.2805 68.2629 24.014 68.2581C24.8724 68.2484 25.7289 68.1708 26.5753 68.0253C28.5393 67.7096 30.4901 67.3049 32.4413 66.9135V66.9139C34.5534 66.4466 36.6982 66.1402 38.8566 65.9974C39.7347 66.1102 40.6169 66.198 41.4897 66.3412C44.391 66.8169 47.2908 67.3041 50.1881 67.8031C51.7214 68.1117 53.2785 68.2893 54.8416 68.3343C55.0634 68.3343 55.286 68.3286 55.5091 68.3176V68.3171C56.5706 68.3109 57.6085 68.0054 58.5042 67.4363C59.4005 66.8667 60.1177 66.0564 60.574 65.0985C61.9253 62.4622 61.793 59.8074 60.6155 57.1575C59.7787 55.3756 58.5871 53.7828 57.1134 52.4774C54.2681 49.8271 51.798 46.8006 49.7707 43.4824C48.7677 41.8464 47.8089 40.1826 46.787 38.5585V38.559C45.3917 36.3182 42.9088 34.9894 40.2704 35.071L40.2701 35.0713Z" fill="#222222"/>
<path d="M27.3423 11.3717V14.0988C29.4835 14.0988 32.4768 16.4886 33.8069 20.9183C34.5003 23.0709 34.5444 25.381 33.9329 27.5588C33.638 28.4714 32.9221 30.0685 31.4378 30.5143H31.4373C31.1786 30.5915 30.9096 30.6302 30.639 30.6298C28.4973 30.6298 25.504 28.2399 24.174 23.8103C22.732 19.0072 24.2652 14.8981 26.5435 14.2144C26.8027 14.1372 27.0716 14.0985 27.3419 14.0989L27.3423 11.3718M27.3419 11.3718C26.8058 11.3709 26.2728 11.449 25.7593 11.6024C21.6567 12.8346 19.7778 18.6511 21.5623 24.5945C23.1211 29.7859 26.9592 33.3568 30.6394 33.3568H30.639C31.1751 33.3577 31.7085 33.2801 32.2216 33.1263C36.3242 31.8946 38.203 26.0776 36.4185 20.1342C34.8598 14.9427 31.0217 11.3714 27.3414 11.3718H27.3419Z" fill="#222222"/>
<path d="M51.6901 10.7496V13.4772C51.9625 13.4763 52.2332 13.516 52.4937 13.5944C54.7703 14.2835 56.2943 18.3962 54.8417 23.1956C53.5041 27.6156 50.5082 30.0006 48.3684 30.0006C48.0959 30.0019 47.8248 29.9622 47.5638 29.8833C45.2872 29.1943 43.7632 25.0816 45.2158 20.2821C46.5534 15.8626 49.5498 13.4772 51.6896 13.4772L51.6901 10.7501M51.6892 10.7501C48.013 10.7505 44.1736 14.3108 42.6055 19.4921C40.8077 25.4317 42.6739 31.253 46.7738 32.4933C47.2909 32.6493 47.8283 32.7282 48.3684 32.7273C52.0446 32.7273 55.884 29.1666 57.452 23.9853C59.2498 18.0458 57.3837 12.2245 53.2838 10.9842H53.2842C52.7671 10.8281 52.2297 10.7488 51.6892 10.7496L51.6892 10.7501Z" fill="#222222"/>
<path d="M64.1495 29.3543V32.0813C64.3316 32.0805 64.5128 32.1069 64.6874 32.1598C66.374 32.6703 67.4387 35.956 66.3388 39.5885C65.3262 42.9337 63.0241 44.9329 61.3828 44.9329H61.3832C61.2007 44.9337 61.0195 44.9073 60.8449 44.8544C59.1583 44.3439 58.0936 41.0582 59.1935 37.4257C60.2061 34.0805 62.5087 32.0817 64.1495 32.0813L64.15 29.3543M64.1495 29.3543C61.0874 29.3547 57.8899 32.3198 56.5837 36.6358C55.0861 41.583 56.6406 46.4315 60.0554 47.4648H60.055C60.4857 47.5948 60.9331 47.661 61.3833 47.6601C64.4454 47.6601 67.6429 44.6945 68.9491 40.3785C70.4467 35.4313 68.8923 30.5829 65.4774 29.5496C65.0467 29.4195 64.5992 29.3534 64.1491 29.3543H64.1495Z" fill="#222222"/>
<path d="M14.9935 29.0676V31.7947C16.7027 31.7947 19.0934 33.8675 20.1351 37.3365H20.1347C20.7047 39.0985 20.7431 40.9889 20.2449 42.7726C20.017 43.478 19.4712 44.7101 18.3775 45.0386C18.1932 45.0937 18.0019 45.121 17.8097 45.1206C16.1001 45.1206 13.7093 43.0477 12.6677 39.5787C11.5368 35.8121 12.6628 32.4056 14.4253 31.8767C14.6096 31.822 14.8009 31.7942 14.9931 31.7947V29.0676M14.9927 29.0676H14.9931C14.5351 29.0667 14.0797 29.1333 13.6411 29.2646C10.1368 30.3169 8.5317 35.2858 10.0561 40.363C11.3874 44.798 14.6661 47.8481 17.8097 47.8481C18.2677 47.8486 18.7231 47.782 19.1617 47.6506C22.666 46.5983 24.2715 41.6295 22.7472 36.5523C21.4158 32.1173 18.1372 29.0671 14.9936 29.0671L14.9927 29.0676Z" fill="#222222"/>
</svg>
