<svg width="44" height="43" viewBox="0 0 44 43" fill="none" xmlns="http://www.w3.org/2000/svg">
<path d="M0.875 8C0.875 6.0606 1.64542 4.20064 3.01678 2.82928C4.38814 1.45792 6.2481 0.6875 8.1875 0.6875H35.8125C37.7519 0.6875 39.6119 1.45792 40.9832 2.82928C42.3546 4.20064 43.125 6.0606 43.125 8V35.625C43.125 37.5644 42.3546 39.4244 40.9832 40.7957C39.6119 42.1671 37.7519 42.9375 35.8125 42.9375H8.1875C6.2481 42.9375 4.38814 42.1671 3.01678 40.7957C1.64542 39.4244 0.875 37.5644 0.875 35.625V8ZM8.1875 3.9375C7.11006 3.9375 6.07675 4.36551 5.31488 5.12738C4.55301 5.88925 4.125 6.92256 4.125 8V35.625C4.125 36.3156 4.29725 36.9673 4.60275 37.5376L19.0506 22.261C19.4303 21.8595 19.8879 21.5396 20.3955 21.321C20.903 21.1024 21.4498 20.9897 22.0024 20.9897C22.5551 20.9897 23.1019 21.1024 23.6094 21.321C24.117 21.5396 24.5746 21.8595 24.9543 22.261L39.3972 37.536C39.7027 36.9673 39.875 36.3172 39.875 35.625V8C39.875 6.92256 39.447 5.88925 38.6851 5.12738C37.9233 4.36551 36.8899 3.9375 35.8125 3.9375H8.1875ZM8.1875 39.6875H35.8125C36.1668 39.6875 36.508 39.642 36.8363 39.5575L22.5931 24.4937C22.5172 24.4133 22.4256 24.3493 22.324 24.3055C22.2225 24.2617 22.113 24.2391 22.0024 24.2391C21.8918 24.2391 21.7824 24.2617 21.6808 24.3055C21.5793 24.3493 21.4877 24.4133 21.4117 24.4937L7.16375 39.5575C7.492 39.642 7.83488 39.6875 8.1875 39.6875ZM33.375 13.6875C33.375 13.041 33.1182 12.421 32.6611 11.9639C32.204 11.5068 31.584 11.25 30.9375 11.25C30.291 11.25 29.671 11.5068 29.2139 11.9639C28.7568 12.421 28.5 13.041 28.5 13.6875C28.5 14.334 28.7568 14.954 29.2139 15.4111C29.671 15.8682 30.291 16.125 30.9375 16.125C31.584 16.125 32.204 15.8682 32.6611 15.4111C33.1182 14.954 33.375 14.334 33.375 13.6875ZM36.625 13.6875C36.625 15.1959 36.0258 16.6426 34.9592 17.7092C33.8926 18.7758 32.4459 19.375 30.9375 19.375C29.4291 19.375 27.9824 18.7758 26.9158 17.7092C25.8492 16.6426 25.25 15.1959 25.25 13.6875C25.25 12.1791 25.8492 10.7324 26.9158 9.66583C27.9824 8.59922 29.4291 8 30.9375 8C32.4459 8 33.8926 8.59922 34.9592 9.66583C36.0258 10.7324 36.625 12.1791 36.625 13.6875Z" fill="white"/>
</svg>
