<svg width="79" height="79" viewBox="0 0 79 79" fill="none" xmlns="http://www.w3.org/2000/svg">
<path d="M49.1051 60.3935H39.7199C38.3613 60.3935 37.2614 59.2874 37.2614 57.9349L37.2618 50.0666H31.5801V57.9287C31.5801 59.2874 30.474 60.3873 29.1215 60.3873H19.7425C18.3838 60.3873 17.2839 59.2812 17.2839 57.9287V40.9855C17.2839 40.2903 17.8526 39.7216 18.5478 39.7216C19.243 39.7216 19.8117 40.2903 19.8117 40.9855V57.8655H29.0581V48.8025C29.0581 48.1073 29.6268 47.5386 30.322 47.5386H38.5314C39.2267 47.5386 39.7953 48.1073 39.7953 48.8025V57.8589H49.0417L49.0422 48.9352C49.0422 48.24 49.6109 47.6714 50.306 47.6714C51.0013 47.6714 51.5699 48.2401 51.5699 48.9352V57.9347C51.5638 59.2876 50.4577 60.3933 49.1051 60.3933L49.1051 60.3935Z" fill="#222222"/>
<path d="M19.5084 41.4843C19.3378 41.4843 19.1733 41.4147 19.0468 41.2886C18.8065 41.036 18.8193 40.6374 19.0719 40.3976L33.9871 26.3164C34.2208 26.0951 34.5876 26.089 34.8278 26.2975L42.4753 32.8198C42.7406 33.0473 42.7724 33.4454 42.5449 33.7108C42.3174 33.9762 41.9193 34.0079 41.654 33.7804L34.4364 27.6311L19.9388 41.3071C19.8184 41.427 19.6606 41.4839 19.5089 41.4839L19.5084 41.4843Z" fill="#222222"/>
<path d="M18.5479 42.2484H18.5289L13.4221 42.1659C12.3985 42.147 11.5071 41.5148 11.1531 40.5542C10.7991 39.5936 11.0711 38.5316 11.8422 37.8558L17.4163 32.977V23.2505C17.4163 22.5553 17.985 21.9866 18.6802 21.9866H23.6477C24.3429 21.9866 24.9116 22.5553 24.9116 23.2505V26.4484L32.7547 19.6099C33.6774 18.8072 35.0237 18.7948 35.9589 19.5848L45.1488 27.3645C45.6796 27.8133 45.7492 28.6161 45.2943 29.1469C44.8455 29.6776 44.0427 29.7473 43.5119 29.2923L34.3731 21.5501L24.4761 30.177C24.1031 30.5055 23.5724 30.5817 23.1236 30.3728C22.6748 30.1704 22.3843 29.7155 22.3843 29.2226V24.5078H19.9447V33.5452C19.9447 33.9115 19.7869 34.2594 19.5149 34.493L13.6437 39.6311L18.5671 39.7131C19.2623 39.7258 19.8249 40.3007 19.812 40.9959C19.7992 41.692 19.2367 42.2484 18.5481 42.2484L18.5479 42.2484Z" fill="#222222"/>
<path d="M54.6531 50.1743C46.8545 50.1743 40.5155 43.8291 40.5155 36.0299C40.5155 28.2307 46.8607 21.8855 54.6599 21.8855C62.4591 21.8855 68.8043 28.2307 68.8043 36.0299C68.8043 43.8291 62.4587 50.1743 54.6531 50.1743V50.1743ZM54.6531 24.4203C48.2511 24.4203 43.0367 29.6281 43.0367 36.0367C43.0367 42.4387 48.2445 47.6531 54.6531 47.6531C61.0617 47.6531 66.2695 42.4453 66.2695 36.0367C66.2757 29.6281 61.0617 24.4203 54.6531 24.4203Z" fill="#222222"/>
<path d="M54.6667 42.2483C52.3598 42.2483 50.4831 40.738 50.4831 38.8798C50.4831 38.5324 50.7674 38.2476 51.1153 38.2476C51.4627 38.2476 51.7475 38.5319 51.7475 38.8798C51.7475 40.0361 53.0559 40.9843 54.6672 40.9843C56.2789 40.9843 57.5869 40.0427 57.5869 38.8798C57.5869 37.9064 56.1714 37.3187 54.7999 36.7501L54.035 36.4278C52.3602 35.7326 50.4703 34.9488 50.4703 33.1351C50.4703 31.2769 52.3475 29.7665 54.654 29.7665C56.9609 29.7665 58.8376 31.2769 58.8376 33.1351C58.8376 33.4825 58.5532 33.7673 58.2054 33.7673C57.858 33.7673 57.5732 33.4829 57.5732 33.1351C57.5732 31.9787 56.2647 31.0305 54.6535 31.0305C53.0418 31.0305 51.7337 31.9722 51.7337 33.1351C51.7337 34.1085 53.1493 34.6961 54.5208 35.2648L55.2856 35.5809C56.9604 36.2761 58.8565 37.0599 58.8565 38.8736C58.8504 40.7376 56.9736 42.2483 54.6667 42.2483V42.2483Z" fill="#222222"/>
<path d="M54.6474 31.0247C54.3001 31.0247 54.0153 30.7404 54.0153 30.3925V27.3401C54.0153 26.9927 54.2996 26.7079 54.6474 26.7079C54.9948 26.7079 55.2796 26.9922 55.2796 27.3401V30.3925C55.2792 30.7403 55.0014 31.0247 54.6474 31.0247Z" fill="#222222"/>
<path d="M54.6474 45.3587C54.3001 45.3587 54.0153 45.0743 54.0153 44.7265V41.674C54.0153 41.3267 54.2996 41.0419 54.6474 41.0419C54.9948 41.0419 55.2796 41.3262 55.2796 41.674V44.7265C55.2792 45.0743 55.0014 45.3587 54.6474 45.3587Z" fill="#222222"/>
<path d="M34.4235 40.9471C32.1421 40.9471 30.2839 39.0889 30.2839 36.8075C30.2839 34.5261 32.1421 32.6679 34.4235 32.6679C36.7049 32.6679 38.5631 34.5261 38.5631 36.8075C38.5631 39.0951 36.7049 40.9471 34.4235 40.9471ZM34.4235 33.9381C32.8373 33.9381 31.5479 35.2276 31.5479 36.8137C31.5479 38.3999 32.8374 39.6893 34.4235 39.6893C36.0097 39.6893 37.2991 38.3998 37.2991 36.8137C37.2991 35.2271 36.0096 33.9381 34.4235 33.9381V33.9381Z" fill="#222222"/>
</svg>
