<svg width="190" height="209" viewBox="0 0 190 209" fill="none" xmlns="http://www.w3.org/2000/svg">
<g filter="url(#filter0_d_89_548)">
<path d="M20 28C20 22.3431 20 19.5147 21.7574 17.7574C23.5147 16 26.3431 16 32 16H158C163.657 16 166.485 16 168.243 17.7574C170 19.5147 170 22.3431 170 28V175.835C170 179.475 165.543 181.235 163.057 178.576C161.617 177.037 159.231 176.874 157.595 178.203L153.82 181.271C151.886 182.842 150.919 183.628 149.86 183.973C148.651 184.367 147.349 184.367 146.14 183.973C145.081 183.628 144.114 182.842 142.18 181.271L141.406 180.641C139.468 179.067 138.499 178.28 137.443 177.934C136.192 177.526 134.842 177.539 133.6 177.973C132.55 178.34 131.597 179.146 129.692 180.759L129.569 180.863C127.665 182.474 126.713 183.28 125.681 183.647C124.298 184.138 122.783 184.105 121.423 183.555C120.407 183.144 119.491 182.298 117.658 180.606C116.023 179.096 115.206 178.341 114.29 177.938C113.062 177.397 111.689 177.283 110.39 177.614C109.42 177.861 108.489 178.471 106.628 179.691L103.203 181.935C100.935 183.421 99.8016 184.164 98.5919 184.379C97.6109 184.554 96.602 184.482 95.656 184.169C94.4895 183.783 93.4737 182.885 91.4419 181.091C89.2808 179.182 88.2002 178.228 86.966 177.847C85.966 177.538 84.9026 177.496 83.8815 177.726C82.6212 178.009 81.4692 178.876 79.1651 180.609L78.3578 181.217C75.5918 183.298 74.2088 184.338 72.6289 184.538C72.1953 184.593 71.757 184.601 71.3219 184.561C69.736 184.414 68.3185 183.421 65.4835 181.435L63.4094 179.982C61.558 178.685 60.6324 178.037 59.6601 177.76C58.3215 177.379 56.892 177.476 55.6166 178.033C54.6902 178.437 53.8599 179.204 52.1992 180.737C50.4244 182.376 49.537 183.196 48.5536 183.605C47.1995 184.168 45.6861 184.216 44.2992 183.739C43.2919 183.393 42.3545 182.631 40.4797 181.108L37.7782 178.913C37.5867 178.757 37.4909 178.679 37.4026 178.613C35.3621 177.076 32.5725 177 30.451 178.423C30.3591 178.484 30.2593 178.557 30.0596 178.702C29.602 179.034 29.3731 179.2 29.2164 179.299C25.3615 181.747 20.2939 179.163 20.0115 174.605C20 174.42 20 174.137 20 173.572V143.5V101V28Z" fill="white"/>
</g>
<defs>
<filter id="filter0_d_89_548" x="0" y="0" width="190" height="208.586" filterUnits="userSpaceOnUse" color-interpolation-filters="sRGB">
<feFlood flood-opacity="0" result="BackgroundImageFix"/>
<feColorMatrix in="SourceAlpha" type="matrix" values="0 0 0 0 0 0 0 0 0 0 0 0 0 0 0 0 0 0 127 0" result="hardAlpha"/>
<feOffset dy="4"/>
<feGaussianBlur stdDeviation="10"/>
<feComposite in2="hardAlpha" operator="out"/>
<feColorMatrix type="matrix" values="0 0 0 0 0 0 0 0 0 0 0 0 0 0 0 0 0 0 0.06 0"/>
<feBlend mode="normal" in2="BackgroundImageFix" result="effect1_dropShadow_89_548"/>
<feBlend mode="normal" in="SourceGraphic" in2="effect1_dropShadow_89_548" result="shape"/>
</filter>
</defs>
</svg>
