<svg width="28" height="28" viewBox="0 0 28 28" fill="none" xmlns="http://www.w3.org/2000/svg">
<path d="M21.8203 2.3756C21.6417 2.19704 21.4297 2.0554 21.1963 1.95878C20.963 1.86217 20.7129 1.81246 20.4603 1.8125H4.59014C4.22536 1.81242 3.86413 1.88421 3.52709 2.02377C3.19006 2.16334 2.88382 2.36793 2.62588 2.62588C2.36793 2.88382 2.16334 3.19006 2.02377 3.52709C1.88421 3.86413 1.81242 4.22536 1.8125 4.59014V24.0349C1.81242 24.3996 1.88421 24.7609 2.02377 25.0979C2.16334 25.4349 2.36793 25.7412 2.62588 25.9991C2.88382 26.2571 3.19006 26.4617 3.52709 26.6012C3.86413 26.7408 4.22536 26.8126 4.59014 26.8125H24.0349C24.7708 26.8103 25.4761 26.5169 25.9965 25.9965C26.5169 25.4761 26.8103 24.7708 26.8125 24.0349V8.16466C26.8125 7.91211 26.7628 7.66201 26.6662 7.42867C26.5696 7.19532 26.428 6.98329 26.2494 6.80469L21.8203 2.3756ZM14.3125 23.9279C13.5518 23.9279 12.8082 23.7023 12.1757 23.2797C11.5432 22.8571 11.0502 22.2564 10.7591 21.5536C10.468 20.8508 10.3918 20.0775 10.5402 19.3314C10.6887 18.5853 11.055 17.9 11.5929 17.3621C12.1308 16.8242 12.8161 16.4579 13.5622 16.3095C14.3082 16.1611 15.0816 16.2372 15.7844 16.5283C16.4872 16.8195 17.0878 17.3124 17.5105 17.9449C17.9331 18.5774 18.1587 19.321 18.1587 20.0817C18.1593 20.587 18.0602 21.0874 17.8672 21.5543C17.6741 22.0213 17.3908 22.4455 17.0336 22.8028C16.6763 23.1601 16.252 23.4433 15.7851 23.6364C15.3182 23.8295 14.8178 23.9285 14.3125 23.9279V23.9279ZM17.1971 10.4663H5.65865C5.40364 10.4663 5.15907 10.365 4.97874 10.1847C4.79842 10.0044 4.69712 9.75982 4.69712 9.50481V5.65865C4.69712 5.40364 4.79842 5.15907 4.97874 4.97874C5.15907 4.79842 5.40364 4.69712 5.65865 4.69712H17.1971C17.4521 4.69712 17.6967 4.79842 17.877 4.97874C18.0573 5.15907 18.1587 5.40364 18.1587 5.65865V9.50481C18.1587 9.75982 18.0573 10.0044 17.877 10.1847C17.6967 10.365 17.4521 10.4663 17.1971 10.4663Z" stroke="white" stroke-width="2" stroke-linecap="round" stroke-linejoin="round"/>
</svg>
