<svg width="24" height="28" viewBox="0 0 24 28" fill="none" xmlns="http://www.w3.org/2000/svg">
<path d="M18.6251 17.75C17.9998 17.749 17.3808 17.8741 16.8049 18.1177C16.2291 18.3613 15.7082 18.7185 15.2735 19.168L9.8712 15.6992C10.2929 14.6057 10.2929 13.3943 9.8712 12.3008L15.2735 8.83203C16.0335 9.60928 17.04 10.0982 18.1208 10.2152C19.2016 10.3321 20.2894 10.0698 21.198 9.47313C22.1067 8.87645 22.7797 7.9825 23.1019 6.94429C23.4242 5.90608 23.3755 4.78815 22.9643 3.78185C22.5532 2.77555 21.805 1.94345 20.848 1.42795C19.8909 0.912452 18.7844 0.745618 17.7179 0.956002C16.6514 1.16639 15.6912 1.74091 15.0016 2.58123C14.3119 3.42156 13.9358 4.47544 13.9376 5.5625C13.9395 6.14337 14.0467 6.7191 14.254 7.26172L8.85167 10.7305C8.20126 10.0623 7.36633 9.60323 6.45365 9.41206C5.54096 9.22089 4.592 9.30628 3.72811 9.65731C2.86421 10.0083 2.12465 10.609 1.60397 11.3826C1.08329 12.1562 0.805176 13.0675 0.805176 14C0.805176 14.9325 1.08329 15.8438 1.60397 16.6174C2.12465 17.391 2.86421 17.9917 3.72811 18.3427C4.592 18.6937 5.54096 18.7791 6.45365 18.5879C7.36633 18.3968 8.20126 17.9377 8.85167 17.2695L14.254 20.7383C14.0467 21.2809 13.9395 21.8566 13.9376 22.4375C13.9376 23.3646 14.2125 24.2709 14.7276 25.0417C15.2427 25.8126 15.9747 26.4134 16.8313 26.7682C17.6878 27.123 18.6303 27.2158 19.5396 27.0349C20.4489 26.8541 21.2841 26.4076 21.9397 25.7521C22.5952 25.0965 23.0417 24.2613 23.2225 23.352C23.4034 22.4427 23.3106 21.5002 22.9558 20.6437C22.601 19.7871 22.0002 19.0551 21.2293 18.54C20.4585 18.0249 19.5522 17.75 18.6251 17.75ZM18.6251 2.75C19.1814 2.75 19.7251 2.91495 20.1876 3.22399C20.6502 3.53303 21.0106 3.97228 21.2235 4.4862C21.4364 5.00012 21.4921 5.56562 21.3836 6.11119C21.275 6.65676 21.0072 7.1579 20.6138 7.55124C20.2205 7.94457 19.7194 8.21244 19.1738 8.32096C18.6282 8.42948 18.0627 8.37378 17.5488 8.16091C17.0349 7.94804 16.5956 7.58755 16.2866 7.12504C15.9776 6.66253 15.8126 6.11876 15.8126 5.5625C15.8157 4.81753 16.113 4.10395 16.6398 3.57717C17.1666 3.05039 17.8801 2.75308 18.6251 2.75ZM5.5001 16.8125C4.94384 16.8125 4.40008 16.6475 3.93756 16.3385C3.47505 16.0295 3.11456 15.5902 2.90169 15.0763C2.68882 14.5624 2.63313 13.9969 2.74165 13.4513C2.85017 12.9057 3.11803 12.4046 3.51137 12.0113C3.9047 11.6179 4.40584 11.3501 4.95141 11.2415C5.49698 11.133 6.06248 11.1887 6.5764 11.4016C7.09032 11.6145 7.52957 11.9749 7.83861 12.4375C8.14765 12.9 8.3126 13.4437 8.3126 14C8.30952 14.745 8.01221 15.4585 7.48543 15.9853C6.95866 16.5121 6.24508 16.8094 5.5001 16.8125ZM18.6251 25.25C18.0688 25.25 17.5251 25.085 17.0626 24.776C16.6 24.467 16.2396 24.0277 16.0267 23.5138C15.8138 22.9999 15.7581 22.4344 15.8666 21.8888C15.9752 21.3432 16.243 20.8421 16.6364 20.4488C17.0297 20.0554 17.5308 19.7876 18.0764 19.679C18.622 19.5705 19.1875 19.6262 19.7014 19.8391C20.2153 20.052 20.6546 20.4124 20.9636 20.875C21.2727 21.3375 21.4376 21.8812 21.4376 22.4375C21.4345 23.1825 21.1372 23.896 20.6104 24.4228C20.0837 24.9496 19.3701 25.2469 18.6251 25.25Z" fill="white"/>
</svg>
