<svg width="79" height="79" viewBox="0 0 79 79" fill="none" xmlns="http://www.w3.org/2000/svg">
<path d="M62.1292 43.1268L69.7655 19.8218C70.0287 19.1636 69.6337 18.11 68.5805 18.11H21.5755L19.4692 11.9218C19.3373 11.395 18.8105 11 18.2842 11H11.9642C11.1742 11 10.6473 11.5268 10.6473 12.3168C10.6473 13.1068 11.1742 13.6336 11.9642 13.6336H17.3623L29.4753 50.2366C29.6071 50.7634 30.1335 51.1584 30.6603 51.1584H63.1823C63.9723 51.1584 64.4992 50.6316 64.4992 49.8416C64.4992 49.0516 63.9723 48.5248 63.1823 48.5248H31.5823L30.1342 44.048H60.8121C61.4703 44.0484 61.9971 43.6534 62.1289 43.1266L62.1292 43.1268ZM58.8373 20.7439H66.7373L64.2355 28.3807H58.8373V20.7439ZM31.7144 41.4148H29.3444L25.9212 31.013H31.7144V41.4148ZM31.7144 28.2489H24.9994L22.4976 20.6121H31.7144V28.2489ZM43.9594 41.4148H34.3476V31.013H43.9594V41.4148ZM43.9594 28.2489H34.3476V20.7439H43.9594V28.2489ZM56.2044 41.4148H46.5926V31.013H56.2044V41.4148ZM56.2044 28.2489H46.5926V20.7439H56.2044V28.2489ZM58.8376 41.4148V31.013H63.3144L59.8912 41.4148H58.8376Z" fill="#222222"/>
<path d="M29.6071 61.2968C29.6071 65.115 32.6352 68.1437 36.4539 68.1437C40.2721 68.1437 43.3007 65.1155 43.3007 61.2968C43.3007 57.4786 40.2725 54.45 36.4539 54.45C32.6352 54.45 29.6071 57.61 29.6071 61.2968ZM40.6671 61.2968C40.6671 63.6668 38.8239 65.51 36.4539 65.51C34.0839 65.51 32.2407 63.6668 32.2407 61.2968C32.2407 58.9268 34.0839 57.0836 36.4539 57.0836C38.8239 57.0836 40.6671 59.0586 40.6671 61.2968Z" fill="#222222"/>
<path d="M58.8371 54.4498C55.0189 54.4498 51.9902 57.478 51.9902 61.2966C51.9902 65.1148 55.0184 68.1434 58.8371 68.1434C62.6552 68.1434 65.6839 65.1153 65.6839 61.2966C65.6839 57.6098 62.6552 54.4498 58.8371 54.4498V54.4498ZM58.8371 65.5098C56.4671 65.5098 54.6239 63.6666 54.6239 61.2966C54.6239 58.9266 56.4671 57.0834 58.8371 57.0834C61.2071 57.0834 63.0502 58.9266 63.0502 61.2966C63.0502 63.6666 61.2071 65.5098 58.8371 65.5098Z" fill="#222222"/>
</svg>
