<svg width="68" height="57" viewBox="0 0 68 57" fill="none" xmlns="http://www.w3.org/2000/svg">
<path d="M67.9518 32.1961V32.1314C68.1348 29.124 67.7957 26.1072 66.9489 23.2152C66.8799 22.9789 66.6949 22.794 66.4586 22.7249C63.5754 21.8839 60.5683 21.5496 57.5715 21.7365H57.4918C56.2798 21.8158 55.0746 21.98 53.8853 22.2268C53.8061 22.2326 53.7283 22.2495 53.6544 22.2776C53.2651 22.364 52.8825 22.4505 52.5004 22.5514C53.5636 17.4215 52.3879 12.0808 49.2678 7.8716C46.1482 3.66229 41.3805 0.983784 36.1621 0.50843C30.9447 0.0335947 25.7717 1.80687 21.9435 5.38341H21.9001V5.41964C18.2135 8.88982 16.1247 13.7301 16.1295 18.7936C16.1295 19.1617 16.1295 19.5148 16.1803 19.8974H16.1798C14.6297 20.1708 13.1216 20.6437 11.6932 21.304C6.2651 23.7854 2.38089 28.7483 1.27622 34.6137C0.171963 40.479 1.98535 46.5146 6.13859 50.7998L6.18931 50.8505C9.63736 54.413 14.3814 56.4269 19.3395 56.4336C20.9997 56.4302 22.6517 56.2046 24.2522 55.7626H24.3241C27.835 54.7747 30.9734 52.7663 33.3413 49.9921C33.491 51.6678 33.8026 53.3246 34.2716 54.9405C34.3407 55.1772 34.5257 55.3622 34.7619 55.4313C39.3349 56.7771 44.1906 56.8354 48.795 55.5999C53.3986 54.3642 57.5725 51.8827 60.8573 48.428C64.1417 44.9731 66.4095 40.6799 67.4114 36.0198C67.4331 35.9541 67.4476 35.8865 67.4544 35.8179C67.7036 34.6238 67.8698 33.4138 67.9524 32.1965L67.9518 32.1961ZM55.4508 23.3886C56.0566 23.2949 56.6628 23.2229 57.2758 23.1722L66.4876 32.4197C66.4369 33.0327 66.3649 33.6389 66.2712 34.2447L55.4508 23.3886ZM57.6656 32.4052C57.7526 32.4878 57.8023 32.6028 57.8028 32.7226C57.8028 32.8429 57.7535 32.9579 57.6656 33.04L56.4247 34.2877V34.2882C56.145 34.5693 56.145 35.0239 56.4247 35.3055L57.4782 36.3731C57.5618 36.4571 57.6086 36.5716 57.6077 36.6904C57.611 36.8097 57.5637 36.9247 57.4782 37.0078L57.0961 37.3899H57.0956C56.9193 37.5623 56.6372 37.5623 56.4609 37.3899L55.4078 36.3296C55.2721 36.1929 55.0881 36.1161 54.8953 36.1161C54.7031 36.1161 54.519 36.1929 54.3833 36.3296L52.5656 38.1473C52.4323 38.2816 52.3574 38.4632 52.3564 38.6525C52.3555 38.8443 52.4303 39.0284 52.5656 39.1646L53.6186 40.2176C53.7051 40.3007 53.7539 40.4152 53.7539 40.535C53.7539 40.6548 53.7051 40.7693 53.6186 40.8524L53.2366 41.2344V41.2349C53.1535 41.3214 53.039 41.3702 52.9192 41.3702C52.7994 41.3702 52.6844 41.3214 52.6018 41.2349L51.5483 40.1814C51.4126 40.0466 51.228 39.9713 51.0363 39.9722C50.8469 39.9732 50.6658 40.0486 50.5315 40.1814L48.7138 41.9996C48.5761 42.1344 48.4979 42.3189 48.4974 42.5116C48.4979 42.7044 48.5761 42.8889 48.7138 43.0237L49.7596 44.0695V44.0699C49.8465 44.154 49.8953 44.2699 49.8953 44.3907C49.8953 44.5115 49.8465 44.6274 49.7596 44.7119L49.3775 45.094H49.377C49.2007 45.2665 48.9191 45.2665 48.7423 45.094L47.6892 44.041C47.4081 43.7613 46.9535 43.7613 46.6719 44.041L45.1715 45.5414C44.9952 45.7138 44.7136 45.7138 44.5368 45.5414L44.1547 45.1593V45.1588C44.0678 45.0747 44.0185 44.9588 44.0185 44.838C44.0185 44.7173 44.0678 44.6013 44.1547 44.5168L45.6478 43.0237C45.7855 42.8889 45.8632 42.7044 45.8642 42.5117C45.8632 42.3189 45.7855 42.1344 45.6478 41.9996L44.5875 40.9461C44.503 40.8625 44.4552 40.7481 44.4552 40.6287C44.4552 40.5099 44.503 40.3954 44.5875 40.3114L44.9696 39.9293C45.0575 39.8462 45.1734 39.7998 45.2942 39.7993C45.413 39.7989 45.5275 39.8452 45.6116 39.9293L46.6646 40.9823C46.9462 41.262 47.4008 41.262 47.6819 40.9823L49.4996 39.1646C49.6349 39.0284 49.7102 38.8444 49.7088 38.6526C49.7083 38.4633 49.633 38.2816 49.4996 38.1473L48.4538 37.0943C48.2804 36.9151 48.2804 36.631 48.4538 36.4523L48.8359 36.0702V36.0697C49.018 35.9041 49.2963 35.9041 49.4779 36.0697L50.5314 37.0943C50.8126 37.374 51.2671 37.374 51.5483 37.0943L53.366 35.2766H53.3664C53.6461 34.995 53.6461 34.5409 53.3664 34.2593L52.3134 33.2062H52.3129C52.2293 33.1217 52.1825 33.0077 52.183 32.8889C52.1801 32.7696 52.2269 32.6541 52.3129 32.5715L52.695 32.1822L52.6955 32.1817C52.7795 32.0972 52.8935 32.0498 53.0128 32.0498C53.1322 32.0498 53.2462 32.0972 53.3302 32.1817L54.3833 33.2275V33.228C54.519 33.3642 54.703 33.441 54.8953 33.441C55.088 33.441 55.2721 33.3642 55.4078 33.228L56.6483 32.045C56.8251 31.8725 57.1067 31.8725 57.283 32.045L57.6656 32.4052ZM57.9612 30.7387V30.7391C57.597 30.5232 57.1719 30.4324 56.7512 30.4807C56.3309 30.529 55.9372 30.7135 55.6315 31.0058L54.9103 31.727L54.3693 31.186L54.3688 31.1864C54.0132 30.8324 53.5321 30.6338 53.0308 30.6338C52.5293 30.6338 52.0482 30.8324 51.6927 31.1864L51.3106 31.5685C50.9532 31.9236 50.7532 32.4066 50.7551 32.9105C50.7518 33.4119 50.9522 33.8935 51.3106 34.2447L51.8517 34.7857L51.0508 35.5866L50.5097 35.0456C50.1489 34.7022 49.6697 34.5104 49.1717 34.5104C48.6732 34.5104 48.1945 34.7022 47.8337 35.0456L47.4729 35.4349C47.1154 35.7885 46.9145 36.2706 46.9145 36.773C46.9145 37.2758 47.1154 37.7579 47.4729 38.1115L48.0139 38.6525L47.213 39.4534L46.672 38.9124V38.9119C46.3184 38.5549 45.8368 38.3535 45.3339 38.3535C44.8316 38.3535 44.3495 38.5549 43.9959 38.9119L43.6138 39.294V39.2945C43.2598 39.65 43.0612 40.1311 43.0612 40.6325C43.0612 41.1339 43.2598 41.615 43.6138 41.9705L44.1549 42.5115L43.1448 43.4998C42.839 43.8095 42.6487 44.2147 42.6052 44.6481C42.5622 45.0809 42.6685 45.5161 42.9066 45.8803L41.1898 47.5536L35.4188 41.7826V41.783C36.4922 37.3698 38.776 33.3436 42.0129 30.1574C45.2499 26.9716 49.3118 24.752 53.7415 23.7487L59.3391 29.3464L57.9612 30.7387ZM44.429 54.8761L34.8206 45.2605C34.8781 44.6547 34.9578 44.0557 35.0587 43.4645L46.2322 54.6308C45.6337 54.739 45.0352 54.8182 44.4289 54.8762L44.429 54.8761ZM25.8328 39.7709L23.7987 33.4878L28.776 27.7819H32.8298C34.6054 30.0943 35.7488 32.8288 36.1483 35.717C34.877 38.1859 34.0099 40.8432 33.5799 43.587L31.8704 44.3081L25.8328 39.7709ZM7.44555 50.0792L7.79914 45.4554L13.5702 41.1272L18.6195 44.8419V51.1824L14.3851 54.2556C11.7694 53.4421 9.38893 52.0094 7.4456 50.0792H7.44555ZM6.0964 48.5861C5.10566 47.3398 4.29465 45.9608 3.68748 44.4888L6.3133 45.5491L6.0964 48.5861ZM19.3405 43.587L14.2912 39.937L16.2026 34.0365H22.4138L24.3899 39.937L19.3405 43.587ZM12.5599 22.5237C14.7013 21.5716 17.0185 21.0798 19.3623 21.0808C21.7268 21.076 24.0663 21.5677 26.2293 22.5237L27.6722 26.8519L22.6949 32.5577H16.0582L11.1383 26.8519L12.5599 22.5237ZM37.2514 33.7914C36.8292 32.0162 36.1433 30.3139 35.2173 28.7415V19.5515H40.541C40.642 22.3721 41.3637 25.1356 42.6549 27.645C42.024 28.1575 41.4198 28.7015 40.8439 29.2754C39.4798 30.64 38.2746 32.1548 37.2514 33.7915V33.7914ZM28.9704 26.3321L28.0473 23.497V23.4975C29.3544 24.2781 30.551 25.2316 31.6036 26.3321L28.9704 26.3321ZM35.21 18.1086V1.90032C39.0111 2.05731 42.6466 3.4963 45.5256 5.98362C42.4688 9.30072 40.6985 13.6014 40.5338 18.1092L35.21 18.1086ZM33.7671 18.1086H28.4439C28.2782 13.6031 26.5078 9.30504 23.452 5.98981C26.3315 3.50359 29.9665 2.06257 33.7676 1.89983L33.7671 18.1086ZM28.4216 19.5515H33.7675V26.6283C32.2397 24.714 30.3465 23.1222 28.1984 21.9466C28.3259 21.1539 28.4032 20.3539 28.4293 19.5516L28.4216 19.5515ZM32.5116 45.5204L33.37 45.1813C33.2908 46.0179 33.2473 46.8619 33.2473 47.7135C33.0743 47.9589 32.9009 48.2038 32.7208 48.4347L32.5116 45.5204ZM65.6936 23.9736H65.6946C66.2709 26.0779 66.5665 28.2486 66.5743 30.4301L59.2309 23.1225C61.4152 23.1225 63.5894 23.4186 65.6947 24.0026L65.6936 23.9736ZM43.8081 26.7367C42.6937 24.4891 42.0715 22.0299 41.9831 19.5228H51.4252C51.3779 20.6986 51.2083 21.8661 50.9204 23.0071C48.3704 23.8732 45.9706 25.1316 43.8079 26.7367H43.8081ZM51.433 18.0804H41.9831C42.1459 13.9353 43.78 9.98444 46.5923 6.93544C49.5374 9.92941 51.263 13.9127 51.4325 18.1089L51.433 18.0804ZM22.3986 6.97118C25.2027 10.0222 26.8334 13.9687 27.0006 18.1089H17.5651C17.739 13.9257 19.4616 9.95587 22.3986 6.97118ZM17.5796 19.5513H26.9571C26.9571 20.1213 26.8851 20.6908 26.8127 21.2608H26.8131C24.4641 20.2005 21.9169 19.6498 19.3398 19.645C18.7413 19.645 18.1495 19.645 17.565 19.7315C17.5867 19.674 17.5795 19.6165 17.5795 19.5513L17.5796 19.5513ZM10.7338 23.4539L9.80347 26.3392H7.12014C8.18769 25.2175 9.40355 24.2466 10.7344 23.4539H10.7338ZM5.87913 27.782H9.99817L14.918 33.4879L12.8477 39.7782L6.95399 44.2581L3.05866 42.6857V42.6852C1.59302 37.5485 2.63889 32.0214 5.87925 27.7754L5.87913 27.782ZM16.2454 54.7031L19.3398 52.4381L22.4559 54.7031C21.4285 54.8973 20.3851 54.9939 19.3398 54.992C18.3017 54.9901 17.2656 54.8934 16.2454 54.7031ZM24.31 54.2558L20.0611 51.1831V44.8421L25.1974 41.1125L31.0477 45.4406L31.365 49.9707V49.9712C29.3986 51.9541 26.9766 53.4255 24.31 54.2558L24.31 54.2558ZM35.5705 54.1191C34.9555 51.8633 34.6643 49.5315 34.7048 47.1941L42.5028 54.9847C40.1624 55.0282 37.8283 54.7369 35.5705 54.1191ZM59.3753 47.8288C56.2143 51.0001 52.245 53.2453 47.8984 54.321L42.2071 48.5718L43.9384 46.8695C44.2949 47.0733 44.7094 47.1535 45.1166 47.0975C45.5233 47.0414 45.9005 46.8521 46.1889 46.5593L47.1773 45.571L47.7255 46.112C48.0791 46.469 48.5607 46.67 49.0635 46.67C49.5659 46.67 50.048 46.469 50.4016 46.112L50.7837 45.7299V45.7295C51.1377 45.3739 51.3363 44.8928 51.3363 44.3914C51.3363 43.89 51.1377 43.4089 50.7837 43.0534L50.2426 42.5124L51.0363 41.7115L51.5773 42.2598C51.9343 42.6138 52.4164 42.8129 52.9193 42.8129C53.4217 42.8129 53.9042 42.6138 54.2608 42.2598L54.6429 41.8777H54.6433C54.9974 41.5207 55.196 41.0386 55.196 40.5357C55.196 40.0333 54.9974 39.5508 54.6433 39.1942L54.0951 38.6532L54.896 37.8596L55.437 38.4006H55.4365C55.7974 38.744 56.2765 38.9358 56.775 38.9358C57.273 38.9358 57.7522 38.744 58.113 38.4006L58.4951 38.0185V38.018C58.8521 37.6634 59.0526 37.1799 59.0506 36.6765C59.0535 36.1746 58.8531 35.6935 58.4951 35.3418L57.9541 34.7936L58.6753 34.0724C59.0299 33.7154 59.2294 33.2333 59.2308 32.7304C59.2439 32.3952 59.169 32.0619 59.0144 31.7638L60.3921 30.3645L65.983 35.9553C64.9541 40.456 62.6707 44.573 59.397 47.8288L59.3753 47.8288Z" fill="#222222"/>
</svg>
