<svg width="79" height="79" viewBox="0 0 79 79" fill="none" xmlns="http://www.w3.org/2000/svg">
<path d="M43.4039 59.206C42.859 59.1928 42.4279 58.7391 42.4411 58.1943C42.4543 57.6494 42.908 57.2169 43.4528 57.2315C56.6052 57.4894 67.1066 46.9134 67.1066 34.107C67.1066 21.4715 56.8489 10.9758 43.9754 10.9758C30.612 10.9758 20.0429 22.3044 20.8904 35.5753C21.2969 42.0681 24.4591 48.1273 29.5637 52.2003C29.9896 52.5397 30.0597 53.1613 29.7202 53.5872C29.3808 54.013 28.7592 54.0831 28.3333 53.7437C25.7354 51.6695 23.4593 49.0116 21.7814 45.8507C20.1071 42.6916 19.1443 39.2763 18.9195 35.6975C18.0149 21.0915 29.6039 9 43.9749 9C57.836 9 69.08 20.235 69.08 34.1051C69.08 44.379 62.8825 53.3732 53.7472 57.2374C50.4139 58.6472 46.8448 59.2966 43.4036 59.2054L43.4039 59.206Z" fill="#222222"/>
<path d="M38.6379 58.644C38.0864 58.5249 37.5314 58.3843 36.9896 58.2278C36.4659 58.0762 36.1639 57.5295 36.3155 57.0058C36.4672 56.4821 37.0139 56.1801 37.5376 56.3317C38.0353 56.4754 38.5462 56.6042 39.0549 56.7135C39.5884 56.8294 39.9265 57.3549 39.8123 57.8867C39.6924 58.4386 39.1471 58.76 38.6379 58.644L38.6379 58.644Z" fill="#222222"/>
<path d="M64.9641 46.2895C64.4532 46.1004 64.1922 45.5321 64.3817 45.0199C64.9839 43.3931 64.9905 42.0058 64.4029 40.8931C63.4321 39.0574 61.0431 38.2234 59.7048 37.8906C59.204 37.7667 58.6767 37.7583 58.1398 37.8659C53.987 38.7079 51.0805 36.557 49.7914 32.3946C49.2677 30.7008 49.7165 28.8405 50.9632 27.5417C51.4578 27.0259 51.4512 26.6477 51.4023 26.4061C51.1118 24.957 48.1858 23.2748 46.8237 22.6906C46.8206 22.6889 46.8153 22.6876 46.8122 22.6858C44.6402 21.7164 43.3251 20.3197 42.9023 18.533C42.3212 16.0758 43.4833 13.0568 46.3519 9.5613C46.6979 9.14029 47.3195 9.07813 47.7423 9.4242C48.1633 9.77027 48.2254 10.3919 47.8794 10.8146C46.3553 12.6714 44.2697 15.7278 44.8248 18.0811C45.1007 19.2511 46.0128 20.1681 47.6118 20.8831C47.7242 20.9321 48.9008 21.4492 50.1511 22.2687C52.0097 23.4859 53.0818 24.7476 53.3397 26.0168C53.4848 26.7349 53.4376 27.8199 52.3901 28.9118C51.6394 29.6917 51.3687 30.8048 51.6804 31.8117C52.7133 35.1502 54.7562 36.5376 57.7508 35.9305C58.5783 35.7625 59.3974 35.7771 60.1856 35.9746C65.2752 37.2407 68.1081 40.645 66.238 45.7067C66.0392 46.2243 65.4665 46.4791 64.964 46.2895L64.9641 46.2895Z" fill="#222222"/>
<path d="M19.0945 36.2136C18.7453 35.7944 18.8022 35.1723 19.2219 34.8232C19.6411 34.4741 20.2632 34.5309 20.6123 34.9506C26.5668 42.1096 34.417 35.4779 34.2296 32.6988C34.2164 32.4982 34.1838 32.0247 33.2456 31.7897C29.5791 30.8794 28.272 28.084 29.6703 24.3178C30.1076 23.143 30.6574 22.2894 30.6803 22.2551C30.7195 22.1947 30.7649 22.1392 30.8174 22.0885C33.1654 19.7877 33.053 17.2356 30.4731 14.285C30.1142 13.8737 30.1566 13.2503 30.5661 12.8914C30.9774 12.5326 31.6008 12.5749 31.9597 12.9844C35.1955 16.6835 35.3084 20.3832 32.2828 23.4149C31.767 24.2521 30.7063 26.4828 31.2433 28.0395C31.6088 29.0953 32.6404 29.601 33.7253 29.8752C35.207 30.2473 36.1076 31.2281 36.1993 32.5679C36.5158 37.281 26.2648 44.8219 19.0947 36.2137L19.0945 36.2136Z" fill="#222222"/>
<path d="M23.9519 63.2147L12.533 55.1079C11.9555 54.6984 11.9846 53.8286 12.5934 53.4583L18.7552 49.7217C19.0734 49.5291 19.4715 49.5308 19.7881 49.7266L26.0168 53.5924L46.8908 40.9501C51.1415 38.3752 56.6604 39.7392 59.2261 43.9806C59.5082 44.4474 59.3601 45.0545 58.8933 45.3366L29.0651 63.4006C27.4736 64.3629 25.4696 64.2928 23.9521 63.2141L23.9519 63.2147ZM14.9017 54.3673L25.0954 61.6042C25.9683 62.2245 27.1255 62.2668 28.0408 61.7118L56.9661 44.1941C54.8478 41.5944 51.005 40.7656 47.9128 42.6388L26.5219 55.5937C26.2036 55.7863 25.8055 55.7846 25.4889 55.5888L19.2603 51.723L14.9017 54.3673Z" fill="#222222"/>
<path d="M34.2162 50.3648L26.124 45.9832C25.8123 45.8152 25.6148 45.4921 25.6068 45.1381C25.5985 44.7841 25.7797 44.4526 26.0816 44.2701L28.975 42.5177C29.1888 42.389 29.4449 42.3449 29.6896 42.3952L41.0757 44.7811C41.6092 44.8935 41.9521 45.4159 41.8393 45.9494C41.7269 46.4828 41.2044 46.8258 40.671 46.7129L29.6644 44.4073L28.5777 45.065L35.1538 48.627C35.6335 48.8867 35.8116 49.4853 35.5519 49.9649C35.3029 50.4349 34.7121 50.6293 34.2157 50.3648L34.2162 50.3648Z" fill="#222222"/>
<path d="M37.9765 65.5486L37.8412 56.3468C37.8328 55.8019 38.2688 55.3531 38.8137 55.3447C39.3912 55.3447 39.8074 55.7966 39.8157 56.3172L39.9251 63.7958L41.0118 63.1381L44.0664 52.3157C44.2149 51.7902 44.7598 51.4851 45.2853 51.6337C45.8108 51.7822 46.1159 52.3271 45.9673 52.8526L42.8064 64.0502C42.7381 64.2918 42.5811 64.4972 42.3673 64.6264L39.474 66.3787C38.8299 66.7755 37.9861 66.3139 37.9764 65.5486L37.9765 65.5486Z" fill="#222222"/>
<path d="M50.7316 45.5232C48.7703 45.5232 46.8954 44.4462 45.9604 42.5744C45.717 42.0863 45.9163 41.4943 46.4043 41.2509C46.8923 41.0075 47.4844 41.2068 47.7278 41.6948C48.5795 43.4326 50.7745 44.0838 52.4537 43.0672C53.1833 42.625 53.7118 41.9298 53.9402 41.1089C54.087 40.5834 54.6319 40.2765 55.1574 40.4234C55.6829 40.5702 55.9897 41.115 55.8429 41.6405C55.19 43.9749 53.0705 45.523 50.7317 45.523L50.7316 45.5232Z" fill="#222222"/>
<path d="M28.1185 57.8416L27.6795 57.1173C27.3973 56.6504 27.5454 56.0433 28.0123 55.7612C28.4792 55.479 29.0862 55.6271 29.3684 56.094L29.8075 56.8183C30.0896 57.2852 29.9415 57.8922 29.4746 58.1744C29.0175 58.4552 28.4056 58.315 28.1185 57.8416Z" fill="#222222"/>
<path d="M30.9445 56.1295L30.5054 55.4052C30.2232 54.9383 30.3714 54.3313 30.8382 54.0491C31.3051 53.7669 31.9121 53.9151 32.1943 54.3819L32.6334 55.1063C32.9155 55.5731 32.7674 56.1802 32.3006 56.4624C31.832 56.7467 31.2267 56.5964 30.9445 56.1295Z" fill="#222222"/>
<path d="M33.7693 54.4197L33.3302 53.6954C33.0481 53.2286 33.1962 52.6215 33.6631 52.3393C34.1299 52.0571 34.737 52.2053 35.0192 52.6722L35.4582 53.3965C35.7404 53.8633 35.5923 54.4704 35.1254 54.7526C34.6524 55.0382 34.0502 54.8831 33.7693 54.4197Z" fill="#222222"/>
<path d="M37.4394 53.1839C37.1048 53.1839 36.7803 53.0142 36.5943 52.7074L36.1552 51.9831C35.873 51.5162 36.0212 50.9092 36.488 50.627C36.9549 50.3448 37.5619 50.493 37.8441 50.9598L38.2832 51.6841C38.6861 52.3503 38.195 53.1839 37.4394 53.1839L37.4394 53.1839Z" fill="#222222"/>
<path d="M39.4201 50.9957L38.981 50.2713C38.6988 49.8045 38.847 49.1974 39.3138 48.9152C39.7807 48.6331 40.3877 48.7812 40.6699 49.2481L41.109 49.9724C41.3911 50.4393 41.243 51.0463 40.7761 51.3285C40.319 51.6093 39.7071 51.4691 39.4201 50.9957Z" fill="#222222"/>
<path d="M42.2448 49.2859L41.8057 48.5615C41.5235 48.0947 41.6717 47.4876 42.1385 47.2054C42.6054 46.9233 43.2124 47.0714 43.4946 47.5383L43.9337 48.2626C44.2158 48.7295 44.0677 49.3365 43.6009 49.6187C43.1437 49.8995 42.5318 49.7593 42.2448 49.2859Z" fill="#222222"/>
<path d="M45.0708 47.5738L44.6317 46.8495C44.3496 46.3826 44.4977 45.7756 44.9646 45.4934C45.4314 45.2113 46.0385 45.3594 46.3207 45.8262L46.7597 46.5506C47.0419 47.0174 46.8938 47.6245 46.4269 47.9066C45.9587 48.1905 45.353 48.0407 45.0708 47.5738Z" fill="#222222"/>
<path d="M9.05285 69.6032C9.0502 69.6045 9.04756 69.6058 9.04403 69.6067C9.0405 69.6076 9.03698 69.6084 9.03345 69.6084C9.02375 69.6084 9.01626 69.6058 9.01053 69.5996C9.00435 69.5939 9.00171 69.5864 9.00171 69.5767C9.00171 69.5675 9.00435 69.56 9.01053 69.5538C9.01626 69.5481 9.02375 69.545 9.03345 69.545C9.03698 69.545 9.0405 69.5458 9.04403 69.5467C9.04756 69.5481 9.0502 69.5494 9.05285 69.5503V69.5626C9.0502 69.5604 9.04756 69.5591 9.04403 69.5591C9.04138 69.5582 9.03874 69.5573 9.03521 69.5573C9.03036 69.5573 9.0264 69.5591 9.02287 69.5626C9.02022 69.5661 9.01934 69.571 9.01934 69.5767C9.01934 69.5829 9.02022 69.5873 9.02287 69.5908C9.0264 69.5943 9.03036 69.5961 9.03521 69.5961H9.04403C9.04756 69.5952 9.0502 69.5935 9.05285 69.5908V69.6032Z" fill="#222222"/>
<path d="M9.09693 69.5749C9.09693 69.5741 9.09604 69.5732 9.09516 69.5732C9.09384 69.5723 9.09252 69.5714 9.09164 69.5714C9.08679 69.5714 9.08326 69.5732 9.08106 69.5767C9.07973 69.5794 9.07929 69.582 9.07929 69.5855V69.6067H9.06519V69.5626H9.07929V69.5697C9.0815 69.5661 9.08326 69.5639 9.08458 69.5626C9.08679 69.5617 9.08987 69.5608 9.0934 69.5608H9.09516H9.09693V69.5749Z" fill="#222222"/>
<path d="M9.14942 69.5838V69.589H9.11591C9.1168 69.5926 9.11812 69.5952 9.11944 69.5961C9.12164 69.5974 9.12473 69.5979 9.12826 69.5979C9.13178 69.5979 9.13443 69.5974 9.13707 69.5961C9.1406 69.5952 9.14413 69.5939 9.14765 69.5926V69.6049C9.14413 69.6049 9.1406 69.6058 9.13707 69.6067C9.13443 69.6076 9.13178 69.6084 9.12826 69.6084C9.11856 69.6084 9.11151 69.6062 9.1071 69.6014C9.10357 69.597 9.10181 69.5917 9.10181 69.5855C9.10181 69.5776 9.10357 69.5714 9.1071 69.5679C9.11151 69.5635 9.11812 69.5608 9.12649 69.5608C9.13355 69.5608 9.13884 69.5635 9.14236 69.5679C9.14677 69.5714 9.14942 69.5767 9.14942 69.5838L9.14942 69.5838ZM9.13531 69.5802C9.13531 69.5767 9.13399 69.5745 9.13178 69.5732C9.13046 69.5723 9.1287 69.5714 9.12649 69.5714C9.12385 69.5714 9.12165 69.5723 9.11944 69.5732C9.11812 69.5745 9.1168 69.5767 9.11591 69.5802H9.13531Z" fill="#222222"/>
<path d="M9.18027 69.5855C9.17763 69.5855 9.17542 69.5868 9.17322 69.5891C9.1719 69.5904 9.17146 69.5917 9.17146 69.5926C9.17146 69.5939 9.1719 69.5952 9.17322 69.5961C9.1741 69.5974 9.17587 69.5979 9.17851 69.5979C9.18204 69.5979 9.18424 69.5974 9.18556 69.5961C9.18777 69.5939 9.18909 69.5917 9.18909 69.5891V69.5855H9.18027ZM9.20143 69.582V69.6067H9.18909V69.5996C9.18645 69.6032 9.18424 69.6058 9.18204 69.6067C9.17939 69.6076 9.17675 69.6084 9.17322 69.6084C9.16837 69.6084 9.1644 69.6071 9.16088 69.6049C9.15823 69.6014 9.15735 69.5974 9.15735 69.5926C9.15735 69.5882 9.15911 69.5846 9.16264 69.582C9.16617 69.5798 9.17146 69.5785 9.17851 69.5785H9.18909V69.5767C9.18909 69.5745 9.18777 69.5732 9.18556 69.5732C9.18424 69.5723 9.18115 69.5714 9.17675 69.5714H9.16793C9.16528 69.5714 9.16308 69.5723 9.16087 69.5732V69.5626H9.16969C9.17322 69.5617 9.17586 69.5608 9.17851 69.5608C9.18777 69.5608 9.1935 69.5626 9.19614 69.5661C9.19967 69.5697 9.20143 69.5749 9.20143 69.582L9.20143 69.582Z" fill="#222222"/>
<path d="M9.23185 69.5485V69.5626H9.24596V69.5714H9.23185V69.5908V69.5961H9.23714H9.2442V69.6067H9.23362C9.22745 69.6067 9.22304 69.6058 9.21951 69.6032C9.21687 69.601 9.21598 69.597 9.21598 69.5908V69.5714H9.21069V69.5626H9.21598V69.5485L9.23185 69.5485Z" fill="#222222"/>
<path d="M9.29895 69.5838V69.589H9.26545C9.26633 69.5926 9.26765 69.5952 9.26898 69.5961C9.27118 69.5974 9.27427 69.5979 9.27779 69.5979C9.28132 69.5979 9.28397 69.5974 9.28661 69.5961C9.29014 69.5952 9.29366 69.5939 9.29719 69.5926V69.6049C9.29366 69.6049 9.29014 69.6058 9.28661 69.6067C9.28397 69.6076 9.28132 69.6084 9.27779 69.6084C9.2681 69.6084 9.26104 69.6062 9.25663 69.6014C9.25311 69.597 9.25134 69.5917 9.25134 69.5855C9.25134 69.5776 9.25311 69.5714 9.25663 69.5679C9.26104 69.5635 9.26765 69.5608 9.27603 69.5608C9.28308 69.5608 9.28838 69.5635 9.2919 69.5679C9.29631 69.5714 9.29895 69.5767 9.29895 69.5838L9.29895 69.5838ZM9.28485 69.5802C9.28485 69.5767 9.28353 69.5745 9.28132 69.5732C9.28 69.5723 9.27824 69.5714 9.27603 69.5714C9.27339 69.5714 9.27118 69.5723 9.26898 69.5732C9.26765 69.5745 9.26633 69.5767 9.26545 69.5802H9.28485Z" fill="#222222"/>
<path d="M9.34039 69.5679V69.545H9.3545V69.6067H9.34039V69.5996C9.33907 69.6032 9.33686 69.6058 9.33334 69.6067C9.33069 69.6076 9.32849 69.6085 9.32628 69.6085C9.32011 69.6085 9.3157 69.6062 9.31217 69.6014C9.30865 69.597 9.30688 69.5917 9.30688 69.5855C9.30688 69.5776 9.30865 69.5714 9.31217 69.5679C9.3157 69.5635 9.32011 69.5608 9.32628 69.5608C9.32849 69.5608 9.33069 69.5617 9.33334 69.5626C9.33686 69.5639 9.33907 69.5657 9.34039 69.5679V69.5679ZM9.33157 69.5979C9.33378 69.5979 9.33554 69.597 9.33686 69.5943C9.33907 69.5921 9.34039 69.5891 9.34039 69.5855C9.34039 69.5811 9.33907 69.5776 9.33686 69.5749C9.33554 69.5727 9.33378 69.5714 9.33157 69.5714C9.32805 69.5714 9.32496 69.5727 9.32276 69.5749C9.32143 69.5776 9.32099 69.5811 9.32099 69.5855C9.32099 69.5891 9.32143 69.5921 9.32276 69.5943C9.32496 69.597 9.32805 69.5979 9.33157 69.5979Z" fill="#222222"/>
<path d="M9.41965 69.5979C9.42318 69.5979 9.42538 69.597 9.42671 69.5943C9.42759 69.5921 9.42847 69.5891 9.42847 69.5855C9.42847 69.5811 9.42759 69.5776 9.42671 69.5749C9.42538 69.5727 9.42318 69.5714 9.41965 69.5714C9.41613 69.5714 9.41348 69.5727 9.4126 69.5749C9.41128 69.5776 9.41084 69.5811 9.41084 69.5855C9.41084 69.5891 9.41128 69.5921 9.4126 69.5943C9.41348 69.597 9.41613 69.5979 9.41965 69.5979ZM9.41084 69.5679C9.41304 69.5657 9.41524 69.5639 9.41789 69.5626C9.42009 69.5617 9.4223 69.5608 9.42494 69.5608C9.43067 69.5608 9.43552 69.5635 9.43905 69.5679C9.44258 69.5714 9.44434 69.5776 9.44434 69.5855C9.44434 69.5917 9.44258 69.597 9.43905 69.6014C9.43552 69.6062 9.43067 69.6085 9.42494 69.6085C9.4223 69.6085 9.42009 69.6076 9.41789 69.6067C9.41524 69.6058 9.41304 69.6032 9.41084 69.5996V69.6067H9.39673V69.545H9.41084V69.5679Z" fill="#222222"/>
<path d="M9.45007 69.5626H9.46418L9.47476 69.5926L9.48534 69.5626H9.50121L9.48181 69.6102C9.47917 69.6159 9.47696 69.6195 9.47476 69.6208C9.47211 69.623 9.46859 69.6243 9.46418 69.6243H9.45536V69.6137H9.46065H9.46594C9.46682 69.6137 9.46815 69.612 9.46947 69.6084L9.45007 69.5626Z" fill="#222222"/>
<path d="M9.59164 69.6032C9.58679 69.6045 9.58282 69.6058 9.57929 69.6067C9.57577 69.6076 9.57092 69.6084 9.56519 69.6084C9.55549 69.6084 9.548 69.6058 9.54226 69.5996C9.53609 69.5939 9.53345 69.5864 9.53345 69.5767C9.53345 69.5675 9.53609 69.56 9.54226 69.5538C9.548 69.5481 9.55637 69.545 9.56695 69.545C9.57136 69.545 9.57489 69.5458 9.57753 69.5467C9.58106 69.5481 9.58459 69.5494 9.58811 69.5503V69.5626C9.58459 69.5604 9.58106 69.5591 9.57753 69.5591C9.57489 69.5582 9.57224 69.5573 9.56872 69.5573C9.56254 69.5573 9.55813 69.5591 9.55461 69.5626C9.55196 69.5661 9.55108 69.571 9.55108 69.5767C9.55108 69.5829 9.55196 69.5873 9.55461 69.5908C9.55813 69.5943 9.56254 69.5961 9.56872 69.5961H9.57224C9.57312 69.5961 9.57445 69.5957 9.57577 69.5943V69.5838H9.56695V69.5732H9.59164V69.6032Z" fill="#222222"/>
<path d="M9.63574 69.5749C9.63574 69.5741 9.63486 69.5732 9.63398 69.5732C9.63266 69.5723 9.63134 69.5714 9.63045 69.5714C9.62561 69.5714 9.62208 69.5732 9.61987 69.5767C9.61855 69.5794 9.61811 69.582 9.61811 69.5855V69.6067H9.604V69.5626H9.61811V69.5697C9.62032 69.5661 9.62208 69.5639 9.6234 69.5626C9.62561 69.5617 9.62869 69.5608 9.63222 69.5608H9.63398H9.63574V69.5749Z" fill="#222222"/>
<path d="M9.66343 69.5855C9.66078 69.5855 9.65858 69.5868 9.65637 69.5891C9.65505 69.5904 9.65461 69.5917 9.65461 69.5926C9.65461 69.5939 9.65505 69.5952 9.65637 69.5961C9.65726 69.5974 9.65902 69.5979 9.66166 69.5979C9.66519 69.5979 9.6674 69.5974 9.66872 69.5961C9.67092 69.5939 9.67225 69.5917 9.67225 69.5891V69.5855H9.66343ZM9.68459 69.582V69.6067H9.67224V69.5996C9.6696 69.6032 9.6674 69.6058 9.66519 69.6067C9.66255 69.6076 9.6599 69.6084 9.65637 69.6084C9.65152 69.6084 9.64756 69.6071 9.64403 69.6049C9.64138 69.6014 9.6405 69.5974 9.6405 69.5926C9.6405 69.5882 9.64227 69.5846 9.64579 69.582C9.64932 69.5798 9.65461 69.5785 9.66166 69.5785H9.67224V69.5767C9.67224 69.5745 9.67092 69.5732 9.66872 69.5732C9.66739 69.5723 9.66431 69.5714 9.6599 69.5714H9.65108C9.64844 69.5714 9.64623 69.5723 9.64403 69.5732V69.5626H9.65285C9.65637 69.5617 9.65902 69.5608 9.66166 69.5608C9.67092 69.5608 9.67665 69.5626 9.6793 69.5661C9.68282 69.5697 9.68459 69.5749 9.68459 69.582L9.68459 69.582Z" fill="#222222"/>
<path d="M9.71333 69.5996V69.6226H9.69922V69.5626H9.71333V69.5679C9.71553 69.5657 9.71773 69.5639 9.72038 69.5626C9.72258 69.5617 9.72479 69.5608 9.72743 69.5608C9.73316 69.5608 9.73801 69.5635 9.74154 69.5679C9.74507 69.5714 9.74683 69.5776 9.74683 69.5855C9.74683 69.5917 9.74507 69.597 9.74154 69.6014C9.73801 69.6062 9.73316 69.6084 9.72743 69.6084C9.72479 69.6084 9.72258 69.6076 9.72038 69.6067C9.71773 69.6058 9.71553 69.6032 9.71333 69.5996V69.5996ZM9.72214 69.5714C9.71862 69.5714 9.71597 69.5727 9.71509 69.5749C9.71377 69.5776 9.71333 69.5811 9.71333 69.5855C9.71333 69.5891 9.71377 69.5921 9.71509 69.5943C9.71597 69.597 9.71862 69.5979 9.72214 69.5979C9.72567 69.5979 9.72787 69.597 9.7292 69.5943C9.73008 69.5921 9.73096 69.5891 9.73096 69.5855C9.73096 69.5811 9.73008 69.5776 9.7292 69.5749C9.72787 69.5727 9.72567 69.5714 9.72214 69.5714Z" fill="#222222"/>
<path d="M9.80366 69.5802V69.6067H9.78779V69.5855V69.5785C9.78779 69.5776 9.78691 69.5763 9.78603 69.5749C9.78603 69.5741 9.78515 69.5732 9.78426 69.5732C9.78426 69.5723 9.78294 69.5714 9.78074 69.5714C9.77809 69.5714 9.77589 69.5727 9.77368 69.5749C9.77236 69.5776 9.77192 69.5811 9.77192 69.5855V69.6067H9.75781V69.545H9.77192V69.5679C9.77412 69.5657 9.77633 69.5639 9.77897 69.5626C9.78118 69.5617 9.78338 69.5608 9.78603 69.5608C9.79176 69.5608 9.79573 69.5626 9.79837 69.5661C9.8019 69.5697 9.80366 69.5745 9.80366 69.5802L9.80366 69.5802Z" fill="#222222"/>
<path d="M9.81555 69.5626H9.82966V69.6067H9.81555V69.5626ZM9.81555 69.545H9.82966V69.5555H9.81555V69.545Z" fill="#222222"/>
<path d="M9.85437 69.5838L9.8385 69.5626H9.85261L9.86319 69.5749L9.87201 69.5626H9.88788L9.87201 69.5838L9.88788 69.6067H9.87201L9.86319 69.5926L9.85261 69.6067H9.8385L9.85437 69.5838Z" fill="#222222"/>
<path d="M9.93149 69.5626V69.5749C9.92797 69.5727 9.92444 69.5714 9.92091 69.5714H9.91386H9.90681C9.90548 69.5714 9.90504 69.5727 9.90504 69.5749C9.90504 69.5763 9.90548 69.5776 9.90681 69.5785H9.91386H9.91562C9.92268 69.5798 9.92709 69.5816 9.92973 69.5838C9.93194 69.5851 9.93326 69.5886 9.93326 69.5943C9.93326 69.5979 9.93149 69.6014 9.92797 69.6049C9.92532 69.6071 9.92091 69.6084 9.91386 69.6084C9.91033 69.6084 9.90681 69.6076 9.90328 69.6067C9.90064 69.6067 9.89799 69.6062 9.89446 69.6049V69.5943C9.89667 69.5957 9.89887 69.597 9.90152 69.5979H9.9121H9.91739C9.91827 69.597 9.91915 69.5957 9.91915 69.5943C9.91915 69.5921 9.91827 69.5908 9.91739 69.5908C9.91739 69.5908 9.91607 69.5904 9.91386 69.5891H9.91033C9.90416 69.5882 9.89975 69.5868 9.89623 69.5855C9.89358 69.5833 9.8927 69.5798 9.8927 69.5749C9.8927 69.5705 9.89446 69.567 9.89799 69.5644C9.90152 69.5622 9.90681 69.5608 9.91386 69.5608C9.91606 69.5608 9.91827 69.5617 9.92091 69.5626H9.93149L9.93149 69.5626Z" fill="#222222"/>
<path d="M9.9783 69.619V69.6261H9.93774V69.619H9.9783Z" fill="#222222"/>
<path d="M10.0227 69.5943H9.99803L9.99451 69.6067H9.97864L10.0016 69.5467H10.0192L10.0404 69.6067H10.0262L10.0227 69.5943ZM10.0016 69.5855H10.0174L10.0104 69.5608L10.0016 69.5855Z" fill="#222222"/>
<path d="M10.0806 69.5749C10.0806 69.5741 10.0797 69.5732 10.0788 69.5732C10.0775 69.5723 10.0762 69.5714 10.0753 69.5714C10.0704 69.5714 10.0669 69.5732 10.0647 69.5767C10.0634 69.5794 10.0629 69.582 10.0629 69.5855V69.6067H10.0488V69.5626H10.0629V69.5697C10.0651 69.5661 10.0669 69.5639 10.0682 69.5626C10.0704 69.5617 10.0735 69.5608 10.077 69.5608H10.0788H10.0806V69.5749Z" fill="#222222"/>
<path d="M10.1048 69.5485V69.5626H10.1189V69.5714H10.1048V69.5908V69.5961H10.1101H10.1171V69.6067H10.1065C10.1004 69.6067 10.096 69.6058 10.0924 69.6032C10.0898 69.601 10.0889 69.597 10.0889 69.5908V69.5714H10.0836V69.5626H10.0889V69.5485L10.1048 69.5485Z" fill="#222222"/>
<path d="M9.0335 69.6265V69.6353H9.02645C9.02381 69.6353 9.02204 69.6362 9.02116 69.6371V69.6406V69.6442H9.03351V69.653H9.02116V69.6882H9.00705V69.653H9V69.6442H9.00705V69.6406C9.00705 69.6362 9.00794 69.6327 9.01058 69.6301C9.01278 69.6278 9.01675 69.6265 9.02292 69.6265H9.0335Z" fill="#222222"/>
<path d="M9.07276 69.6565C9.07276 69.6556 9.07188 69.6547 9.07099 69.6547C9.06967 69.6539 9.06835 69.653 9.06747 69.653C9.06262 69.653 9.05909 69.6547 9.05689 69.6583C9.05556 69.6609 9.05512 69.6636 9.05512 69.6671V69.6882H9.04102V69.6442H9.05512V69.6512C9.05733 69.6477 9.05909 69.6455 9.06041 69.6442C9.06262 69.6433 9.0657 69.6424 9.06923 69.6424H9.07099H9.07276V69.6565Z" fill="#222222"/>
<path d="M9.10232 69.653C9.0988 69.653 9.09571 69.6543 9.09351 69.6565C9.09219 69.6578 9.09174 69.6614 9.09174 69.6671C9.09174 69.6706 9.09219 69.6737 9.09351 69.6759C9.09571 69.6785 9.0988 69.6794 9.10232 69.6794C9.10585 69.6794 9.10806 69.6785 9.10938 69.6759C9.11158 69.6737 9.11291 69.6706 9.11291 69.6671C9.11291 69.6614 9.11158 69.6578 9.10938 69.6565C9.10806 69.6543 9.10585 69.653 9.10232 69.653ZM9.10232 69.6424C9.10938 69.6424 9.11511 69.645 9.11996 69.6494C9.12437 69.653 9.12701 69.6591 9.12701 69.6671C9.12701 69.6733 9.12437 69.6785 9.11996 69.683C9.11511 69.6878 9.10938 69.69 9.10232 69.69C9.09395 69.69 9.08734 69.6878 9.08293 69.683C9.0794 69.6785 9.07764 69.6733 9.07764 69.6671C9.07764 69.6591 9.0794 69.653 9.08293 69.6494C9.08734 69.645 9.09395 69.6424 9.10232 69.6424Z" fill="#222222"/>
<path d="M9.17764 69.6512C9.17985 69.649 9.18205 69.6472 9.1847 69.6459C9.1869 69.6437 9.1891 69.6424 9.19175 69.6424C9.19748 69.6424 9.20145 69.6442 9.20409 69.6477C9.20762 69.6512 9.20938 69.6561 9.20938 69.6618V69.6882H9.19351V69.6653V69.6636C9.19351 69.66 9.19263 69.6578 9.19175 69.6565C9.19175 69.6543 9.19043 69.653 9.18822 69.653C9.18558 69.653 9.18337 69.6543 9.18117 69.6565C9.17985 69.6591 9.17941 69.6627 9.17941 69.6671V69.6882H9.1653V69.6653C9.1653 69.6609 9.16442 69.6578 9.16354 69.6565C9.16354 69.6543 9.16221 69.653 9.16001 69.653C9.15648 69.653 9.15384 69.6543 9.15296 69.6565C9.15163 69.6591 9.15119 69.6627 9.15119 69.6671V69.6882H9.13708V69.6442H9.15119V69.6495L9.15648 69.6442C9.15869 69.6433 9.16177 69.6424 9.1653 69.6424C9.1675 69.6424 9.16971 69.6437 9.17235 69.6459C9.17456 69.6472 9.17632 69.649 9.17764 69.6512L9.17764 69.6512Z" fill="#222222"/>
<path d="M9.26628 69.6301V69.6442H9.28039V69.653H9.26628V69.6724V69.6777H9.27157H9.27862V69.6882H9.26804C9.26187 69.6882 9.25746 69.6874 9.25393 69.6847C9.25129 69.6825 9.25041 69.6785 9.25041 69.6724V69.653H9.24512V69.6442H9.25041V69.6301L9.26628 69.6301Z" fill="#222222"/>
<path d="M9.33552 69.6618V69.6882H9.31965V69.6671V69.66C9.31965 69.6591 9.31877 69.6578 9.31789 69.6565C9.31789 69.6556 9.31701 69.6547 9.31612 69.6547C9.31612 69.6539 9.3148 69.653 9.3126 69.653C9.30995 69.653 9.30775 69.6543 9.30554 69.6565C9.30422 69.6591 9.30378 69.6627 9.30378 69.6671V69.6882H9.28967V69.6265H9.30378V69.6494C9.30598 69.6472 9.30819 69.6455 9.31083 69.6442C9.31304 69.6433 9.31524 69.6424 9.31789 69.6424C9.32362 69.6424 9.32759 69.6442 9.33023 69.6477C9.33376 69.6512 9.33552 69.6561 9.33552 69.6618L9.33552 69.6618Z" fill="#222222"/>
<path d="M9.39148 69.6653V69.6706H9.35798C9.35886 69.6741 9.36018 69.6768 9.36151 69.6777C9.36371 69.679 9.3668 69.6794 9.37032 69.6794C9.37385 69.6794 9.37649 69.679 9.37914 69.6777C9.38267 69.6768 9.38619 69.6755 9.38972 69.6741V69.6865C9.38619 69.6865 9.38267 69.6874 9.37914 69.6882C9.37649 69.6891 9.37385 69.69 9.37032 69.69C9.36062 69.69 9.35357 69.6878 9.34916 69.683C9.34564 69.6785 9.34387 69.6733 9.34387 69.6671C9.34387 69.6591 9.34564 69.653 9.34916 69.6494C9.35357 69.645 9.36018 69.6424 9.36856 69.6424C9.37561 69.6424 9.3809 69.645 9.38443 69.6494C9.38884 69.653 9.39148 69.6583 9.39148 69.6653L9.39148 69.6653ZM9.37738 69.6618C9.37738 69.6583 9.37605 69.6561 9.37385 69.6547C9.37253 69.6539 9.37076 69.653 9.36856 69.653C9.36591 69.653 9.36371 69.6539 9.36151 69.6547C9.36018 69.6561 9.35886 69.6583 9.35798 69.6618H9.37738Z" fill="#222222"/>
<path d="M9.43115 69.6283H9.44879L9.46995 69.6689V69.6283H9.48582V69.6883H9.46818L9.44526 69.6477V69.6883H9.43115V69.6283Z" fill="#222222"/>
<path d="M9.52066 69.653C9.51713 69.653 9.51405 69.6543 9.51184 69.6565C9.51052 69.6578 9.51008 69.6614 9.51008 69.6671C9.51008 69.6706 9.51052 69.6737 9.51184 69.6759C9.51405 69.6785 9.51713 69.6794 9.52066 69.6794C9.52419 69.6794 9.52639 69.6785 9.52771 69.6759C9.52992 69.6737 9.53124 69.6706 9.53124 69.6671C9.53124 69.6614 9.52992 69.6578 9.52771 69.6565C9.52639 69.6543 9.52419 69.653 9.52066 69.653ZM9.52066 69.6424C9.52771 69.6424 9.53344 69.645 9.53829 69.6494C9.5427 69.653 9.54535 69.6591 9.54535 69.6671C9.54535 69.6733 9.5427 69.6785 9.53829 69.683C9.53344 69.6878 9.52771 69.69 9.52066 69.69C9.51228 69.69 9.50567 69.6878 9.50126 69.683C9.49774 69.6785 9.49597 69.6733 9.49597 69.6671C9.49597 69.6591 9.49774 69.653 9.50126 69.6494C9.50567 69.645 9.51228 69.6424 9.52066 69.6424Z" fill="#222222"/>
<path d="M9.55542 69.6706V69.6442H9.56953V69.6477V69.6583V69.6636V69.6724V69.6759C9.57041 69.6759 9.57129 69.6768 9.57129 69.6777H9.57658C9.57878 69.6777 9.58055 69.6772 9.58187 69.6759C9.58408 69.6737 9.5854 69.6702 9.5854 69.6653V69.6442H9.5995V69.6882H9.5854V69.6812C9.58275 69.6847 9.58055 69.6874 9.57834 69.6882C9.5757 69.6891 9.57305 69.69 9.56953 69.69C9.56468 69.69 9.56115 69.6882 9.55895 69.6847C9.5563 69.6812 9.55542 69.6768 9.55542 69.6706V69.6706Z" fill="#222222"/>
<path d="M9.6595 69.6618V69.6882H9.64363V69.6671V69.66C9.64363 69.6591 9.64274 69.6578 9.64186 69.6565C9.64186 69.6556 9.64098 69.6547 9.6401 69.6547C9.6401 69.6539 9.63878 69.653 9.63657 69.653C9.63393 69.653 9.63172 69.6543 9.62952 69.6565C9.6282 69.6591 9.62775 69.6627 9.62775 69.6671V69.6882H9.61365V69.6442H9.62775V69.6494C9.62996 69.6472 9.63216 69.6455 9.63481 69.6442C9.63701 69.6433 9.63922 69.6424 9.64186 69.6424C9.64759 69.6424 9.65156 69.6442 9.65421 69.6477C9.65773 69.6512 9.6595 69.6561 9.6595 69.6618L9.6595 69.6618Z" fill="#222222"/>
<path d="M9.70007 69.6283H9.72652C9.73358 69.6283 9.73887 69.6301 9.74239 69.6336C9.7468 69.6371 9.74945 69.6424 9.74945 69.6495C9.74945 69.6556 9.7468 69.66 9.74239 69.6636C9.73887 69.6662 9.73358 69.6671 9.72652 69.6671H9.71594V69.6883H9.70007L9.70007 69.6283ZM9.71594 69.6406V69.6565H9.72476C9.72696 69.6565 9.72873 69.6561 9.73005 69.6547C9.73225 69.6539 9.73358 69.6521 9.73358 69.6495C9.73358 69.6459 9.73225 69.6437 9.73005 69.6424C9.72873 69.6415 9.72696 69.6406 9.72476 69.6406L9.71594 69.6406Z" fill="#222222"/>
<path d="M9.79175 69.6565C9.79175 69.6556 9.79087 69.6547 9.78999 69.6547C9.78866 69.6539 9.78734 69.653 9.78646 69.653C9.78161 69.653 9.77808 69.6547 9.77588 69.6583C9.77456 69.6609 9.77412 69.6636 9.77412 69.6671V69.6882H9.76001V69.6442H9.77412V69.6512C9.77632 69.6477 9.77808 69.6455 9.77941 69.6442C9.78161 69.6433 9.7847 69.6424 9.78822 69.6424H9.78999H9.79175V69.6565Z" fill="#222222"/>
<path d="M9.82132 69.653C9.81779 69.653 9.81471 69.6543 9.8125 69.6565C9.81118 69.6578 9.81074 69.6614 9.81074 69.6671C9.81074 69.6706 9.81118 69.6737 9.8125 69.6759C9.81471 69.6785 9.81779 69.6794 9.82132 69.6794C9.82485 69.6794 9.82705 69.6785 9.82837 69.6759C9.83058 69.6737 9.8319 69.6706 9.8319 69.6671C9.8319 69.6614 9.83058 69.6578 9.82837 69.6565C9.82705 69.6543 9.82485 69.653 9.82132 69.653ZM9.82132 69.6424C9.82837 69.6424 9.8341 69.645 9.83895 69.6494C9.84336 69.653 9.84601 69.6591 9.84601 69.6671C9.84601 69.6733 9.84336 69.6785 9.83895 69.683C9.8341 69.6878 9.82837 69.69 9.82132 69.69C9.81294 69.69 9.80633 69.6878 9.80192 69.683C9.79839 69.6785 9.79663 69.6733 9.79663 69.6671C9.79663 69.6591 9.79839 69.653 9.80192 69.6494C9.80633 69.645 9.81294 69.6424 9.82132 69.6424Z" fill="#222222"/>
<path d="M9.85611 69.6442H9.87021V69.6865C9.87021 69.6922 9.86845 69.6971 9.86492 69.7006C9.86228 69.7041 9.85831 69.7059 9.85258 69.7059H9.84729V69.6953H9.84905C9.85126 69.6953 9.85302 69.6944 9.85434 69.6935C9.85523 69.6935 9.85611 69.6909 9.85611 69.6865L9.85611 69.6442ZM9.85611 69.6265H9.87021V69.6371H9.85611V69.6265Z" fill="#222222"/>
<path d="M9.92847 69.6653V69.6706H9.89497C9.89585 69.6741 9.89717 69.6768 9.89849 69.6777C9.9007 69.679 9.90378 69.6794 9.90731 69.6794C9.91084 69.6794 9.91348 69.679 9.91613 69.6777C9.91965 69.6768 9.92318 69.6755 9.92671 69.6741V69.6865C9.92318 69.6865 9.91965 69.6874 9.91613 69.6882C9.91348 69.6891 9.91084 69.69 9.90731 69.69C9.89761 69.69 9.89056 69.6878 9.88615 69.683C9.88262 69.6785 9.88086 69.6733 9.88086 69.6671C9.88086 69.6591 9.88262 69.653 9.88615 69.6494C9.89056 69.645 9.89717 69.6424 9.90555 69.6424C9.9126 69.6424 9.91789 69.645 9.92142 69.6494C9.92583 69.653 9.92847 69.6583 9.92847 69.6653L9.92847 69.6653ZM9.91436 69.6618C9.91436 69.6583 9.91304 69.6561 9.91084 69.6547C9.90952 69.6539 9.90775 69.653 9.90555 69.653C9.9029 69.653 9.9007 69.6539 9.89849 69.6547C9.89717 69.6561 9.89585 69.6583 9.89497 69.6618H9.91436Z" fill="#222222"/>
<path d="M9.97647 69.6442V69.6565C9.97294 69.6556 9.9703 69.6547 9.96942 69.6547C9.96809 69.6539 9.96589 69.653 9.96236 69.653C9.95884 69.653 9.95575 69.6543 9.95355 69.6565C9.9509 69.6591 9.95002 69.6627 9.95002 69.6671C9.95002 69.6706 9.9509 69.6737 9.95355 69.6759C9.95575 69.6785 9.95884 69.6794 9.96236 69.6794C9.96589 69.6794 9.96809 69.679 9.96942 69.6777C9.97162 69.6768 9.97383 69.6759 9.97647 69.6759V69.6865C9.97294 69.6878 9.96986 69.6882 9.96765 69.6882C9.96633 69.6891 9.96457 69.69 9.96236 69.69C9.95267 69.69 9.94561 69.6878 9.9412 69.683C9.93768 69.6785 9.93591 69.6733 9.93591 69.6671C9.93591 69.6591 9.93768 69.653 9.9412 69.6494C9.94561 69.645 9.95267 69.6424 9.96236 69.6424C9.96457 69.6424 9.96633 69.6433 9.96765 69.6442H9.97647V69.6442Z" fill="#222222"/>
<path d="M10.0038 69.6301V69.6442H10.0179V69.653H10.0038V69.6724V69.6777H10.0091H10.0162V69.6882H10.0056C9.99942 69.6882 9.99501 69.6874 9.99148 69.6847C9.98884 69.6825 9.98796 69.6785 9.98796 69.6724V69.653H9.98267V69.6442H9.98796V69.6301L10.0038 69.6301Z" fill="#222222"/>
</svg>
