<svg width="61" height="49" viewBox="0 0 61 49" fill="none" xmlns="http://www.w3.org/2000/svg">
<path d="M59.9344 39.8129V39.8127V24.929C59.9348 23.4693 59.4161 22.0573 58.4715 20.944L56.765 18.9342L56.7175 18.8782V18.8048V18.7904L53.917 7.05809L53.9169 7.05761C53.5168 5.36287 52.5551 3.85325 51.1886 2.77419C49.8217 1.69474 48.1303 1.10945 46.3891 1.11286L46.3887 1.11286L15.458 1.11286H15.4576C13.7164 1.10942 12.025 1.69469 10.6581 2.77418L10.6581 2.77419C9.29156 3.8532 8.32989 5.36275 7.9298 7.05761L7.92967 7.05817L5.14875 18.687L5.13502 18.7444L5.09232 18.7851L3.01297 20.7697C1.79635 21.9334 1.10634 23.5428 1.10323 25.2265V44.982C1.10323 45.767 1.415 46.5198 1.97004 47.0753C2.52501 47.6302 3.27776 47.942 4.06325 47.942H11.6471C12.4322 47.942 13.185 47.6302 13.74 47.0753C14.2954 46.5198 14.6072 45.767 14.6072 44.982V41.3921V41.1921H14.8072H46.2367H46.4367V41.3921V44.982C46.4367 45.767 46.7485 46.5198 47.3035 47.0753C47.3035 47.0753 47.3035 47.0753 47.3036 47.0753M59.9344 39.8129L60.1407 44.982C60.1407 45.8201 59.8078 46.6237 59.2149 47.2167C58.6224 47.8092 57.8187 48.142 56.9807 48.142H49.3968C48.5587 48.142 47.7546 47.8092 47.1621 47.2167L47.3036 47.0753M59.9344 39.8129L59.9407 44.982C59.9407 44.9821 59.9407 44.9822 59.9407 44.9822M59.9344 39.8129L59.9407 44.9822M47.3036 47.0753C47.8585 47.6302 48.6117 47.942 49.3968 47.942H56.9807C57.7657 47.942 58.5185 47.6302 59.0735 47.0753C59.6288 46.5199 59.9406 45.7672 59.9407 44.9822M47.3036 47.0753L59.9407 44.9822M12.4003 4.94728L12.4003 4.94724C13.2804 4.25277 14.3693 3.87658 15.4904 3.87927M12.4003 4.94728L15.4902 4.07927M12.4003 4.94728C11.5203 5.64208 10.9012 6.61341 10.6438 7.70465C10.6438 7.70484 10.6438 7.70502 10.6437 7.70521L8.2681 17.5381L8.20843 17.7851H8.4625H11.4016H11.5911L11.6013 17.5959C11.7576 14.7138 13.3865 12.1148 15.9122 10.7167C18.4375 9.31901 21.5049 9.31901 24.0307 10.7167C26.556 12.1147 28.1848 14.7138 28.3416 17.596L28.3518 17.7851H28.5413H53.3721H53.6254L53.5666 17.5387L51.2219 7.70564L51.0273 7.75153L51.2218 7.70514L51.2219 7.70551C50.9646 6.61421 50.3459 5.64225 49.4658 4.94728L49.4658 4.94724C48.5857 4.25277 47.4968 3.87658 46.3757 3.87927M12.4003 4.94728L46.3759 4.07927M15.4904 3.87927C15.4905 3.87927 15.4906 3.87927 15.4907 3.87927L15.4902 4.07927M15.4904 3.87927H15.4902V4.07927M15.4904 3.87927H46.3757M15.4902 4.07927H46.3759M46.3757 3.87927C46.3756 3.87927 46.3755 3.87927 46.3754 3.87927L46.3759 4.07927M46.3757 3.87927H46.3759V4.07927M46.3887 0.912857H15.458C13.6717 0.90933 11.9365 1.50977 10.5341 2.61723C9.13221 3.7242 8.14561 5.27287 7.73515 7.01166L46.3887 0.912857ZM25.3812 17.7851H25.5986L25.5805 17.5684C25.4218 15.6761 24.3194 13.9908 22.6488 13.0876C20.978 12.1839 18.9646 12.1839 17.2935 13.0876C15.6227 13.9908 14.5207 15.6761 14.3621 17.5684L14.344 17.7851H14.5614H25.3812ZM3.86357 25.226V25.2264L3.86389 38.2325L3.8639 38.4324L4.06389 38.4325L56.9747 38.4329H57.1747V38.2329V24.9609C57.1747 24.1566 56.889 23.3777 56.369 22.7645L56.3688 22.7643L54.5424 20.6156L54.4825 20.5451H54.39H7.36239H7.28316L7.22543 20.5994L4.91851 22.7675L4.91743 22.7685C4.24574 23.4093 3.86497 24.2973 3.86357 25.226ZM11.6475 45.1955H11.8475V44.9955V41.3929V41.1929H11.6475H4.06357H3.86357V41.3929V44.9955V45.1955H4.06357H11.6475ZM49.2162 44.9955V45.1955H49.4162H57.0001H57.2001V44.9955V41.3929V41.1929H57.0001H49.4162H49.2162V41.3929V44.9955Z" fill="#222222" stroke="#FBF6F0" stroke-width="0.4"/>
<path d="M18.0401 35.448L18.04 35.4481C17.7813 35.7071 17.4302 35.8523 17.0644 35.8523H8.02034C7.65409 35.8523 7.30342 35.7071 7.04476 35.4481L7.04455 35.4479C6.7855 35.1892 6.64034 34.8385 6.64034 34.4723V28.2788C6.64034 27.5168 7.25795 26.8988 8.02034 26.8988H17.0644C17.4301 26.8988 17.7813 27.0443 18.0401 27.3031C18.2989 27.5619 18.4444 27.9127 18.4444 28.2788V34.4723C18.4444 34.8384 18.2989 35.1892 18.0401 35.448ZM9.60034 29.6588H9.40034V29.8588V32.8923V33.0923H9.60034H15.4844H15.6844V32.8923V29.8588V29.6588H15.4844H9.60034Z" fill="#222222" stroke="#FBF6F0" stroke-width="0.4"/>
<path d="M53.9941 27.3031L53.9942 27.3032C54.2532 27.5619 54.3984 27.9125 54.3984 28.2788V34.4723C54.3984 34.8385 54.2532 35.1892 53.9942 35.4479L53.994 35.4481C53.7353 35.7071 53.3847 35.8523 53.0184 35.8523H43.9744C43.6085 35.8523 43.2574 35.7071 42.9988 35.4481L42.9987 35.448C42.7399 35.1892 42.5944 34.8384 42.5944 34.4723V28.2788C42.5944 27.5168 43.2124 26.8988 43.9744 26.8988H53.0184C53.3845 26.8988 53.7353 27.0443 53.9941 27.3031ZM45.5544 29.6588H45.3544V29.8588V32.8923V33.0923H45.5544H51.4384H51.6384V32.8923V29.8588V29.6588H51.4384H45.5544Z" fill="#222222" stroke="#FBF6F0" stroke-width="0.4"/>
</svg>
