<svg width="360" height="459" viewBox="0 0 360 459" fill="none" xmlns="http://www.w3.org/2000/svg">
<g filter="url(#filter0_d_1_1155)">
<path d="M20 28C20 22.3431 20 19.5147 21.7574 17.7574C23.5147 16 26.3431 16 32 16H328C333.657 16 336.485 16 338.243 17.7574C340 19.5147 340 22.3431 340 28V424.119C340 428.322 334.829 430.323 332 427.217L327.788 421.616C324.029 416.617 322.149 414.118 319.478 413.889C316.806 413.66 314.529 415.803 309.974 420.09L301.29 428.261C297.394 431.928 295.446 433.761 293.067 433.761C290.687 433.761 288.739 431.928 284.843 428.261L274.793 418.804C270.823 415.068 268.838 413.2 266.424 413.225C264.009 413.249 262.063 415.157 258.169 418.974L249.574 427.4C245.446 431.446 243.382 433.469 240.856 433.414C238.33 433.359 236.356 431.248 232.409 427.027L224.728 418.813C221.213 415.054 219.455 413.175 217.157 412.979C214.859 412.784 212.809 414.339 208.709 417.451L192.7 429.6C188.684 432.647 186.676 434.171 184.414 434.004C182.152 433.837 180.39 432.034 176.865 428.429L167.654 419.008C163.902 415.17 162.027 413.251 159.643 413.156C157.26 413.061 155.237 414.824 151.19 418.349L138.541 429.371C134.906 432.539 133.088 434.123 130.901 434.161C128.714 434.2 126.842 432.681 123.097 429.643L108.686 417.952C104.567 414.611 102.508 412.94 100.151 413.102C97.7941 413.265 95.983 415.201 92.3609 419.075L84.7554 427.208C80.8805 431.351 78.9431 433.423 76.4535 433.503C73.964 433.582 71.8983 431.638 67.7669 427.75L57.2802 417.882C53.7399 414.55 51.9697 412.885 49.7705 412.771C47.5712 412.658 45.6392 414.133 41.775 417.083L28.7863 426.998C28.5957 427.144 28.4163 427.303 28.2495 427.475C25.2491 430.576 20 428.452 20 424.137V331V226V28Z" fill="white"/>
</g>
<defs>
<filter id="filter0_d_1_1155" x="0" y="0" width="360" height="458.162" filterUnits="userSpaceOnUse" color-interpolation-filters="sRGB">
<feFlood flood-opacity="0" result="BackgroundImageFix"/>
<feColorMatrix in="SourceAlpha" type="matrix" values="0 0 0 0 0 0 0 0 0 0 0 0 0 0 0 0 0 0 127 0" result="hardAlpha"/>
<feOffset dy="4"/>
<feGaussianBlur stdDeviation="10"/>
<feComposite in2="hardAlpha" operator="out"/>
<feColorMatrix type="matrix" values="0 0 0 0 0 0 0 0 0 0 0 0 0 0 0 0 0 0 0.06 0"/>
<feBlend mode="normal" in2="BackgroundImageFix" result="effect1_dropShadow_1_1155"/>
<feBlend mode="normal" in="SourceGraphic" in2="effect1_dropShadow_1_1155" result="shape"/>
</filter>
</defs>
</svg>
